<svg width="10" height="7" viewBox="0 0 10 7" fill="none" xmlns="http://www.w3.org/2000/svg">
<path d="M4.80687 6.23934C4.63326 6.23704 4.46713 6.15822 4.34312 6.01934L0.195624 1.27934C0.133711 1.21039 0.0845048 1.12798 0.050907 1.03695C0.0173091 0.945926 0 0.848133 0 0.74934C0 0.650547 0.0173091 0.552754 0.050907 0.461728C0.0845048 0.370702 0.133711 0.288286 0.195624 0.21934C0.318671 0.0788894 0.485467 0 0.659374 0C0.833281 0 1.00008 0.0788894 1.12312 0.21934L4.80687 4.42934L8.49062 0.21934C8.61367 0.0788894 8.78047 0 8.95437 0C9.12828 0 9.29508 0.0788894 9.41813 0.21934C9.48004 0.288286 9.52924 0.370702 9.56284 0.461728C9.59644 0.552754 9.61375 0.650547 9.61375 0.74934C9.61375 0.848133 9.59644 0.945926 9.56284 1.03695C9.52924 1.12798 9.48004 1.21039 9.41813 1.27934L5.27062 6.01934C5.14767 6.16003 4.98086 6.23916 4.80687 6.23934Z" fill="white"/>
</svg>
