<svg width="16" height="14" viewBox="0 0 16 14" fill="none" xmlns="http://www.w3.org/2000/svg">
<path d="M2.1872 14C2.18597 14 2.18473 14 2.1835 14C1.88497 14 1.62221 13.8486 1.47355 13.6207L1.4717 13.6171C1.36623 13.4657 1.27062 13.2922 1.19476 13.1091L1.18797 13.0906L1.11396 12.9829C0.513184 11.8557 0.115343 10.5371 0.00616807 9.14068L0.00370087 9.10598C0.00123364 9.03658 0 8.95461 0 8.87265C0 7.92137 0.177641 7.01017 0.502699 6.16897L0.484811 6.22222C1.49638 3.82906 4.04996 2.63248 8.2936 2.63248H9.52722V1.07692C9.534 0.484615 10.0268 0.0065812 10.6369 0H10.6375C10.9465 0.00119658 11.2259 0.124444 11.427 0.323077L15.6706 4.43932C15.8742 4.63436 16 4.90538 16 5.20513C16 5.50487 15.8742 5.7759 15.6706 5.97094L11.427 10.0872C11.2259 10.2858 10.9465 10.4091 10.6375 10.4103C10.0268 10.4037 9.534 9.92564 9.52722 9.33393V7.82564H8.2936C4.75312 7.82564 2.95204 8.4359 2.95204 11.7624C2.95204 12.0735 2.95204 12.3966 2.95204 12.7077V12.8393C2.95574 12.886 2.95759 12.9404 2.95759 12.9949C2.95759 13.0493 2.95574 13.1038 2.95143 13.1576L2.95204 13.1504C2.95204 13.1588 2.95266 13.1684 2.95266 13.1785C2.95266 13.6051 2.61897 13.9563 2.1909 13.9994H2.1872V14ZM8.28126 3.7094C4.58042 3.7094 2.37224 4.6547 1.57039 6.59316C1.3175 7.25667 1.17132 8.02367 1.17132 8.82299C1.17132 8.90556 1.17317 8.98812 1.17625 9.07008L1.17564 9.05812C1.23547 9.96513 1.45197 10.8081 1.79923 11.5835L1.78011 11.535C1.85412 7.07179 5.18489 6.68889 8.28126 6.68889H10.7485V9.32137L14.8811 5.19316L10.6621 1.12479L10.7608 3.7094H8.28126Z" fill="#4080FF"/>
</svg>
