<svg width="134" height="35" viewBox="0 0 134 35" fill="none" xmlns="http://www.w3.org/2000/svg">
<path fill-rule="evenodd" clip-rule="evenodd" d="M122.088 35C122.202 35 122.842 34.8939 123.009 34.8685C126.142 34.388 128.437 33.0029 129.703 29.1836C130.566 26.5825 134 16.0416 134 16.0416H130.353L127.438 25.9933H126.851L124.644 16.0416H120.856L124.546 29.0951H126.534L126.396 29.5601C125.97 31.0137 123.713 31.9969 121.62 32.27L122.088 35ZM86.2917 29.0871V18.9822C86.6815 18.8507 87.6455 18.6937 88.7367 18.6937C89.3083 18.6937 90.2171 18.7366 90.685 18.7897V15.8422C90.3207 15.7388 89.3365 15.7086 88.4251 15.7086C86.1348 15.7086 83.951 16.3052 82.8072 16.8509V29.0882H86.2917V29.0871ZM120.826 29.0797L120.95 26.4436C120.813 26.4738 120.438 26.557 120.084 26.557C118.903 26.557 118.555 25.7913 118.555 24.7397V10.44L115.071 12.0097V25.4121C115.071 27.3334 116.025 29.2515 118.784 29.2515C119.877 29.2515 120.687 29.1078 120.826 29.0797ZM113.661 29.0797L113.785 26.4436C113.648 26.4738 113.271 26.557 112.917 26.557C111.738 26.557 111.389 25.7913 111.389 24.7397V10.44L107.904 12.0097V25.4121C107.904 27.3334 108.858 29.2515 111.619 29.2515C112.712 29.2515 113.522 29.1078 113.661 29.0797ZM101.157 29.0876V16.0241L104.644 16.0416V29.0871L101.157 29.0876ZM102.875 14.4947C101.81 14.4947 101.003 14.08 101.003 12.5735C101.003 11.1957 101.731 10.6246 102.875 10.6246C104.047 10.6246 104.799 11.0669 104.799 12.548C104.799 13.9766 104.098 14.4947 102.875 14.4947ZM77.6519 21.1098V20.8245C77.6519 19.0575 76.8702 18.2535 74.9618 18.2535C73.0103 18.2535 72.2392 19.3179 72.1861 21.1098H77.6519ZM76.0577 26.5141C78.0167 26.5141 79.2312 26.0819 79.8358 25.8973L80.175 28.4958C79.6667 28.7286 77.9986 29.4239 75.8402 29.4239C71.105 29.4239 68.6505 26.9993 68.6505 22.3231C68.6505 17.5938 70.9987 15.68 75.0527 15.68C79.4715 15.68 80.8759 18.122 80.8759 22.2547C80.8759 22.6948 80.8509 23.319 80.8004 23.5518H72.135C72.135 25.9101 73.8738 26.5141 76.0577 26.5141ZM60.3648 29.0876V23.3439H61.1949L65.4063 29.0871H69.3056L63.8924 21.5011L68.8201 16.0411H65.0112L61.106 20.4342H60.3648V10.44L56.8803 12.0097V29.0876H60.3648ZM96.187 29.252C97.5738 29.252 98.4745 29.0367 98.624 28.9964L98.7808 26.3221C98.6617 26.3698 97.9885 26.557 97.561 26.557C95.9589 26.557 95.4532 25.4222 95.4532 23.9161V19.1354H99.1754V16.0416H95.4532V13.256L92.0064 14.8257V24.894C92.0064 27.887 93.5697 29.252 96.187 29.252ZM51.0523 23.6223C50.4243 23.5216 49.2678 23.3545 48.3058 23.3545C46.0459 23.3545 45.8561 24.29 45.8561 25.104C45.8561 26.4282 46.4586 26.9161 48.3973 26.9161C49.665 26.9161 50.5838 26.714 51.0518 26.5851L51.0523 23.6223ZM48.1894 29.4111C43.7961 29.4111 42.5587 28.0361 42.5587 25.1899C42.5587 22.2854 43.8344 20.9883 48.0729 20.9883C49.4071 20.9883 50.6546 21.1856 51.0518 21.2413V20.3742C51.0518 19.3279 50.4977 18.5643 47.714 18.5643C45.4993 18.5643 44.2492 19.1938 43.8142 19.3629L43.543 16.6637C44.1205 16.4357 45.9571 15.68 48.7036 15.68C52.831 15.68 54.4837 17.4395 54.4837 20.8266V28.4152C53.4962 28.8554 50.9555 29.4111 48.1894 29.4111ZM34.2528 26.6005C36.9658 26.6005 37.7959 25.0632 37.7959 22.5607C37.7959 20.134 36.9281 18.5924 34.2528 18.5924C33.4738 18.5924 32.7677 18.7462 31.9344 19.0066V26.1864C32.5396 26.3831 33.4005 26.6005 34.2528 26.6005ZM28.4494 12.0092L31.9344 10.4395V16.2511C32.8453 15.9653 33.5642 15.6794 35.3839 15.6794C39.3316 15.6794 41.2501 17.78 41.2501 22.5601C41.2501 28.1617 39.0487 29.4233 33.9891 29.4233C31.5697 29.4233 29.49 29.006 28.4494 28.5409V12.0092ZM15.7885 0.675564C14.5272 -0.0355732 11.5972 -0.163907 9.53726 0.190336C7.6469 0.517003 5.77409 1.17352 4.14482 2.18852C1.91999 3.5742 0.335918 5.72777 0.0524968 8.35436C-0.218694 10.8378 0.589561 13.3466 1.81364 15.4907C3.09834 17.7354 4.8999 19.7384 7.05666 21.1914C9.17727 22.619 11.6962 23.4611 14.2581 22.8582C14.7292 22.7473 15.2238 22.5967 15.6114 22.3024C15.4492 22.3279 15.2817 22.3501 15.1169 22.3629C10.2849 22.7648 6.30584 18.7032 4.64679 14.5658C3.76728 12.3788 3.4477 9.92035 4.1294 7.63315C4.77813 5.46633 6.2633 3.67178 8.19673 2.50299C10.4088 1.16344 13.1914 0.502155 15.7762 0.715867L15.7885 0.675564ZM19.491 10.6845C18.6492 10.1362 17.6652 9.84458 16.6597 9.84552C15.6542 9.84646 14.6709 10.1399 13.8301 10.6898C12.2284 11.7404 11.4329 13.6707 11.8812 15.5384C12.3348 17.4289 13.9109 18.8766 15.8422 19.206C16.8153 19.3693 17.8362 19.251 18.7381 18.8438C18.8444 18.796 18.9843 18.751 19.0784 18.6778C19.1539 18.6179 19.1922 18.5118 19.24 18.4264C19.357 18.2079 19.4708 17.9841 19.575 17.7604C19.7771 17.3308 19.9574 16.8933 20.1196 16.4457C20.5862 15.1457 20.8957 13.7949 21.0416 12.4218C21.0597 12.2484 21.0038 12.1879 20.9023 12.0469C20.8289 11.944 20.7512 11.8442 20.6694 11.7478C20.3309 11.3378 19.9339 10.9795 19.491 10.6845ZM16.2548 3.77254C17.7171 4.15966 18.9891 5.01875 19.8686 6.24057C20.3184 6.86928 20.6656 7.56497 20.8975 8.30186C21.1708 9.16148 21.1581 10.1017 21.1357 10.9937C20.1323 9.24209 18.1781 8.20429 16.1586 8.23398C14.5016 8.25891 12.9096 9.0708 11.8738 10.3504C10.7996 11.6778 10.3179 13.4548 10.5992 15.1364C10.8852 16.8604 11.9875 18.4116 13.536 19.241C15.1148 20.0905 17.0562 20.151 18.6727 19.3741C18.3487 19.8703 17.9814 20.337 17.5751 20.7688C17.3928 20.9602 17.2029 21.2036 16.9493 21.297C16.6632 21.4004 16.3665 21.4804 16.0623 21.5382C14.8691 21.7647 13.6168 21.5966 12.4815 21.184C10.5178 20.4681 8.92947 18.9923 7.77878 17.2879C6.63339 15.5888 5.81982 13.5906 5.66774 11.5394C5.52098 9.55073 6.07081 7.55254 7.45654 6.07459C8.90608 4.53405 11.0246 3.79958 13.0952 3.57367C14.1491 3.46072 15.2264 3.50314 16.2548 3.77254Z" fill="#333333"/>
</svg>
