<svg width="19" height="15" viewBox="0 0 19 15" fill="none" xmlns="http://www.w3.org/2000/svg">
<path d="M18.2052 4.89796H17.1V2.97918C17.1 2.51786 16.7118 2.14286 16.2349 2.14286H8.39642L6.81308 0H0.865133C0.388233 0 0 0.375306 0 0.836327V14.2099H0.0019C0.000316667 14.3822 0.0557333 14.5509 0.1672 14.692C0.322367 14.888 0.557333 15 0.81225 15H14.9859C15.352 15 15.6744 14.7615 15.7618 14.445L19 5.86194V5.80775C19 5.28061 18.6656 4.89796 18.2052 4.89796ZM0.633333 0.836327C0.633333 0.712653 0.737517 0.612245 0.865133 0.612245H6.48692L8.07025 2.7551H16.2345C16.3625 2.7551 16.4663 2.85551 16.4663 2.97918V4.89796H4.03148C3.98588 4.89796 3.9406 4.90163 3.89658 4.90898C3.58847 4.95888 3.33228 5.17622 3.25597 5.45265L0.633333 12.367V0.836327ZM15.1585 14.2601C15.1376 14.3351 15.0664 14.3878 14.9859 14.3878H0.81225C0.7353 14.3878 0.690333 14.3452 0.670383 14.3198C0.650433 14.2947 0.619717 14.2414 0.631433 14.1949L3.85858 5.63786C3.87948 5.56286 3.95073 5.5102 4.03117 5.5102H17.1H18.2052C18.3255 5.5102 18.3562 5.67735 18.3641 5.76092L15.1585 14.2601Z" fill="#4080FF"/>
</svg>
