<svg width="10" height="12" viewBox="0 0 10 12" fill="none" xmlns="http://www.w3.org/2000/svg">
<path d="M7.04256 0.422156C8.50917 0.945104 9.12549 2.09596 8.85694 3.63829C8.78701 4.04208 8.697 4.444 8.65906 4.85116C8.6479 4.97143 8.75689 5.18472 8.85694 5.21909C9.1917 5.33302 9.29436 5.57619 9.27911 5.87501C9.24005 6.65197 9.23745 7.44386 8.49094 7.96681C8.33956 8.07327 8.25698 8.31345 8.19598 8.50918C7.77307 9.86959 6.89862 10.7747 5.53504 11.1766C4.66207 11.434 3.89325 11.115 3.18059 10.6469C2.39242 10.1288 1.93492 9.36308 1.62881 8.48042C1.53427 8.22412 1.38009 7.99423 1.17912 7.80992C0.748026 7.41398 0.387976 6.02854 0.644251 5.51343C0.700416 5.40137 0.83841 5.26802 0.950367 5.25644C1.34278 5.21573 1.28512 4.97031 1.26243 4.70473C1.20404 4.03237 1.13634 3.35515 1.11886 2.67905C1.10473 2.11165 1.27843 1.62307 1.86872 1.37579C2.02903 1.30855 2.19789 1.17445 2.28158 1.02504C2.65688 0.359402 3.2587 0.125943 3.9695 0.0732744C4.26408 0.0504888 4.55904 0.0262091 4.85363 0.00267638C5.85232 -0.0257123 6.3485 0.175623 7.04256 0.422156Z" fill="white"/>
</svg>
