<svg width="21" height="24" viewBox="0 0 21 24" fill="none" xmlns="http://www.w3.org/2000/svg">
<path fill-rule="evenodd" clip-rule="evenodd" d="M15.375 1.43566V3C15.375 3.20711 15.5429 3.375 15.75 3.375H17.3143L15.375 1.43566ZM15 0L15.375 0.375L18.375 3.375L18.75 3.75V4.125V10.5H19.5C19.9142 10.5 20.25 10.8358 20.25 11.25V19.5C20.25 19.9142 19.9142 20.25 19.5 20.25H18.75V22.5C18.75 23.3284 18.0784 24 17.25 24H3C2.17157 24 1.5 23.3284 1.5 22.5V20.25H0.749999C0.335786 20.25 0 19.9142 0 19.5V11.25C0 10.8358 0.335786 10.5 0.75 10.5H1.5V1.5C1.5 0.671573 2.17157 0 3 0H14.625H15ZM2.25 10.5H18V4.125H15.75C15.1287 4.125 14.625 3.62132 14.625 3V0.75H3C2.58579 0.75 2.25 1.08579 2.25 1.5V10.5ZM2.25 20.25V22.5C2.25 22.9142 2.58579 23.25 3 23.25H17.25C17.6642 23.25 18 22.9142 18 22.5V20.25H2.25ZM5.25 4.125C5.25 3.91789 5.41789 3.75 5.625 3.75H12.375C12.5821 3.75 12.75 3.91789 12.75 4.125C12.75 4.33211 12.5821 4.5 12.375 4.5H5.625C5.41789 4.5 5.25 4.33211 5.25 4.125ZM5.25 6.375C5.25 6.16789 5.41789 6 5.625 6H15.375C15.5821 6 15.75 6.16789 15.75 6.375C15.75 6.58211 15.5821 6.75 15.375 6.75H5.625C5.41789 6.75 5.25 6.58211 5.25 6.375ZM5.625 8.25C5.41789 8.25 5.25 8.41789 5.25 8.625C5.25 8.83211 5.41789 9 5.625 9H15.375C15.5821 9 15.75 8.83211 15.75 8.625C15.75 8.41789 15.5821 8.25 15.375 8.25H5.625ZM5.66812 13.194H3.58237V18H4.42612V16.1505H5.78287C6.26437 16.1505 6.64462 16.0177 6.92362 15.7522C7.20262 15.4822 7.34212 15.1177 7.34212 14.6587C7.34212 14.1727 7.19137 13.8082 6.88987 13.5652C6.59287 13.3177 6.18562 13.194 5.66812 13.194ZM4.42612 15.4687V13.896H5.52637C6.18787 13.896 6.51862 14.157 6.51862 14.679C6.51862 15.2055 6.21262 15.4687 5.60062 15.4687H4.42612ZM9.90032 13.194H8.07107V18H9.94757C10.3256 18 10.6293 17.9617 10.8588 17.8852C11.0928 17.8042 11.3088 17.6647 11.5068 17.4667C11.9568 17.0167 12.1818 16.3665 12.1818 15.516C12.1818 14.7195 11.9456 14.1097 11.4731 13.6867C11.2616 13.4977 11.0298 13.3695 10.7778 13.302C10.5258 13.23 10.2333 13.194 9.90032 13.194ZM8.90807 17.2912V13.9095H9.84632C10.3548 13.9095 10.7306 14.0557 10.9736 14.3482C11.2166 14.6362 11.3381 15.039 11.3381 15.5565C11.3381 16.101 11.2301 16.5262 11.0141 16.8322C10.7981 17.1382 10.4268 17.2912 9.90032 17.2912H8.90807ZM16.2702 13.9095V13.194H12.9424V18H13.7929V15.9007H15.9664V15.219H13.7929V13.9095H16.2702Z" fill="#C1272D"/>
</svg>
