<svg width="22" height="22" viewBox="0 0 22 22" fill="none" xmlns="http://www.w3.org/2000/svg">
<path fill-rule="evenodd" clip-rule="evenodd" d="M11.4074 0H12.8469V1.9845C13.386 1.9845 13.925 1.98474 14.4641 1.98499C16.3509 1.98584 18.2377 1.9867 20.1244 1.97705C20.184 1.97958 20.2446 1.98111 20.3055 1.98265C20.6632 1.99169 21.0366 2.00113 21.341 2.21519C21.5547 2.52961 21.5641 2.91681 21.573 3.2864L21.5731 3.28667C21.5745 3.34854 21.576 3.40992 21.5785 3.47039C21.5679 7.23897 21.5702 11.0057 21.5726 14.7721L21.5736 16.3845C21.5702 16.5898 21.574 16.7963 21.5778 17.0031C21.5874 17.5234 21.597 18.0456 21.4912 18.555C21.3967 19.0581 20.8183 19.0825 20.4144 19.0995L20.3837 19.1008C19.0448 19.1047 17.7051 19.1031 16.3652 19.1014C15.1926 19.0999 14.0197 19.0985 12.8469 19.1008V21.3333H11.342C8.91118 20.8811 6.47724 20.4514 4.04291 20.0217L4.04215 20.0215C2.77807 19.7984 1.5139 19.5752 0.25 19.3488V1.98698C1.47225 1.76936 2.69449 1.55281 3.91665 1.33628L3.91695 1.33623L3.91698 1.33622C6.41439 0.893755 8.91144 0.451351 11.4074 0ZM12.8398 2.72852H20.8371V18.3564H12.8398V16.868H14.7786V15.1316H12.8398V14.1394H14.7786V12.4029H12.8398V11.4107H14.7786V9.67425H12.8398V8.682H14.7786V6.94557H12.8398V5.95332H14.7786V4.21689H12.8398V2.72852ZM9.07071 6.43945C8.52059 6.46674 7.97048 6.50147 7.42279 6.54116C7.29921 6.84877 7.16947 7.1539 7.03973 7.459C6.73948 8.1651 6.4393 8.87103 6.21593 9.6072C5.99478 8.86921 5.72027 8.15169 5.44585 7.4344C5.35039 7.18487 5.25493 6.93536 5.16174 6.68503C4.62862 6.7148 4.0955 6.74705 3.56237 6.77929L3.56229 6.7793C3.79085 7.29562 4.02542 7.80907 4.25997 8.32248C4.60239 9.072 4.94477 9.82143 5.26837 10.5796C4.85044 11.3868 4.44996 12.2013 4.04955 13.0156C3.83469 13.4526 3.61985 13.8896 3.40234 14.3253H3.40235C3.93308 14.3477 4.4638 14.37 4.99452 14.3774C5.14411 13.9868 5.30811 13.602 5.47212 13.2171C5.72262 12.6294 5.97313 12.0416 6.1723 11.4329C6.37852 12.1873 6.68496 12.9019 6.99129 13.6162C7.12414 13.926 7.25697 14.2357 7.38159 14.5486C7.96563 14.5908 8.54725 14.628 9.13129 14.6627C8.81918 14.0145 8.50442 13.3684 8.18973 12.7225C7.83005 11.9842 7.47046 11.2461 7.11501 10.5052C7.77418 9.15325 8.42366 7.79635 9.07071 6.43945Z" fill="#03A87C"/>
<path d="M15.7539 4.21484C16.8856 4.21484 18.015 4.21484 19.1467 4.21484C19.1467 4.79283 19.1467 5.37329 19.1467 5.95128C18.015 5.95128 16.8856 5.95128 15.7539 5.95128C15.7539 5.37329 15.7539 4.79283 15.7539 4.21484Z" fill="#03A87C"/>
<path d="M15.7539 6.94922C16.8856 6.94922 18.015 6.94922 19.1467 6.94922C19.1467 7.5272 19.1467 8.10767 19.1467 8.68565C18.015 8.68565 16.8856 8.68565 15.7539 8.68565C15.7539 8.10767 15.7539 7.5272 15.7539 6.94922Z" fill="#03A87C"/>
<path d="M15.7539 9.67188C16.8856 9.67188 18.015 9.67188 19.1467 9.67188C19.1467 10.2499 19.1467 10.8303 19.1467 11.4083C18.015 11.4083 16.8856 11.4083 15.7539 11.4083C15.7539 10.8303 15.7539 10.2499 15.7539 9.67188Z" fill="#03A87C"/>
<path d="M15.7539 12.4023C16.8856 12.4023 18.015 12.4023 19.1467 12.4023C19.1467 12.9803 19.1467 13.5608 19.1467 14.1388C18.015 14.1388 16.8856 14.1388 15.7539 14.1388C15.7539 13.5608 15.7539 12.9803 15.7539 12.4023Z" fill="#03A87C"/>
<path d="M15.7539 15.1289C16.8856 15.1289 18.015 15.1289 19.1467 15.1289C19.1467 15.7069 19.1467 16.2874 19.1467 16.8653C18.015 16.8653 16.8856 16.8653 15.7539 16.8653C15.7539 16.2874 15.7539 15.7069 15.7539 15.1289Z" fill="#03A87C"/>
</svg>
