<svg width="18" height="18" viewBox="0 0 18 18" fill="none" xmlns="http://www.w3.org/2000/svg">
<path d="M18 14.2156C18 14.4456 17.9573 14.7461 17.8718 15.1169C17.7864 15.4878 17.6969 15.7797 17.6034 15.9925C17.4244 16.4187 16.9044 16.8705 16.0434 17.3478C15.242 17.7826 14.4494 18 13.6657 18C13.4357 18 13.2099 17.985 12.9885 17.9549C12.767 17.9248 12.5219 17.8716 12.2532 17.7952C11.9845 17.7189 11.7843 17.6571 11.6525 17.6098C11.5208 17.5626 11.2843 17.4752 10.943 17.3478C10.6018 17.2203 10.393 17.1437 10.3166 17.118C9.48135 16.8197 8.73558 16.466 8.07931 16.057C6.99682 15.3835 5.87185 14.463 4.7044 13.2956C3.53695 12.1282 2.6165 11.0032 1.94304 9.92069C1.53401 9.26442 1.18034 8.51865 0.88203 7.6834C0.856256 7.60655 0.779652 7.39774 0.652215 7.05696C0.524779 6.71617 0.437435 6.47968 0.390184 6.34747C0.342932 6.21526 0.281123 6.01504 0.204757 5.7468C0.128391 5.47856 0.075173 5.23347 0.0451038 5.01153C0.0150346 4.7896 0 4.56384 0 4.33426C0 3.55008 0.217405 2.75754 0.652215 1.95665C1.1295 1.09562 1.58126 0.575611 2.00748 0.396627C2.22035 0.303079 2.51221 0.213587 2.88306 0.128152C3.25392 0.0427175 3.55437 0 3.78442 0C3.90375 0 3.99324 0.0128869 4.0529 0.0386605C4.20611 0.0897304 4.43187 0.413571 4.73017 1.01018C4.82372 1.17198 4.95163 1.40204 5.11391 1.70034C5.27619 1.99865 5.42534 2.26927 5.56137 2.51221C5.6974 2.75515 5.82961 2.98306 5.958 3.19593C5.98377 3.22981 6.05847 3.33625 6.18209 3.51523C6.3057 3.69422 6.39734 3.84552 6.457 3.96914C6.51667 4.09275 6.5465 4.21422 6.5465 4.33355C6.5465 4.50394 6.42503 4.71705 6.18209 4.97287C5.93915 5.2287 5.67497 5.46305 5.38955 5.67592C5.10413 5.88879 4.83995 6.11455 4.59701 6.35319C4.35407 6.59184 4.2326 6.78777 4.2326 6.94098C4.2326 7.01782 4.25384 7.11375 4.29632 7.22878C4.3388 7.34381 4.37507 7.43115 4.40514 7.49081C4.43521 7.55047 4.49487 7.65285 4.58412 7.79795C4.67338 7.94304 4.7223 8.02394 4.73089 8.04065C5.37857 9.2081 6.12004 10.2095 6.95529 11.0447C7.79055 11.88 8.7919 12.6214 9.95935 13.2691C9.97653 13.2777 10.0574 13.3266 10.2021 13.4159C10.3467 13.5051 10.449 13.5648 10.5092 13.5949C10.5693 13.6249 10.6567 13.6612 10.7712 13.7037C10.8858 13.7462 10.9817 13.7674 11.059 13.7674C11.2122 13.7674 11.4082 13.6459 11.6468 13.403C11.8855 13.1601 12.1112 12.8959 12.3241 12.6105C12.537 12.325 12.7713 12.0609 13.0271 11.8179C13.283 11.575 13.4961 11.4535 13.6665 11.4535C13.7858 11.4535 13.9072 11.4833 14.0309 11.543C14.1545 11.6027 14.3058 11.6943 14.4848 11.8179C14.6638 11.9415 14.7702 12.0162 14.8041 12.042C15.0169 12.1699 15.2449 12.3021 15.4878 12.4386C15.7307 12.5751 16.0014 12.7243 16.2997 12.8861C16.598 13.0479 16.828 13.1758 16.9898 13.2698C17.5864 13.5681 17.9103 13.7939 17.9613 13.9471C17.9871 14.0068 18 14.0963 18 14.2156Z" fill="white"/>
</svg>
