<svg width="50" height="28" viewBox="0 0 50 28" fill="none" xmlns="http://www.w3.org/2000/svg">
<rect width="50" height="28" rx="14" fill="#E0E0E0"/>
<rect x="2" y="2" width="24" height="24" rx="12" fill="#8B8B8B"/>
<path d="M16.2469 19.8002C16.2107 19.8073 16.1734 19.8073 16.1372 19.8002C16.0918 19.7861 16.0498 19.763 16.0134 19.7325C15.977 19.702 15.9471 19.6645 15.9253 19.6223C15.9035 19.5801 15.8904 19.5339 15.8865 19.4866C15.8827 19.4393 15.8884 19.3917 15.9031 19.3466C16.2267 18.3042 16.2594 17.1932 15.9976 16.1336C15.7359 15.074 15.1896 14.1061 14.4179 13.3344C13.6461 12.5626 12.6781 12.0163 11.6185 11.7545C10.559 11.4928 9.44799 11.5255 8.40562 11.8491C8.30862 11.8782 8.20403 11.8676 8.11487 11.8195C8.0257 11.7715 7.95927 11.6901 7.93017 11.5931C7.90107 11.4961 7.91169 11.3915 7.9597 11.3024C8.00771 11.2132 8.08918 11.1467 8.18618 11.1176C9.1922 10.7992 10.2591 10.7225 11.3004 10.8934C12.3416 11.0644 13.3279 11.4783 14.1793 12.1017C15.0307 12.7251 15.7232 13.5403 16.2006 14.4814C16.678 15.4224 16.9269 16.4627 16.9272 17.5179C16.9281 18.2002 16.8245 18.8786 16.6199 19.5295C16.5995 19.6112 16.5509 19.6832 16.4827 19.7327C16.4145 19.7822 16.331 19.8062 16.2469 19.8002Z" fill="white"/>
<path d="M21.3641 19.8002H21.3129C21.2647 19.794 21.2182 19.7781 21.1761 19.7536C21.1341 19.7292 21.0974 19.6966 21.0681 19.6577C21.0388 19.6189 21.0175 19.5747 21.0056 19.5275C20.9936 19.4804 20.9912 19.4313 20.9984 19.3833C21.0766 18.8553 21.1157 18.3224 21.1154 17.7887C21.1115 14.8315 19.9351 11.9963 17.844 9.90521C15.7529 7.81412 12.9178 6.63768 9.96059 6.63381C9.42675 6.63661 8.89382 6.67821 8.366 6.75819C8.27067 6.76693 8.17556 6.73934 8.09963 6.68104C8.0237 6.62274 7.97255 6.53797 7.95638 6.44362C7.94365 6.34787 7.96855 6.25092 8.02585 6.17316C8.08315 6.0954 8.16837 6.04293 8.2636 6.02672C8.82574 5.94637 9.39274 5.90479 9.96059 5.90234C13.1118 5.90622 16.1329 7.15977 18.3612 9.38804C20.5895 11.6163 21.843 14.6375 21.8469 17.7887C21.8484 18.3591 21.8068 18.9287 21.7225 19.4929C21.7101 19.5788 21.667 19.6573 21.601 19.7138C21.5351 19.7703 21.4509 19.8011 21.3641 19.8002Z" fill="white"/>
<path d="M9.96637 20.3469C9.46003 20.3469 8.96506 20.1966 8.54405 19.9153C8.12304 19.6339 7.7949 19.2342 7.60113 18.7664C7.40736 18.2986 7.35666 17.7839 7.45544 17.2873C7.55423 16.7907 7.79805 16.3344 8.15609 15.9763C8.51413 15.6183 8.9703 15.3745 9.46692 15.2757C9.96353 15.177 10.4783 15.2277 10.9461 15.4215C11.4139 15.6152 11.8137 15.9434 12.095 16.3644C12.3763 16.7854 12.5265 17.2804 12.5265 17.7868C12.5265 18.4657 12.2568 19.1169 11.7767 19.597C11.2965 20.0771 10.6454 20.3469 9.96637 20.3469ZM9.96637 15.9581C9.6047 15.9581 9.25115 16.0652 8.95042 16.2662C8.6497 16.4671 8.41532 16.7528 8.27691 17.0869C8.13851 17.421 8.10229 17.7887 8.17285 18.1434C8.24341 18.4981 8.41757 18.8239 8.67332 19.0797C8.92906 19.3354 9.25489 19.5097 9.60962 19.5802C9.96434 19.6508 10.332 19.6145 10.6662 19.4761C11.0003 19.3377 11.2859 19.1034 11.4868 18.8027C11.6878 18.502 11.795 18.1484 11.795 17.7868C11.7931 17.3024 11.5998 16.8383 11.2573 16.4958C10.9148 16.1533 10.4508 15.96 9.96637 15.9581Z" fill="white"/>
</svg>
