<svg width="18" height="8" viewBox="0 0 18 8" fill="none" xmlns="http://www.w3.org/2000/svg">
<path d="M10.1954 5.31219C10.5078 4.36378 10.8329 3.41949 11.129 2.46585C11.3302 1.81814 11.5035 1.16109 11.6639 0.501801C11.7342 0.212685 11.8669 0.130134 12.1385 0.225012C13.2807 0.625068 14.4267 1.01392 15.5653 1.42369C16.0016 1.58057 16.4405 1.74866 16.8444 1.97241C17.5262 2.35043 17.8859 2.938 17.8587 3.74782C17.8379 4.3847 17.8587 5.02307 17.8531 5.66032C17.8405 6.85563 17.2982 7.39726 16.1198 7.39726H1.64534C0.58751 7.39726 0.0370211 6.85676 0.0169358 5.78284C0.00540525 5.14559 0.0507834 4.50722 0.00652111 3.87221C-0.0678692 2.77775 0.499729 2.13789 1.42626 1.75539C2.35279 1.37289 3.29048 1.02811 4.2304 0.686328C4.70576 0.513381 5.20083 0.395717 5.68102 0.229868C6.00685 0.117807 6.11546 0.23958 6.20621 0.548121C6.63656 2.012 7.0922 3.46842 7.54003 4.92745C7.57723 5.04698 7.62372 5.16352 7.68881 5.34655C7.74944 5.22254 7.8004 5.15979 7.81007 5.0918C7.92686 4.20764 8.05704 3.32498 8.13664 2.43746C8.15747 2.20475 8.04254 1.94589 7.94434 1.71915C7.66091 1.06322 7.84243 0.75954 8.55657 0.747961C8.86678 0.742358 9.17736 0.74049 9.48645 0.753938C9.91197 0.772988 10.2025 1.10768 9.99789 1.4532C9.58539 2.15096 9.7643 2.84648 9.84688 3.55246C9.91531 4.13667 10.0057 4.71864 10.086 5.30136L10.1954 5.31219Z" fill="white"/>
</svg>
