<svg width="8" height="11" viewBox="0 0 8 11" fill="none" xmlns="http://www.w3.org/2000/svg">
<path d="M0.990508 0.171875H2.11752C3.68418 0.171875 5.25084 0.172622 6.8175 0.174116C7.60567 0.174116 7.99138 0.552507 7.99324 1.33917C7.99746 3.04025 7.99746 4.74108 7.99324 6.44165C7.99324 7.15436 7.5774 7.5645 6.86065 7.57869C6.83258 7.58169 6.80428 7.58169 6.77622 7.57869C5.68305 7.3796 4.85472 7.77667 4.1826 8.65036C3.83148 9.10645 3.37807 9.48409 2.96148 9.88714C2.89007 9.95624 2.77067 9.97529 2.67359 10.0175C2.63639 9.91777 2.56982 9.81878 2.56796 9.71867C2.5568 9.15202 2.55159 8.585 2.56461 8.01834C2.57205 7.68777 2.43814 7.56823 2.11083 7.57608C1.41081 7.59251 0.710056 7.58093 0 7.58093C0.136506 6.91193 0.153988 6.89475 0.72419 6.894C1.40151 6.894 2.07958 6.91268 2.75616 6.88915C3.10357 6.87682 3.20251 7.00756 3.18316 7.3344C3.16085 7.72101 3.17796 8.10986 3.17796 8.49759L3.32413 8.5525C3.47589 8.42288 3.66187 8.31754 3.77382 8.15954C4.52107 7.1043 5.51009 6.68557 6.79221 6.88392C7.24488 6.95377 7.37395 6.78904 7.37618 6.32362C7.38287 4.69351 7.38287 3.06353 7.37618 1.43367C7.37618 0.957045 7.26943 0.860673 6.80151 0.859926C5.03747 0.857186 3.2733 0.856315 1.50901 0.857311C0.927648 0.857685 0.915002 0.841623 0.990508 0.171875Z" fill="white"/>
</svg>
