<svg width="26" height="24" viewBox="0 0 26 24" fill="none" xmlns="http://www.w3.org/2000/svg">
<path fill-rule="evenodd" clip-rule="evenodd" d="M23.4992 6.16488V7.02556L23.5192 7.03257C24.548 7.40786 25.2826 8.39464 25.2826 9.55356C25.2826 9.57958 25.2826 9.6066 25.2816 9.62862V15.6344C25.2706 17.1506 24.0376 18.3755 22.5194 18.3755H20.5178C20.5072 18.407 20.5018 18.4403 20.5018 18.4756C20.5018 18.5117 20.5078 18.5457 20.5178 18.5757V23.6207C20.5078 23.8259 20.3437 23.99 20.1375 24H5.56497C5.35981 23.99 5.19568 23.8259 5.18567 23.6197V18.5557L5.18467 18.5577C5.19568 18.5257 5.20169 18.4916 5.20169 18.4556C5.20169 18.4196 5.19568 18.3856 5.18567 18.3555H3.30218C2.88686 18.3505 2.49555 18.2474 2.16328 18.0753L2.15127 18.0713C1.82902 17.9542 1.5518 17.747 1.34363 17.4758C0.876264 16.9854 0.588036 16.3239 0.582031 15.5933V9.58859V9.58159C0.582031 8.40465 1.32362 7.40086 2.38346 7.00555V6.16488C2.38346 5.15908 3.1991 4.34344 4.2049 4.34344H4.94649C5.12963 4.33343 5.27575 4.18631 5.28575 4.00317V0.380301C5.28575 0.170135 5.45589 0 5.66605 0H16.7348H16.7428C17.2682 0 17.7426 0.223177 18.0759 0.580459L20.0775 2.58204C20.4127 2.9093 20.6219 3.36666 20.6219 3.87307C20.6219 3.9191 20.6199 3.96514 20.6169 4.00417C20.6269 4.18731 20.774 4.33343 20.9572 4.34344H21.6777C22.6835 4.34344 23.4992 5.15908 23.4992 6.16488ZM21.6777 5.10404H20.9572C20.767 5.11405 20.6159 5.27117 20.6159 5.46332C20.6159 5.46762 20.6162 5.47162 20.6164 5.47533C20.6167 5.47855 20.6169 5.48434 20.6169 5.48434V6.88545H22.7586V6.16488C22.7586 5.57942 22.2832 5.10404 21.6977 5.10404H21.6777ZM16.273 1.09186C16.2732 1.09508 16.2734 1.10087 16.2734 1.10087L16.2744 4.00317V4.00517C16.3035 4.1633 16.4416 4.28339 16.6087 4.28339H16.6137H19.456H19.458C19.6481 4.26237 19.7962 4.10125 19.7962 3.90509V3.90709C19.7982 3.88007 19.7992 3.85305 19.7992 3.82503C19.7992 3.52579 19.6751 3.25558 19.476 3.06242L17.4754 1.06184C17.2722 0.872691 16.999 0.7576 16.6998 0.7576C16.6698 0.7576 16.6407 0.758601 16.6147 0.760602C16.6077 0.759602 16.5997 0.759601 16.5927 0.759601C16.4156 0.759601 16.2724 0.902715 16.2724 1.07985C16.2724 1.08415 16.2727 1.08815 16.273 1.09186ZM15.1526 0.760602H6.38562C6.19747 0.760602 6.04536 0.912722 6.04536 1.10087V6.84542H19.8563V5.44331C19.8463 5.26016 19.6992 5.11405 19.516 5.10404H15.8931C15.683 5.10404 15.5128 4.93391 15.5128 4.72374V1.09987C15.5128 0.911722 15.3607 0.759601 15.1726 0.759601C15.1689 0.759601 15.1653 0.759871 15.1618 0.760131C15.1586 0.760371 15.1526 0.760602 15.1526 0.760602ZM4.2039 5.10404C3.61843 5.10404 3.14306 5.57942 3.14306 6.16488V6.84542H5.28475V5.44331C5.27475 5.26016 5.12863 5.11405 4.94448 5.10404H4.2039ZM6.38562 22.8981H19.516V18.3745V15.6724H6.38562V22.8981ZM3.8236 10.5083C3.8236 10.2982 3.99373 10.128 4.2039 10.128H7.10619C7.31636 10.128 7.4865 10.2982 7.4865 10.5083C7.4865 10.7185 7.31636 10.8886 7.10619 10.8886H4.2039C3.99373 10.8886 3.8236 10.7185 3.8236 10.5083ZM8.56735 17.4538H17.3343C17.5445 17.4538 17.7146 17.623 17.7146 17.8331C17.7156 17.8401 17.7156 17.8471 17.7156 17.8541C17.7156 18.0643 17.5445 18.2344 17.3343 18.2344H8.56735L8.57035 18.2334C8.54033 18.2404 8.50931 18.2444 8.47828 18.2444C8.25711 18.2444 8.07796 18.0653 8.07796 17.8441C8.07796 17.6229 8.25711 17.4438 8.47828 17.4438C8.51031 17.4438 8.54033 17.4478 8.56735 17.4538ZM8.56735 20.3561H17.3343C17.5445 20.3561 17.7146 20.5262 17.7146 20.7364C17.7146 20.9466 17.5445 21.1167 17.3343 21.1167H8.56735C8.35718 21.1167 8.18705 20.9466 8.18705 20.7364C8.18705 20.5262 8.35718 20.3561 8.56735 20.3561Z" fill="#4080FF"/>
</svg>
