<svg width="223" height="118" viewBox="0 0 223 118" fill="none" xmlns="http://www.w3.org/2000/svg">
<path d="M178.511 113.889V115H173.253C173.26 114.655 173.308 114.34 173.396 114.054C173.484 113.768 173.583 113.526 173.693 113.328C173.81 113.123 173.979 112.917 174.199 112.712C174.426 112.499 174.628 112.327 174.804 112.195C174.987 112.056 175.237 111.88 175.552 111.667C175.574 111.652 175.68 111.583 175.871 111.458C176.069 111.326 176.19 111.245 176.234 111.216C176.278 111.179 176.377 111.102 176.531 110.985C176.685 110.86 176.784 110.761 176.828 110.688C176.879 110.615 176.945 110.516 177.026 110.391C177.114 110.266 177.173 110.142 177.202 110.017C177.231 109.885 177.246 109.746 177.246 109.599C177.246 109.196 177.132 108.88 176.905 108.653C176.685 108.418 176.384 108.301 176.003 108.301C175.783 108.301 175.592 108.338 175.431 108.411C175.27 108.477 175.141 108.565 175.046 108.675C174.958 108.785 174.885 108.928 174.826 109.104C174.767 109.273 174.727 109.434 174.705 109.588C174.69 109.742 174.679 109.922 174.672 110.127H173.451V109.929C173.451 109.1 173.682 108.444 174.144 107.96C174.613 107.469 175.244 107.223 176.036 107.223C176.784 107.223 177.385 107.436 177.84 107.861C178.295 108.279 178.522 108.836 178.522 109.533C178.522 109.812 178.478 110.076 178.39 110.325C178.302 110.574 178.207 110.776 178.104 110.93C178.009 111.084 177.84 111.264 177.598 111.469C177.356 111.674 177.176 111.817 177.059 111.898C176.942 111.979 176.725 112.125 176.41 112.338C175.493 112.932 174.943 113.449 174.76 113.889H178.511ZM182.148 107.234C183.938 107.234 184.832 108.565 184.832 111.227C184.832 112.51 184.609 113.486 184.161 114.153C183.714 114.82 183.058 115.154 182.192 115.154C180.403 115.154 179.508 113.838 179.508 111.205C179.508 109.907 179.732 108.921 180.179 108.246C180.627 107.571 181.283 107.234 182.148 107.234ZM182.159 108.29C181.939 108.29 181.749 108.334 181.587 108.422C181.426 108.503 181.294 108.631 181.191 108.807C181.096 108.976 181.019 109.148 180.96 109.324C180.902 109.493 180.858 109.709 180.828 109.973C180.806 110.237 180.792 110.457 180.784 110.633C180.777 110.802 180.773 111.018 180.773 111.282C180.773 112.272 180.883 112.991 181.103 113.438C181.331 113.885 181.69 114.109 182.181 114.109C182.372 114.109 182.541 114.072 182.687 113.999C182.841 113.918 182.966 113.823 183.061 113.713C183.157 113.603 183.237 113.456 183.303 113.273C183.369 113.09 183.417 112.925 183.446 112.778C183.483 112.624 183.509 112.437 183.523 112.217C183.545 111.99 183.556 111.817 183.556 111.7C183.564 111.575 183.567 111.418 183.567 111.227C183.567 110.978 183.564 110.787 183.556 110.655C183.556 110.516 183.545 110.31 183.523 110.039C183.501 109.76 183.457 109.537 183.391 109.368C183.333 109.199 183.252 109.023 183.149 108.84C183.054 108.657 182.922 108.521 182.753 108.433C182.585 108.338 182.387 108.29 182.159 108.29ZM190.736 113.889V115H185.478C185.485 114.655 185.533 114.34 185.621 114.054C185.709 113.768 185.808 113.526 185.918 113.328C186.035 113.123 186.204 112.917 186.424 112.712C186.651 112.499 186.853 112.327 187.029 112.195C187.212 112.056 187.461 111.88 187.777 111.667C187.799 111.652 187.905 111.583 188.096 111.458C188.294 111.326 188.415 111.245 188.459 111.216C188.503 111.179 188.602 111.102 188.756 110.985C188.91 110.86 189.009 110.761 189.053 110.688C189.104 110.615 189.17 110.516 189.251 110.391C189.339 110.266 189.397 110.142 189.427 110.017C189.456 109.885 189.471 109.746 189.471 109.599C189.471 109.196 189.357 108.88 189.13 108.653C188.91 108.418 188.609 108.301 188.228 108.301C188.008 108.301 187.817 108.338 187.656 108.411C187.494 108.477 187.366 108.565 187.271 108.675C187.183 108.785 187.109 108.928 187.051 109.104C186.992 109.273 186.952 109.434 186.93 109.588C186.915 109.742 186.904 109.922 186.897 110.127H185.676V109.929C185.676 109.1 185.907 108.444 186.369 107.96C186.838 107.469 187.469 107.223 188.261 107.223C189.009 107.223 189.61 107.436 190.065 107.861C190.519 108.279 190.747 108.836 190.747 109.533C190.747 109.812 190.703 110.076 190.615 110.325C190.527 110.574 190.431 110.776 190.329 110.93C190.233 111.084 190.065 111.264 189.823 111.469C189.581 111.674 189.401 111.817 189.284 111.898C189.166 111.979 188.95 112.125 188.635 112.338C187.718 112.932 187.168 113.449 186.985 113.889H190.736ZM194.373 107.234C196.162 107.234 197.057 108.565 197.057 111.227C197.057 112.51 196.833 113.486 196.386 114.153C195.939 114.82 195.282 115.154 194.417 115.154C192.628 115.154 191.733 113.838 191.733 111.205C191.733 109.907 191.957 108.921 192.404 108.246C192.851 107.571 193.508 107.234 194.373 107.234ZM194.384 108.29C194.164 108.29 193.973 108.334 193.812 108.422C193.651 108.503 193.519 108.631 193.416 108.807C193.321 108.976 193.244 109.148 193.185 109.324C193.126 109.493 193.082 109.709 193.053 109.973C193.031 110.237 193.016 110.457 193.009 110.633C193.002 110.802 192.998 111.018 192.998 111.282C192.998 112.272 193.108 112.991 193.328 113.438C193.555 113.885 193.915 114.109 194.406 114.109C194.597 114.109 194.765 114.072 194.912 113.999C195.066 113.918 195.191 113.823 195.286 113.713C195.381 113.603 195.462 113.456 195.528 113.273C195.594 113.09 195.642 112.925 195.671 112.778C195.708 112.624 195.733 112.437 195.748 112.217C195.77 111.99 195.781 111.817 195.781 111.7C195.788 111.575 195.792 111.418 195.792 111.227C195.792 110.978 195.788 110.787 195.781 110.655C195.781 110.516 195.77 110.31 195.748 110.039C195.726 109.76 195.682 109.537 195.616 109.368C195.557 109.199 195.477 109.023 195.374 108.84C195.279 108.657 195.147 108.521 194.978 108.433C194.809 108.338 194.611 108.29 194.384 108.29Z" fill="#E0E0E0"/>
<path d="M103.511 113.889V115H98.253C98.2603 114.655 98.308 114.34 98.396 114.054C98.484 113.768 98.583 113.526 98.693 113.328C98.8103 113.123 98.979 112.917 99.199 112.712C99.4263 112.499 99.628 112.327 99.804 112.195C99.9873 112.056 100.237 111.88 100.552 111.667C100.574 111.652 100.68 111.583 100.871 111.458C101.069 111.326 101.19 111.245 101.234 111.216C101.278 111.179 101.377 111.102 101.531 110.985C101.685 110.86 101.784 110.761 101.828 110.688C101.879 110.615 101.945 110.516 102.026 110.391C102.114 110.266 102.173 110.142 102.202 110.017C102.231 109.885 102.246 109.746 102.246 109.599C102.246 109.196 102.132 108.88 101.905 108.653C101.685 108.418 101.384 108.301 101.003 108.301C100.783 108.301 100.592 108.338 100.431 108.411C100.27 108.477 100.141 108.565 100.046 108.675C99.958 108.785 99.8847 108.928 99.826 109.104C99.7673 109.273 99.727 109.434 99.705 109.588C99.6903 109.742 99.6793 109.922 99.672 110.127H98.451V109.929C98.451 109.1 98.682 108.444 99.144 107.96C99.6133 107.469 100.244 107.223 101.036 107.223C101.784 107.223 102.385 107.436 102.84 107.861C103.295 108.279 103.522 108.836 103.522 109.533C103.522 109.812 103.478 110.076 103.39 110.325C103.302 110.574 103.207 110.776 103.104 110.93C103.009 111.084 102.84 111.264 102.598 111.469C102.356 111.674 102.176 111.817 102.059 111.898C101.942 111.979 101.725 112.125 101.41 112.338C100.493 112.932 99.9433 113.449 99.76 113.889H103.511ZM107.148 107.234C108.938 107.234 109.832 108.565 109.832 111.227C109.832 112.51 109.609 113.486 109.161 114.153C108.714 114.82 108.058 115.154 107.192 115.154C105.403 115.154 104.508 113.838 104.508 111.205C104.508 109.907 104.732 108.921 105.179 108.246C105.627 107.571 106.283 107.234 107.148 107.234ZM107.159 108.29C106.939 108.29 106.749 108.334 106.587 108.422C106.426 108.503 106.294 108.631 106.191 108.807C106.096 108.976 106.019 109.148 105.96 109.324C105.902 109.493 105.858 109.709 105.828 109.973C105.806 110.237 105.792 110.457 105.784 110.633C105.777 110.802 105.773 111.018 105.773 111.282C105.773 112.272 105.883 112.991 106.103 113.438C106.331 113.885 106.69 114.109 107.181 114.109C107.372 114.109 107.541 114.072 107.687 113.999C107.841 113.918 107.966 113.823 108.061 113.713C108.157 113.603 108.237 113.456 108.303 113.273C108.369 113.09 108.417 112.925 108.446 112.778C108.483 112.624 108.509 112.437 108.523 112.217C108.545 111.99 108.556 111.817 108.556 111.7C108.564 111.575 108.567 111.418 108.567 111.227C108.567 110.978 108.564 110.787 108.556 110.655C108.556 110.516 108.545 110.31 108.523 110.039C108.501 109.76 108.457 109.537 108.391 109.368C108.333 109.199 108.252 109.023 108.149 108.84C108.054 108.657 107.922 108.521 107.753 108.433C107.585 108.338 107.387 108.29 107.159 108.29ZM114.372 107.256V115H113.03V109.676H111.116V108.752C112.45 108.752 113.198 108.253 113.36 107.256H114.372ZM116.821 113.086H118.031C118.06 113.401 118.181 113.658 118.394 113.856C118.607 114.054 118.889 114.153 119.241 114.153C120.172 114.153 120.678 113.255 120.759 111.458C120.341 112.111 119.769 112.437 119.043 112.437C118.354 112.437 117.785 112.202 117.338 111.733C116.891 111.256 116.667 110.648 116.667 109.907C116.667 109.122 116.913 108.477 117.404 107.971C117.895 107.458 118.522 107.201 119.285 107.201C119.703 107.201 120.073 107.278 120.396 107.432C120.726 107.586 120.99 107.788 121.188 108.037C121.386 108.279 121.547 108.572 121.672 108.917C121.804 109.254 121.892 109.592 121.936 109.929C121.987 110.266 122.013 110.622 122.013 110.996C122.013 111.502 121.965 111.986 121.87 112.448C121.782 112.903 121.635 113.343 121.43 113.768C121.232 114.186 120.939 114.523 120.55 114.78C120.161 115.029 119.703 115.154 119.175 115.154C118.522 115.154 117.972 114.96 117.525 114.571C117.085 114.182 116.85 113.687 116.821 113.086ZM119.241 108.257C118.845 108.257 118.526 108.407 118.284 108.708C118.049 109.001 117.932 109.39 117.932 109.874C117.932 110.351 118.053 110.728 118.295 111.007C118.537 111.286 118.86 111.425 119.263 111.425C119.666 111.425 119.993 111.282 120.242 110.996C120.491 110.71 120.616 110.336 120.616 109.874C120.616 109.383 120.491 108.99 120.242 108.697C119.993 108.404 119.659 108.257 119.241 108.257Z" fill="#E0E0E0"/>
<path d="M31.511 113.889V115H26.253C26.2603 114.655 26.308 114.34 26.396 114.054C26.484 113.768 26.583 113.526 26.693 113.328C26.8103 113.123 26.979 112.917 27.199 112.712C27.4263 112.499 27.628 112.327 27.804 112.195C27.9873 112.056 28.2367 111.88 28.552 111.667C28.574 111.652 28.6803 111.583 28.871 111.458C29.069 111.326 29.19 111.245 29.234 111.216C29.278 111.179 29.377 111.102 29.531 110.985C29.685 110.86 29.784 110.761 29.828 110.688C29.8793 110.615 29.9453 110.516 30.026 110.391C30.114 110.266 30.1727 110.142 30.202 110.017C30.2313 109.885 30.246 109.746 30.246 109.599C30.246 109.196 30.1323 108.88 29.905 108.653C29.685 108.418 29.3843 108.301 29.003 108.301C28.783 108.301 28.5923 108.338 28.431 108.411C28.2697 108.477 28.1413 108.565 28.046 108.675C27.958 108.785 27.8847 108.928 27.826 109.104C27.7673 109.273 27.727 109.434 27.705 109.588C27.6903 109.742 27.6793 109.922 27.672 110.127H26.451V109.929C26.451 109.1 26.682 108.444 27.144 107.96C27.6133 107.469 28.244 107.223 29.036 107.223C29.784 107.223 30.3853 107.436 30.84 107.861C31.2947 108.279 31.522 108.836 31.522 109.533C31.522 109.812 31.478 110.076 31.39 110.325C31.302 110.574 31.2067 110.776 31.104 110.93C31.0087 111.084 30.84 111.264 30.598 111.469C30.356 111.674 30.1763 111.817 30.059 111.898C29.9417 111.979 29.7253 112.125 29.41 112.338C28.4933 112.932 27.9433 113.449 27.76 113.889H31.511ZM35.1483 107.234C36.9376 107.234 37.8323 108.565 37.8323 111.227C37.8323 112.51 37.6086 113.486 37.1613 114.153C36.714 114.82 36.0576 115.154 35.1923 115.154C33.403 115.154 32.5083 113.838 32.5083 111.205C32.5083 109.907 32.732 108.921 33.1793 108.246C33.6266 107.571 34.283 107.234 35.1483 107.234ZM35.1593 108.29C34.9393 108.29 34.7486 108.334 34.5873 108.422C34.426 108.503 34.294 108.631 34.1913 108.807C34.096 108.976 34.019 109.148 33.9603 109.324C33.9016 109.493 33.8576 109.709 33.8283 109.973C33.8063 110.237 33.7916 110.457 33.7843 110.633C33.777 110.802 33.7733 111.018 33.7733 111.282C33.7733 112.272 33.8833 112.991 34.1033 113.438C34.3306 113.885 34.69 114.109 35.1813 114.109C35.372 114.109 35.5406 114.072 35.6873 113.999C35.8413 113.918 35.966 113.823 36.0613 113.713C36.1566 113.603 36.2373 113.456 36.3033 113.273C36.3693 113.09 36.417 112.925 36.4463 112.778C36.483 112.624 36.5086 112.437 36.5233 112.217C36.5453 111.99 36.5563 111.817 36.5563 111.7C36.5636 111.575 36.5673 111.418 36.5673 111.227C36.5673 110.978 36.5636 110.787 36.5563 110.655C36.5563 110.516 36.5453 110.31 36.5233 110.039C36.5013 109.76 36.4573 109.537 36.3913 109.368C36.3326 109.199 36.252 109.023 36.1493 108.84C36.054 108.657 35.922 108.521 35.7533 108.433C35.5846 108.338 35.3866 108.29 35.1593 108.29ZM42.3716 107.256V115H41.0296V109.676H39.1156V108.752C40.4503 108.752 41.1983 108.253 41.3596 107.256H42.3716ZM46.0969 110.853C45.7522 110.728 45.4809 110.527 45.2829 110.248C45.0922 109.962 44.9969 109.628 44.9969 109.247C44.9969 108.646 45.2206 108.154 45.6679 107.773C46.1226 107.392 46.7092 107.201 47.4279 107.201C48.1172 107.201 48.6819 107.392 49.1219 107.773C49.5619 108.147 49.7819 108.627 49.7819 109.214C49.7819 109.999 49.4189 110.545 48.6929 110.853C49.1622 111.014 49.5142 111.242 49.7489 111.535C49.9836 111.828 50.1009 112.221 50.1009 112.712C50.1009 113.438 49.8516 114.025 49.3529 114.472C48.8542 114.912 48.1979 115.132 47.3839 115.132C46.5772 115.132 45.9246 114.916 45.4259 114.483C44.9346 114.05 44.6889 113.482 44.6889 112.778C44.6889 112.301 44.8099 111.898 45.0519 111.568C45.3012 111.231 45.6496 110.992 46.0969 110.853ZM47.4169 108.213C47.0356 108.213 46.7312 108.316 46.5039 108.521C46.2839 108.719 46.1739 108.987 46.1739 109.324C46.1739 109.661 46.2876 109.933 46.5149 110.138C46.7422 110.343 47.0392 110.446 47.4059 110.446C47.7726 110.446 48.0659 110.347 48.2859 110.149C48.5059 109.944 48.6159 109.669 48.6159 109.324C48.6159 108.987 48.5059 108.719 48.2859 108.521C48.0732 108.316 47.7836 108.213 47.4169 108.213ZM47.3839 111.348C46.9586 111.348 46.6139 111.476 46.3499 111.733C46.0859 111.982 45.9539 112.309 45.9539 112.712C45.9539 113.152 46.0859 113.5 46.3499 113.757C46.6139 114.014 46.9732 114.142 47.4279 114.142C47.8679 114.142 48.2126 114.021 48.4619 113.779C48.7112 113.53 48.8359 113.185 48.8359 112.745C48.8359 112.32 48.7039 111.982 48.4399 111.733C48.1759 111.476 47.8239 111.348 47.3839 111.348Z" fill="#E0E0E0"/>
<rect x="37.5" y="57.5" width="37" height="19" stroke="#EEEEEE" stroke-opacity="0.1"/>
<rect x="74.5" y="57.5" width="37" height="19" stroke="#EEEEEE" stroke-opacity="0.1"/>
<rect x="111.5" y="57.5" width="37" height="19" stroke="#EEEEEE" stroke-opacity="0.1"/>
<rect x="148.5" y="57.5" width="37" height="19" stroke="#EEEEEE" stroke-opacity="0.1"/>
<rect x="185.5" y="57.5" width="37" height="19" stroke="#EEEEEE" stroke-opacity="0.1"/>
<rect x="0.5" y="57.5" width="37" height="19" stroke="#EEEEEE" stroke-opacity="0.1"/>
<rect x="37.5" y="38.5" width="37" height="19" stroke="#EEEEEE" stroke-opacity="0.1"/>
<rect x="74.5" y="38.5" width="37" height="19" stroke="#EEEEEE" stroke-opacity="0.1"/>
<rect x="111.5" y="38.5" width="37" height="19" stroke="#EEEEEE" stroke-opacity="0.1"/>
<rect x="148.5" y="38.5" width="37" height="19" stroke="#EEEEEE" stroke-opacity="0.1"/>
<rect x="185.5" y="38.5" width="37" height="19" stroke="#EEEEEE" stroke-opacity="0.1"/>
<rect x="0.5" y="38.5" width="37" height="19" stroke="#EEEEEE" stroke-opacity="0.1"/>
<rect x="37.5" y="19.5" width="37" height="19" stroke="#EEEEEE" stroke-opacity="0.1"/>
<rect x="74.5" y="19.5" width="37" height="19" stroke="#EEEEEE" stroke-opacity="0.1"/>
<rect x="37.5" y="76.5" width="37" height="19" stroke="#EEEEEE" stroke-opacity="0.1"/>
<rect x="74.5" y="76.5" width="37" height="19" stroke="#EEEEEE" stroke-opacity="0.1"/>
<rect x="37.5" y="0.5" width="37" height="19" stroke="#EEEEEE" stroke-opacity="0.1"/>
<rect x="74.5" y="0.5" width="37" height="19" stroke="#EEEEEE" stroke-opacity="0.1"/>
<rect x="111.5" y="19.5" width="37" height="19" stroke="#EEEEEE" stroke-opacity="0.1"/>
<rect x="148.5" y="19.5" width="37" height="19" stroke="#EEEEEE" stroke-opacity="0.1"/>
<rect x="185.5" y="19.5" width="37" height="19" stroke="#EEEEEE" stroke-opacity="0.1"/>
<rect x="0.5" y="19.5" width="37" height="19" stroke="#EEEEEE" stroke-opacity="0.1"/>
<rect x="111.5" y="76.5" width="37" height="19" stroke="#EEEEEE" stroke-opacity="0.1"/>
<rect x="111.5" y="0.5" width="37" height="19" stroke="#EEEEEE" stroke-opacity="0.1"/>
<rect x="148.5" y="76.5" width="37" height="19" stroke="#EEEEEE" stroke-opacity="0.1"/>
<rect x="148.5" y="0.5" width="37" height="19" stroke="#EEEEEE" stroke-opacity="0.1"/>
<rect x="185.5" y="76.5" width="37" height="19" stroke="#EEEEEE" stroke-opacity="0.1"/>
<rect x="185.5" y="0.5" width="37" height="19" stroke="#EEEEEE" stroke-opacity="0.1"/>
<rect x="0.5" y="76.5" width="37" height="19" stroke="#EEEEEE" stroke-opacity="0.1"/>
<rect x="0.5" y="0.5" width="37" height="19" stroke="#EEEEEE" stroke-opacity="0.1"/>
<path d="M177.511 46.889V48H172.253C172.26 47.6553 172.308 47.34 172.396 47.054C172.484 46.768 172.583 46.526 172.693 46.328C172.81 46.1227 172.979 45.9173 173.199 45.712C173.426 45.4993 173.628 45.327 173.804 45.195C173.987 45.0557 174.237 44.8797 174.552 44.667C174.574 44.6523 174.68 44.5827 174.871 44.458C175.069 44.326 175.19 44.2453 175.234 44.216C175.278 44.1793 175.377 44.1023 175.531 43.985C175.685 43.8603 175.784 43.7613 175.828 43.688C175.879 43.6147 175.945 43.5157 176.026 43.391C176.114 43.2663 176.173 43.1417 176.202 43.017C176.231 42.885 176.246 42.7457 176.246 42.599C176.246 42.1957 176.132 41.8803 175.905 41.653C175.685 41.4183 175.384 41.301 175.003 41.301C174.783 41.301 174.592 41.3377 174.431 41.411C174.27 41.477 174.141 41.565 174.046 41.675C173.958 41.785 173.885 41.928 173.826 42.104C173.767 42.2727 173.727 42.434 173.705 42.588C173.69 42.742 173.679 42.9217 173.672 43.127H172.451V42.929C172.451 42.1003 172.682 41.444 173.144 40.96C173.613 40.4687 174.244 40.223 175.036 40.223C175.784 40.223 176.385 40.4357 176.84 40.861C177.295 41.279 177.522 41.8363 177.522 42.533C177.522 42.8117 177.478 43.0757 177.39 43.325C177.302 43.5743 177.207 43.776 177.104 43.93C177.009 44.084 176.84 44.2637 176.598 44.469C176.356 44.6743 176.176 44.8173 176.059 44.898C175.942 44.9787 175.725 45.1253 175.41 45.338C174.493 45.932 173.943 46.449 173.76 46.889H177.511ZM186.685 46.889V48H181.427C181.434 47.6553 181.482 47.34 181.57 47.054C181.658 46.768 181.757 46.526 181.867 46.328C181.984 46.1227 182.153 45.9173 182.373 45.712C182.6 45.4993 182.802 45.327 182.978 45.195C183.161 45.0557 183.41 44.8797 183.726 44.667C183.748 44.6523 183.854 44.5827 184.045 44.458C184.243 44.326 184.364 44.2453 184.408 44.216C184.452 44.1793 184.551 44.1023 184.705 43.985C184.859 43.8603 184.958 43.7613 185.002 43.688C185.053 43.6147 185.119 43.5157 185.2 43.391C185.288 43.2663 185.346 43.1417 185.376 43.017C185.405 42.885 185.42 42.7457 185.42 42.599C185.42 42.1957 185.306 41.8803 185.079 41.653C184.859 41.4183 184.558 41.301 184.177 41.301C183.957 41.301 183.766 41.3377 183.605 41.411C183.443 41.477 183.315 41.565 183.22 41.675C183.132 41.785 183.058 41.928 183 42.104C182.941 42.2727 182.901 42.434 182.879 42.588C182.864 42.742 182.853 42.9217 182.846 43.127H181.625V42.929C181.625 42.1003 181.856 41.444 182.318 40.96C182.787 40.4687 183.418 40.223 184.21 40.223C184.958 40.223 185.559 40.4357 186.014 40.861C186.468 41.279 186.696 41.8363 186.696 42.533C186.696 42.8117 186.652 43.0757 186.564 43.325C186.476 43.5743 186.38 43.776 186.278 43.93C186.182 44.084 186.014 44.2637 185.772 44.469C185.53 44.6743 185.35 44.8173 185.233 44.898C185.115 44.9787 184.899 45.1253 184.584 45.338C183.667 45.932 183.117 46.449 182.934 46.889H186.685ZM190.322 40.234C192.111 40.234 193.006 41.565 193.006 44.227C193.006 45.5103 192.782 46.4857 192.335 47.153C191.888 47.8203 191.231 48.154 190.366 48.154C188.577 48.154 187.682 46.8377 187.682 44.205C187.682 42.907 187.906 41.9207 188.353 41.246C188.8 40.5713 189.457 40.234 190.322 40.234ZM190.333 41.29C190.113 41.29 189.922 41.334 189.761 41.422C189.6 41.5027 189.468 41.631 189.365 41.807C189.27 41.9757 189.193 42.148 189.134 42.324C189.075 42.4927 189.031 42.709 189.002 42.973C188.98 43.237 188.965 43.457 188.958 43.633C188.951 43.8017 188.947 44.018 188.947 44.282C188.947 45.272 189.057 45.9907 189.277 46.438C189.504 46.8853 189.864 47.109 190.355 47.109C190.546 47.109 190.714 47.0723 190.861 46.999C191.015 46.9183 191.14 46.823 191.235 46.713C191.33 46.603 191.411 46.4563 191.477 46.273C191.543 46.0897 191.591 45.9247 191.62 45.778C191.657 45.624 191.682 45.437 191.697 45.217C191.719 44.9897 191.73 44.8173 191.73 44.7C191.737 44.5753 191.741 44.4177 191.741 44.227C191.741 43.9777 191.737 43.787 191.73 43.655C191.73 43.5157 191.719 43.3103 191.697 43.039C191.675 42.7603 191.631 42.5367 191.565 42.368C191.506 42.1993 191.426 42.0233 191.323 41.84C191.228 41.6567 191.096 41.521 190.927 41.433C190.758 41.3377 190.56 41.29 190.333 41.29ZM193.882 42.775C193.904 41.983 194.139 41.3597 194.586 40.905C195.034 40.4503 195.635 40.223 196.39 40.223C197.102 40.223 197.677 40.4137 198.117 40.795C198.557 41.1763 198.777 41.675 198.777 42.291C198.777 42.665 198.678 42.995 198.48 43.281C198.29 43.5597 198.029 43.754 197.699 43.864C198.132 43.974 198.473 44.1903 198.722 44.513C198.972 44.8283 199.096 45.217 199.096 45.679C199.096 46.4123 198.843 47.01 198.337 47.472C197.831 47.934 197.175 48.165 196.368 48.165C195.569 48.165 194.924 47.934 194.432 47.472C193.941 47.01 193.695 46.3977 193.695 45.635V45.47H194.905C194.942 46.548 195.441 47.087 196.401 47.087C196.827 47.087 197.164 46.966 197.413 46.724C197.663 46.4747 197.787 46.1373 197.787 45.712C197.787 45.2647 197.644 44.9383 197.358 44.733C197.072 44.5277 196.702 44.425 196.247 44.425C196.108 44.425 195.976 44.4287 195.851 44.436V43.49H195.961C196.189 43.49 196.383 43.479 196.544 43.457C196.706 43.4277 196.867 43.38 197.028 43.314C197.197 43.2407 197.325 43.127 197.413 42.973C197.501 42.8117 197.545 42.6137 197.545 42.379C197.545 42.0417 197.439 41.7703 197.226 41.565C197.014 41.3597 196.728 41.257 196.368 41.257C195.547 41.257 195.118 41.763 195.081 42.775H193.882Z" fill="white"/>
<path d="M109.577 54.258H108.367C108.235 53.554 107.846 53.202 107.201 53.202C107.018 53.202 106.849 53.2387 106.695 53.312C106.541 53.3853 106.413 53.4697 106.31 53.565C106.207 53.6603 106.116 53.7997 106.035 53.983C105.954 54.159 105.892 54.3093 105.848 54.434C105.811 54.5513 105.771 54.7237 105.727 54.951C105.69 55.1783 105.668 55.336 105.661 55.424C105.654 55.512 105.639 55.6587 105.617 55.864C106.042 55.2333 106.629 54.918 107.377 54.918C108.088 54.918 108.66 55.1527 109.093 55.622C109.533 56.0913 109.753 56.7037 109.753 57.459C109.753 58.2437 109.507 58.889 109.016 59.395C108.532 59.901 107.912 60.154 107.157 60.154C106.27 60.154 105.588 59.8203 105.111 59.153C104.634 58.4857 104.396 57.5323 104.396 56.293C104.396 55.0097 104.649 54.0087 105.155 53.29C105.661 52.5713 106.361 52.212 107.256 52.212C107.909 52.212 108.44 52.3917 108.851 52.751C109.262 53.1103 109.504 53.6127 109.577 54.258ZM107.124 55.919C106.713 55.919 106.387 56.062 106.145 56.348C105.903 56.6267 105.782 57.0007 105.782 57.47C105.782 57.9613 105.907 58.3573 106.156 58.658C106.413 58.9587 106.746 59.109 107.157 59.109C107.56 59.109 107.883 58.9623 108.125 58.669C108.374 58.3757 108.499 57.987 108.499 57.503C108.499 57.0263 108.374 56.645 108.125 56.359C107.876 56.0657 107.542 55.919 107.124 55.919ZM113.148 52.234C114.938 52.234 115.832 53.565 115.832 56.227C115.832 57.5103 115.609 58.4857 115.161 59.153C114.714 59.8203 114.058 60.154 113.192 60.154C111.403 60.154 110.508 58.8377 110.508 56.205C110.508 54.907 110.732 53.9207 111.179 53.246C111.627 52.5713 112.283 52.234 113.148 52.234ZM113.159 53.29C112.939 53.29 112.749 53.334 112.587 53.422C112.426 53.5027 112.294 53.631 112.191 53.807C112.096 53.9757 112.019 54.148 111.96 54.324C111.902 54.4927 111.858 54.709 111.828 54.973C111.806 55.237 111.792 55.457 111.784 55.633C111.777 55.8017 111.773 56.018 111.773 56.282C111.773 57.272 111.883 57.9907 112.103 58.438C112.331 58.8853 112.69 59.109 113.181 59.109C113.372 59.109 113.541 59.0723 113.687 58.999C113.841 58.9183 113.966 58.823 114.061 58.713C114.157 58.603 114.237 58.4563 114.303 58.273C114.369 58.0897 114.417 57.9247 114.446 57.778C114.483 57.624 114.509 57.437 114.523 57.217C114.545 56.9897 114.556 56.8173 114.556 56.7C114.564 56.5753 114.567 56.4177 114.567 56.227C114.567 55.9777 114.564 55.787 114.556 55.655C114.556 55.5157 114.545 55.3103 114.523 55.039C114.501 54.7603 114.457 54.5367 114.391 54.368C114.333 54.1993 114.252 54.0233 114.149 53.84C114.054 53.6567 113.922 53.521 113.753 53.433C113.585 53.3377 113.387 53.29 113.159 53.29ZM117.985 55.853C117.64 55.7283 117.369 55.5267 117.171 55.248C116.98 54.962 116.885 54.6283 116.885 54.247C116.885 53.6457 117.108 53.1543 117.556 52.773C118.01 52.3917 118.597 52.201 119.316 52.201C120.005 52.201 120.57 52.3917 121.01 52.773C121.45 53.147 121.67 53.6273 121.67 54.214C121.67 54.9987 121.307 55.545 120.581 55.853C121.05 56.0143 121.402 56.2417 121.637 56.535C121.871 56.8283 121.989 57.2207 121.989 57.712C121.989 58.438 121.739 59.0247 121.241 59.472C120.742 59.912 120.086 60.132 119.272 60.132C118.465 60.132 117.812 59.9157 117.314 59.483C116.822 59.0503 116.577 58.482 116.577 57.778C116.577 57.3013 116.698 56.898 116.94 56.568C117.189 56.2307 117.537 55.9923 117.985 55.853ZM119.305 53.213C118.923 53.213 118.619 53.3157 118.392 53.521C118.172 53.719 118.062 53.9867 118.062 54.324C118.062 54.6613 118.175 54.9327 118.403 55.138C118.63 55.3433 118.927 55.446 119.294 55.446C119.66 55.446 119.954 55.347 120.174 55.149C120.394 54.9437 120.504 54.6687 120.504 54.324C120.504 53.9867 120.394 53.719 120.174 53.521C119.961 53.3157 119.671 53.213 119.305 53.213ZM119.272 56.348C118.846 56.348 118.502 56.4763 118.238 56.733C117.974 56.9823 117.842 57.3087 117.842 57.712C117.842 58.152 117.974 58.5003 118.238 58.757C118.502 59.0137 118.861 59.142 119.316 59.142C119.756 59.142 120.1 59.021 120.35 58.779C120.599 58.5297 120.724 58.185 120.724 57.745C120.724 57.3197 120.592 56.9823 120.328 56.733C120.064 56.4763 119.712 56.348 119.272 56.348Z" fill="white"/>
<path d="M25.76 9.853C25.4153 9.72833 25.144 9.52667 24.946 9.248C24.7553 8.962 24.66 8.62833 24.66 8.247C24.66 7.64567 24.8837 7.15433 25.331 6.773C25.7857 6.39167 26.3723 6.201 27.091 6.201C27.7803 6.201 28.345 6.39167 28.785 6.773C29.225 7.147 29.445 7.62733 29.445 8.214C29.445 8.99867 29.082 9.545 28.356 9.853C28.8253 10.0143 29.1773 10.2417 29.412 10.535C29.6467 10.8283 29.764 11.2207 29.764 11.712C29.764 12.438 29.5147 13.0247 29.016 13.472C28.5173 13.912 27.861 14.132 27.047 14.132C26.2403 14.132 25.5877 13.9157 25.089 13.483C24.5977 13.0503 24.352 12.482 24.352 11.778C24.352 11.3013 24.473 10.898 24.715 10.568C24.9643 10.2307 25.3127 9.99233 25.76 9.853ZM27.08 7.213C26.6987 7.213 26.3943 7.31567 26.167 7.521C25.947 7.719 25.837 7.98667 25.837 8.324C25.837 8.66133 25.9507 8.93267 26.178 9.138C26.4053 9.34333 26.7023 9.446 27.069 9.446C27.4357 9.446 27.729 9.347 27.949 9.149C28.169 8.94367 28.279 8.66867 28.279 8.324C28.279 7.98667 28.169 7.719 27.949 7.521C27.7363 7.31567 27.4467 7.213 27.08 7.213ZM27.047 10.348C26.6217 10.348 26.277 10.4763 26.013 10.733C25.749 10.9823 25.617 11.3087 25.617 11.712C25.617 12.152 25.749 12.5003 26.013 12.757C26.277 13.0137 26.6363 13.142 27.091 13.142C27.531 13.142 27.8757 13.021 28.125 12.779C28.3743 12.5297 28.499 12.185 28.499 11.745C28.499 11.3197 28.367 10.9823 28.103 10.733C27.839 10.4763 27.487 10.348 27.047 10.348ZM33.6578 12.086H34.8678C34.8972 12.4013 35.0182 12.658 35.2308 12.856C35.4435 13.054 35.7258 13.153 36.0778 13.153C37.0092 13.153 37.5152 12.2547 37.5958 10.458C37.1778 11.1107 36.6058 11.437 35.8798 11.437C35.1905 11.437 34.6222 11.2023 34.1748 10.733C33.7275 10.2563 33.5038 9.64767 33.5038 8.907C33.5038 8.12233 33.7495 7.477 34.2408 6.971C34.7322 6.45767 35.3592 6.201 36.1218 6.201C36.5398 6.201 36.9102 6.278 37.2328 6.432C37.5628 6.586 37.8268 6.78767 38.0248 7.037C38.2228 7.279 38.3842 7.57233 38.5088 7.917C38.6408 8.25433 38.7288 8.59167 38.7728 8.929C38.8242 9.26633 38.8498 9.622 38.8498 9.996C38.8498 10.502 38.8022 10.986 38.7068 11.448C38.6188 11.9027 38.4722 12.3427 38.2668 12.768C38.0688 13.186 37.7755 13.5233 37.3868 13.78C36.9982 14.0293 36.5398 14.154 36.0118 14.154C35.3592 14.154 34.8092 13.9597 34.3618 13.571C33.9218 13.1823 33.6872 12.6873 33.6578 12.086ZM36.0778 7.257C35.6818 7.257 35.3628 7.40733 35.1208 7.708C34.8862 8.00133 34.7688 8.39 34.7688 8.874C34.7688 9.35067 34.8898 9.72833 35.1318 10.007C35.3738 10.2857 35.6965 10.425 36.0998 10.425C36.5032 10.425 36.8295 10.282 37.0788 9.996C37.3282 9.71 37.4528 9.336 37.4528 8.874C37.4528 8.38267 37.3282 7.99033 37.0788 7.697C36.8295 7.40367 36.4958 7.257 36.0778 7.257ZM44.8631 8.258H43.6531C43.5211 7.554 43.1325 7.202 42.4871 7.202C42.3038 7.202 42.1351 7.23867 41.9811 7.312C41.8271 7.38533 41.6988 7.46967 41.5961 7.565C41.4935 7.66033 41.4018 7.79967 41.3211 7.983C41.2405 8.159 41.1781 8.30933 41.1341 8.434C41.0975 8.55133 41.0571 8.72367 41.0131 8.951C40.9765 9.17833 40.9545 9.336 40.9471 9.424C40.9398 9.512 40.9251 9.65867 40.9031 9.864C41.3285 9.23333 41.9151 8.918 42.6631 8.918C43.3745 8.918 43.9465 9.15267 44.3791 9.622C44.8191 10.0913 45.0391 10.7037 45.0391 11.459C45.0391 12.2437 44.7935 12.889 44.3021 13.395C43.8181 13.901 43.1985 14.154 42.4431 14.154C41.5558 14.154 40.8738 13.8203 40.3971 13.153C39.9205 12.4857 39.6821 11.5323 39.6821 10.293C39.6821 9.00967 39.9351 8.00867 40.4411 7.29C40.9471 6.57133 41.6475 6.212 42.5421 6.212C43.1948 6.212 43.7265 6.39167 44.1371 6.751C44.5478 7.11033 44.7898 7.61267 44.8631 8.258ZM42.4101 9.919C41.9995 9.919 41.6731 10.062 41.4311 10.348C41.1891 10.6267 41.0681 11.0007 41.0681 11.47C41.0681 11.9613 41.1928 12.3573 41.4421 12.658C41.6988 12.9587 42.0325 13.109 42.4431 13.109C42.8465 13.109 43.1691 12.9623 43.4111 12.669C43.6605 12.3757 43.7851 11.987 43.7851 11.503C43.7851 11.0263 43.6605 10.645 43.4111 10.359C43.1618 10.0657 42.8281 9.919 42.4101 9.919ZM51.1404 11.118V12.174H50.1614V14H48.9514L48.9404 12.174H45.6734V10.931L48.9734 6.234H50.1614V11.118H51.1404ZM48.9624 11.118V7.785L46.7074 11.118H48.9624Z" fill="white"/>
<path d="M112 69.5L38 25V95H185V57.5L112 69.5Z" fill="url(#paint0_linear)" fill-opacity="0.3"/>
<path d="M36 25L112.5 69.5L186 56.5" stroke="#FF9E5B" stroke-width="2" stroke-linecap="round" stroke-linejoin="round"/>
<circle cx="36.5" cy="24.5" r="4" fill="white" stroke="#FF9E5B"/>
<circle cx="111.5" cy="68.5" r="4" fill="white" stroke="#FF9E5B"/>
<circle cx="185.5" cy="56.5" r="4" fill="white" stroke="#FF9E5B"/>
<defs>
<linearGradient id="paint0_linear" x1="113.566" y1="27.5" x2="113.5" y2="101.5" gradientUnits="userSpaceOnUse">
<stop stop-color="#FF9E5B"/>
<stop offset="0.937025" stop-color="#FFCE84" stop-opacity="0"/>
</linearGradient>
</defs>
</svg>
