<svg width="223" height="118" viewBox="0 0 223 118" fill="none" xmlns="http://www.w3.org/2000/svg">
<rect x="37.5" y="57.5" width="37" height="19" stroke="#EEEEEE" stroke-opacity="0.1"/>
<rect x="74.5" y="57.5" width="37" height="19" stroke="#EEEEEE" stroke-opacity="0.1"/>
<rect x="111.5" y="57.5" width="37" height="19" stroke="#EEEEEE" stroke-opacity="0.1"/>
<rect x="148.5" y="57.5" width="37" height="19" stroke="#EEEEEE" stroke-opacity="0.1"/>
<rect x="185.5" y="57.5" width="37" height="19" stroke="#EEEEEE" stroke-opacity="0.1"/>
<rect x="0.5" y="57.5" width="37" height="19" stroke="#EEEEEE" stroke-opacity="0.1"/>
<rect x="37.5" y="38.5" width="37" height="19" stroke="#EEEEEE" stroke-opacity="0.1"/>
<rect x="74.5" y="38.5" width="37" height="19" stroke="#EEEEEE" stroke-opacity="0.1"/>
<rect x="111.5" y="38.5" width="37" height="19" stroke="#EEEEEE" stroke-opacity="0.1"/>
<rect x="148.5" y="38.5" width="37" height="19" stroke="#EEEEEE" stroke-opacity="0.1"/>
<rect x="185.5" y="38.5" width="37" height="19" stroke="#EEEEEE" stroke-opacity="0.1"/>
<rect x="0.5" y="38.5" width="37" height="19" stroke="#EEEEEE" stroke-opacity="0.1"/>
<rect x="37.5" y="19.5" width="37" height="19" stroke="#EEEEEE" stroke-opacity="0.1"/>
<rect x="74.5" y="19.5" width="37" height="19" stroke="#EEEEEE" stroke-opacity="0.1"/>
<rect x="37.5" y="76.5" width="37" height="19" stroke="#EEEEEE" stroke-opacity="0.1"/>
<rect x="74.5" y="76.5" width="37" height="19" stroke="#EEEEEE" stroke-opacity="0.1"/>
<rect x="37.5" y="0.5" width="37" height="19" stroke="#EEEEEE" stroke-opacity="0.1"/>
<rect x="74.5" y="0.5" width="37" height="19" stroke="#EEEEEE" stroke-opacity="0.1"/>
<rect x="111.5" y="19.5" width="37" height="19" stroke="#EEEEEE" stroke-opacity="0.1"/>
<rect x="148.5" y="19.5" width="37" height="19" stroke="#EEEEEE" stroke-opacity="0.1"/>
<rect x="185.5" y="19.5" width="37" height="19" stroke="#EEEEEE" stroke-opacity="0.1"/>
<rect x="0.5" y="19.5" width="37" height="19" stroke="#EEEEEE" stroke-opacity="0.1"/>
<rect x="111.5" y="76.5" width="37" height="19" stroke="#EEEEEE" stroke-opacity="0.1"/>
<rect x="111.5" y="0.5" width="37" height="19" stroke="#EEEEEE" stroke-opacity="0.1"/>
<rect x="148.5" y="76.5" width="37" height="19" stroke="#EEEEEE" stroke-opacity="0.1"/>
<rect x="148.5" y="0.5" width="37" height="19" stroke="#EEEEEE" stroke-opacity="0.1"/>
<rect x="185.5" y="76.5" width="37" height="19" stroke="#EEEEEE" stroke-opacity="0.1"/>
<rect x="185.5" y="0.5" width="37" height="19" stroke="#EEEEEE" stroke-opacity="0.1"/>
<rect x="0.5" y="76.5" width="37" height="19" stroke="#EEEEEE" stroke-opacity="0.1"/>
<rect x="0.5" y="0.5" width="37" height="19" stroke="#EEEEEE" stroke-opacity="0.1"/>
<path d="M172.147 39.2716V47.0156H170.805V41.6916H168.891V40.7676C170.226 40.7676 170.974 40.269 171.135 39.2716H172.147ZM179.766 39.3596V40.4156C178.967 41.215 178.311 42.227 177.797 43.4516C177.284 44.669 177.005 45.857 176.961 47.0156H175.586C175.616 45.9743 175.92 44.812 176.499 43.5286C177.079 42.238 177.753 41.2333 178.523 40.5146H174.519V39.3596H179.766ZM183.77 45.1016H184.98C185.009 45.417 185.13 45.6736 185.343 45.8716C185.556 46.0696 185.838 46.1686 186.19 46.1686C187.121 46.1686 187.627 45.2703 187.708 43.4736C187.29 44.1263 186.718 44.4526 185.992 44.4526C185.303 44.4526 184.734 44.218 184.287 43.7486C183.84 43.272 183.616 42.6633 183.616 41.9226C183.616 41.138 183.862 40.4926 184.353 39.9866C184.844 39.4733 185.471 39.2166 186.234 39.2166C186.652 39.2166 187.022 39.2936 187.345 39.4476C187.675 39.6016 187.939 39.8033 188.137 40.0526C188.335 40.2946 188.496 40.588 188.621 40.9326C188.753 41.27 188.841 41.6073 188.885 41.9446C188.936 42.282 188.962 42.6376 188.962 43.0116C188.962 43.5176 188.914 44.0016 188.819 44.4636C188.731 44.9183 188.584 45.3583 188.379 45.7836C188.181 46.2016 187.888 46.539 187.499 46.7956C187.11 47.045 186.652 47.1696 186.124 47.1696C185.471 47.1696 184.921 46.9753 184.474 46.5866C184.034 46.198 183.799 45.703 183.77 45.1016ZM186.19 40.2726C185.794 40.2726 185.475 40.423 185.233 40.7236C184.998 41.017 184.881 41.4056 184.881 41.8896C184.881 42.3663 185.002 42.744 185.244 43.0226C185.486 43.3013 185.809 43.4406 186.212 43.4406C186.615 43.4406 186.942 43.2976 187.191 43.0116C187.44 42.7256 187.565 42.3516 187.565 41.8896C187.565 41.3983 187.44 41.006 187.191 40.7126C186.942 40.4193 186.608 40.2726 186.19 40.2726ZM194.909 45.9046V47.0156H189.651C189.659 46.671 189.706 46.3556 189.794 46.0696C189.882 45.7836 189.981 45.5416 190.091 45.3436C190.209 45.1383 190.377 44.933 190.597 44.7276C190.825 44.515 191.026 44.3426 191.202 44.2106C191.386 44.0713 191.635 43.8953 191.95 43.6826C191.972 43.668 192.079 43.5983 192.269 43.4736C192.467 43.3416 192.588 43.261 192.632 43.2316C192.676 43.195 192.775 43.118 192.929 43.0006C193.083 42.876 193.182 42.777 193.226 42.7036C193.278 42.6303 193.344 42.5313 193.424 42.4066C193.512 42.282 193.571 42.1573 193.6 42.0326C193.63 41.9006 193.644 41.7613 193.644 41.6146C193.644 41.2113 193.531 40.896 193.303 40.6686C193.083 40.434 192.783 40.3166 192.401 40.3166C192.181 40.3166 191.991 40.3533 191.829 40.4266C191.668 40.4926 191.54 40.5806 191.444 40.6906C191.356 40.8006 191.283 40.9436 191.224 41.1196C191.166 41.2883 191.125 41.4496 191.103 41.6036C191.089 41.7576 191.078 41.9373 191.07 42.1426H189.849V41.9446C189.849 41.116 190.08 40.4596 190.542 39.9756C191.012 39.4843 191.642 39.2386 192.434 39.2386C193.182 39.2386 193.784 39.4513 194.238 39.8766C194.693 40.2946 194.92 40.852 194.92 41.5486C194.92 41.8273 194.876 42.0913 194.788 42.3406C194.7 42.59 194.605 42.7916 194.502 42.9456C194.407 43.0996 194.238 43.2793 193.996 43.4846C193.754 43.69 193.575 43.833 193.457 43.9136C193.34 43.9943 193.124 44.141 192.808 44.3536C191.892 44.9476 191.342 45.4646 191.158 45.9046H194.909ZM198.547 39.2496C200.336 39.2496 201.231 40.5806 201.231 43.2426C201.231 44.526 201.007 45.5013 200.56 46.1686C200.112 46.836 199.456 47.1696 198.591 47.1696C196.801 47.1696 195.907 45.8533 195.907 43.2206C195.907 41.9226 196.13 40.9363 196.578 40.2616C197.025 39.587 197.681 39.2496 198.547 39.2496ZM198.558 40.3056C198.338 40.3056 198.147 40.3496 197.986 40.4376C197.824 40.5183 197.692 40.6466 197.59 40.8226C197.494 40.9913 197.417 41.1636 197.359 41.3396C197.3 41.5083 197.256 41.7246 197.227 41.9886C197.205 42.2526 197.19 42.4726 197.183 42.6486C197.175 42.8173 197.172 43.0336 197.172 43.2976C197.172 44.2876 197.282 45.0063 197.502 45.4536C197.729 45.901 198.088 46.1246 198.58 46.1246C198.77 46.1246 198.939 46.088 199.086 46.0146C199.24 45.934 199.364 45.8386 199.46 45.7286C199.555 45.6186 199.636 45.472 199.702 45.2886C199.768 45.1053 199.815 44.9403 199.845 44.7936C199.881 44.6396 199.907 44.4526 199.922 44.2326C199.944 44.0053 199.955 43.833 199.955 43.7156C199.962 43.591 199.966 43.4333 199.966 43.2426C199.966 42.9933 199.962 42.8026 199.955 42.6706C199.955 42.5313 199.944 42.326 199.922 42.0546C199.9 41.776 199.856 41.5523 199.79 41.3836C199.731 41.215 199.65 41.039 199.548 40.8556C199.452 40.6723 199.32 40.5366 199.152 40.4486C198.983 40.3533 198.785 40.3056 198.558 40.3056Z" fill="white"/>
<path d="M98.511 33.9046V35.0156H93.253C93.2603 34.671 93.308 34.3556 93.396 34.0696C93.484 33.7836 93.583 33.5416 93.693 33.3436C93.8103 33.1383 93.979 32.933 94.199 32.7276C94.4263 32.515 94.628 32.3426 94.804 32.2106C94.9873 32.0713 95.2367 31.8953 95.552 31.6826C95.574 31.668 95.6803 31.5983 95.871 31.4736C96.069 31.3416 96.19 31.261 96.234 31.2316C96.278 31.195 96.377 31.118 96.531 31.0006C96.685 30.876 96.784 30.777 96.828 30.7036C96.8793 30.6303 96.9453 30.5313 97.026 30.4066C97.114 30.282 97.1727 30.1573 97.202 30.0326C97.2313 29.9006 97.246 29.7613 97.246 29.6146C97.246 29.2113 97.1323 28.896 96.905 28.6686C96.685 28.434 96.3843 28.3166 96.003 28.3166C95.783 28.3166 95.5923 28.3533 95.431 28.4266C95.2697 28.4926 95.1413 28.5806 95.046 28.6906C94.958 28.8006 94.8847 28.9436 94.826 29.1196C94.7673 29.2883 94.727 29.4496 94.705 29.6036C94.6903 29.7576 94.6793 29.9373 94.672 30.1426H93.451V29.9446C93.451 29.116 93.682 28.4596 94.144 27.9756C94.6133 27.4843 95.244 27.2386 96.036 27.2386C96.784 27.2386 97.3853 27.4513 97.84 27.8766C98.2947 28.2946 98.522 28.852 98.522 29.5486C98.522 29.8273 98.478 30.0913 98.39 30.3406C98.302 30.59 98.2067 30.7916 98.104 30.9456C98.0087 31.0996 97.84 31.2793 97.598 31.4846C97.356 31.69 97.1763 31.833 97.059 31.9136C96.9417 31.9943 96.7253 32.141 96.41 32.3536C95.4933 32.9476 94.9433 33.4646 94.76 33.9046H98.511ZM99.5963 33.1016H100.806C100.836 33.417 100.957 33.6736 101.169 33.8716C101.382 34.0696 101.664 34.1686 102.016 34.1686C102.948 34.1686 103.454 33.2703 103.534 31.4736C103.116 32.1263 102.544 32.4526 101.818 32.4526C101.129 32.4526 100.561 32.218 100.113 31.7486C99.666 31.272 99.4423 30.6633 99.4423 29.9226C99.4423 29.138 99.688 28.4926 100.179 27.9866C100.671 27.4733 101.298 27.2166 102.06 27.2166C102.478 27.2166 102.849 27.2936 103.171 27.4476C103.501 27.6016 103.765 27.8033 103.963 28.0526C104.161 28.2946 104.323 28.588 104.447 28.9326C104.579 29.27 104.667 29.6073 104.711 29.9446C104.763 30.282 104.788 30.6376 104.788 31.0116C104.788 31.5176 104.741 32.0016 104.645 32.4636C104.557 32.9183 104.411 33.3583 104.205 33.7836C104.007 34.2016 103.714 34.539 103.325 34.7956C102.937 35.045 102.478 35.1696 101.95 35.1696C101.298 35.1696 100.748 34.9753 100.3 34.5866C99.8603 34.198 99.6256 33.703 99.5963 33.1016ZM102.016 28.2726C101.62 28.2726 101.301 28.423 101.059 28.7236C100.825 29.017 100.707 29.4056 100.707 29.8896C100.707 30.3663 100.828 30.744 101.07 31.0226C101.312 31.3013 101.635 31.4406 102.038 31.4406C102.442 31.4406 102.768 31.2976 103.017 31.0116C103.267 30.7256 103.391 30.3516 103.391 29.8896C103.391 29.3983 103.267 29.006 103.017 28.7126C102.768 28.4193 102.434 28.2726 102.016 28.2726ZM110.046 30.8686C109.701 30.744 109.43 30.5423 109.232 30.2636C109.041 29.9776 108.946 29.644 108.946 29.2626C108.946 28.6613 109.17 28.17 109.617 27.7886C110.072 27.4073 110.658 27.2166 111.377 27.2166C112.066 27.2166 112.631 27.4073 113.071 27.7886C113.511 28.1626 113.731 28.643 113.731 29.2296C113.731 30.0143 113.368 30.5606 112.642 30.8686C113.111 31.03 113.463 31.2573 113.698 31.5506C113.933 31.844 114.05 32.2363 114.05 32.7276C114.05 33.4536 113.801 34.0403 113.302 34.4876C112.803 34.9276 112.147 35.1476 111.333 35.1476C110.526 35.1476 109.874 34.9313 109.375 34.4986C108.884 34.066 108.638 33.4976 108.638 32.7936C108.638 32.317 108.759 31.9136 109.001 31.5836C109.25 31.2463 109.599 31.008 110.046 30.8686ZM111.366 28.2286C110.985 28.2286 110.68 28.3313 110.453 28.5366C110.233 28.7346 110.123 29.0023 110.123 29.3396C110.123 29.677 110.237 29.9483 110.464 30.1536C110.691 30.359 110.988 30.4616 111.355 30.4616C111.722 30.4616 112.015 30.3626 112.235 30.1646C112.455 29.9593 112.565 29.6843 112.565 29.3396C112.565 29.0023 112.455 28.7346 112.235 28.5366C112.022 28.3313 111.733 28.2286 111.366 28.2286ZM111.333 31.3636C110.908 31.3636 110.563 31.492 110.299 31.7486C110.035 31.998 109.903 32.3243 109.903 32.7276C109.903 33.1676 110.035 33.516 110.299 33.7726C110.563 34.0293 110.922 34.1576 111.377 34.1576C111.817 34.1576 112.162 34.0366 112.411 33.7946C112.66 33.5453 112.785 33.2006 112.785 32.7606C112.785 32.3353 112.653 31.998 112.389 31.7486C112.125 31.492 111.773 31.3636 111.333 31.3636ZM114.882 33.1016H116.092C116.122 33.417 116.243 33.6736 116.455 33.8716C116.668 34.0696 116.95 34.1686 117.302 34.1686C118.234 34.1686 118.74 33.2703 118.82 31.4736C118.402 32.1263 117.83 32.4526 117.104 32.4526C116.415 32.4526 115.847 32.218 115.399 31.7486C114.952 31.272 114.728 30.6633 114.728 29.9226C114.728 29.138 114.974 28.4926 115.465 27.9866C115.957 27.4733 116.584 27.2166 117.346 27.2166C117.764 27.2166 118.135 27.2936 118.457 27.4476C118.787 27.6016 119.051 27.8033 119.249 28.0526C119.447 28.2946 119.609 28.588 119.733 28.9326C119.865 29.27 119.953 29.6073 119.997 29.9446C120.049 30.282 120.074 30.6376 120.074 31.0116C120.074 31.5176 120.027 32.0016 119.931 32.4636C119.843 32.9183 119.697 33.3583 119.491 33.7836C119.293 34.2016 119 34.539 118.611 34.7956C118.223 35.045 117.764 35.1696 117.236 35.1696C116.584 35.1696 116.034 34.9753 115.586 34.5866C115.146 34.198 114.912 33.703 114.882 33.1016ZM117.302 28.2726C116.906 28.2726 116.587 28.423 116.345 28.7236C116.111 29.017 115.993 29.4056 115.993 29.8896C115.993 30.3663 116.114 30.744 116.356 31.0226C116.598 31.3013 116.921 31.4406 117.324 31.4406C117.728 31.4406 118.054 31.2976 118.303 31.0116C118.553 30.7256 118.677 30.3516 118.677 29.8896C118.677 29.3983 118.553 29.006 118.303 28.7126C118.054 28.4193 117.72 28.2726 117.302 28.2726ZM122.271 30.8686C121.926 30.744 121.655 30.5423 121.457 30.2636C121.266 29.9776 121.171 29.644 121.171 29.2626C121.171 28.6613 121.394 28.17 121.842 27.7886C122.296 27.4073 122.883 27.2166 123.602 27.2166C124.291 27.2166 124.856 27.4073 125.296 27.7886C125.736 28.1626 125.956 28.643 125.956 29.2296C125.956 30.0143 125.593 30.5606 124.867 30.8686C125.336 31.03 125.688 31.2573 125.923 31.5506C126.157 31.844 126.275 32.2363 126.275 32.7276C126.275 33.4536 126.025 34.0403 125.527 34.4876C125.028 34.9276 124.372 35.1476 123.558 35.1476C122.751 35.1476 122.098 34.9313 121.6 34.4986C121.108 34.066 120.863 33.4976 120.863 32.7936C120.863 32.317 120.984 31.9136 121.226 31.5836C121.475 31.2463 121.823 31.008 122.271 30.8686ZM123.591 28.2286C123.209 28.2286 122.905 28.3313 122.678 28.5366C122.458 28.7346 122.348 29.0023 122.348 29.3396C122.348 29.677 122.461 29.9483 122.689 30.1536C122.916 30.359 123.213 30.4616 123.58 30.4616C123.946 30.4616 124.24 30.3626 124.46 30.1646C124.68 29.9593 124.79 29.6843 124.79 29.3396C124.79 29.0023 124.68 28.7346 124.46 28.5366C124.247 28.3313 123.957 28.2286 123.591 28.2286ZM123.558 31.3636C123.132 31.3636 122.788 31.492 122.524 31.7486C122.26 31.998 122.128 32.3243 122.128 32.7276C122.128 33.1676 122.26 33.516 122.524 33.7726C122.788 34.0293 123.147 34.1576 123.602 34.1576C124.042 34.1576 124.386 34.0366 124.636 33.7946C124.885 33.5453 125.01 33.2006 125.01 32.7606C125.01 32.3353 124.878 31.998 124.614 31.7486C124.35 31.492 123.998 31.3636 123.558 31.3636Z" fill="white"/>
<path d="M27.247 2.344V3.433H24.178L23.826 5.413C24.1707 5.04633 24.6547 4.863 25.278 4.863C25.9893 4.863 26.565 5.094 27.005 5.556C27.445 6.018 27.665 6.62667 27.665 7.382C27.665 8.196 27.4083 8.85967 26.895 9.373C26.3817 9.88633 25.7217 10.143 24.915 10.143C24.1523 10.143 23.5327 9.934 23.056 9.516C22.5867 9.09067 22.3373 8.52233 22.308 7.811H23.551C23.5803 8.207 23.7233 8.52233 23.98 8.757C24.2367 8.99167 24.5593 9.109 24.948 9.109C25.4027 9.109 25.7547 8.966 26.004 8.68C26.2533 8.38667 26.378 7.976 26.378 7.448C26.378 6.93467 26.2497 6.53867 25.993 6.26C25.7363 5.974 25.3807 5.831 24.926 5.831C24.376 5.831 23.947 6.062 23.639 6.524L22.539 6.491L23.276 2.344H27.247ZM29.8723 5.853C29.5276 5.72833 29.2563 5.52667 29.0583 5.248C28.8676 4.962 28.7723 4.62833 28.7723 4.247C28.7723 3.64567 28.996 3.15433 29.4433 2.773C29.898 2.39167 30.4846 2.201 31.2033 2.201C31.8926 2.201 32.4573 2.39167 32.8973 2.773C33.3373 3.147 33.5573 3.62733 33.5573 4.214C33.5573 4.99867 33.1943 5.545 32.4683 5.853C32.9376 6.01433 33.2896 6.24167 33.5243 6.535C33.759 6.82833 33.8763 7.22067 33.8763 7.712C33.8763 8.438 33.627 9.02467 33.1283 9.472C32.6296 9.912 31.9733 10.132 31.1593 10.132C30.3526 10.132 29.7 9.91567 29.2013 9.483C28.71 9.05033 28.4643 8.482 28.4643 7.778C28.4643 7.30133 28.5853 6.898 28.8273 6.568C29.0766 6.23067 29.425 5.99233 29.8723 5.853ZM31.1923 3.213C30.811 3.213 30.5066 3.31567 30.2793 3.521C30.0593 3.719 29.9493 3.98667 29.9493 4.324C29.9493 4.66133 30.063 4.93267 30.2903 5.138C30.5176 5.34333 30.8146 5.446 31.1813 5.446C31.548 5.446 31.8413 5.347 32.0613 5.149C32.2813 4.94367 32.3913 4.66867 32.3913 4.324C32.3913 3.98667 32.2813 3.719 32.0613 3.521C31.8486 3.31567 31.559 3.213 31.1923 3.213ZM31.1593 6.348C30.734 6.348 30.3893 6.47633 30.1253 6.733C29.8613 6.98233 29.7293 7.30867 29.7293 7.712C29.7293 8.152 29.8613 8.50033 30.1253 8.757C30.3893 9.01367 30.7486 9.142 31.2033 9.142C31.6433 9.142 31.988 9.021 32.2373 8.779C32.4866 8.52967 32.6113 8.185 32.6113 7.745C32.6113 7.31967 32.4793 6.98233 32.2153 6.733C31.9513 6.47633 31.5993 6.348 31.1593 6.348ZM42.5331 2.344V3.433H39.4641L39.1121 5.413C39.4568 5.04633 39.9408 4.863 40.5641 4.863C41.2755 4.863 41.8511 5.094 42.2911 5.556C42.7311 6.018 42.9511 6.62667 42.9511 7.382C42.9511 8.196 42.6945 8.85967 42.1811 9.373C41.6678 9.88633 41.0078 10.143 40.2011 10.143C39.4385 10.143 38.8188 9.934 38.3421 9.516C37.8728 9.09067 37.6235 8.52233 37.5941 7.811H38.8371C38.8665 8.207 39.0095 8.52233 39.2661 8.757C39.5228 8.99167 39.8455 9.109 40.2341 9.109C40.6888 9.109 41.0408 8.966 41.2901 8.68C41.5395 8.38667 41.6641 7.976 41.6641 7.448C41.6641 6.93467 41.5358 6.53867 41.2791 6.26C41.0225 5.974 40.6668 5.831 40.2121 5.831C39.6621 5.831 39.2331 6.062 38.9251 6.524L37.8251 6.491L38.5621 2.344H42.5331ZM48.9094 8.889V10H43.6514C43.6588 9.65533 43.7064 9.34 43.7944 9.054C43.8824 8.768 43.9814 8.526 44.0914 8.328C44.2088 8.12267 44.3774 7.91733 44.5974 7.712C44.8248 7.49933 45.0264 7.327 45.2024 7.195C45.3858 7.05567 45.6351 6.87967 45.9504 6.667C45.9724 6.65233 46.0788 6.58267 46.2694 6.458C46.4674 6.326 46.5884 6.24533 46.6324 6.216C46.6764 6.17933 46.7754 6.10233 46.9294 5.985C47.0834 5.86033 47.1824 5.76133 47.2264 5.688C47.2778 5.61467 47.3438 5.51567 47.4244 5.391C47.5124 5.26633 47.5711 5.14167 47.6004 5.017C47.6298 4.885 47.6444 4.74567 47.6444 4.599C47.6444 4.19567 47.5308 3.88033 47.3034 3.653C47.0834 3.41833 46.7828 3.301 46.4014 3.301C46.1814 3.301 45.9908 3.33767 45.8294 3.411C45.6681 3.477 45.5398 3.565 45.4444 3.675C45.3564 3.785 45.2831 3.928 45.2244 4.104C45.1658 4.27267 45.1254 4.434 45.1034 4.588C45.0888 4.742 45.0778 4.92167 45.0704 5.127H43.8494V4.929C43.8494 4.10033 44.0804 3.444 44.5424 2.96C45.0118 2.46867 45.6424 2.223 46.4344 2.223C47.1824 2.223 47.7838 2.43567 48.2384 2.861C48.6931 3.279 48.9204 3.83633 48.9204 4.533C48.9204 4.81167 48.8764 5.07567 48.7884 5.325C48.7004 5.57433 48.6051 5.776 48.5024 5.93C48.4071 6.084 48.2384 6.26367 47.9964 6.469C47.7544 6.67433 47.5748 6.81733 47.4574 6.898C47.3401 6.97867 47.1238 7.12533 46.8084 7.338C45.8918 7.932 45.3418 8.449 45.1584 8.889H48.9094ZM51.2707 5.853C50.9261 5.72833 50.6547 5.52667 50.4567 5.248C50.2661 4.962 50.1707 4.62833 50.1707 4.247C50.1707 3.64567 50.3944 3.15433 50.8417 2.773C51.2964 2.39167 51.8831 2.201 52.6017 2.201C53.2911 2.201 53.8557 2.39167 54.2957 2.773C54.7357 3.147 54.9557 3.62733 54.9557 4.214C54.9557 4.99867 54.5927 5.545 53.8667 5.853C54.3361 6.01433 54.6881 6.24167 54.9227 6.535C55.1574 6.82833 55.2747 7.22067 55.2747 7.712C55.2747 8.438 55.0254 9.02467 54.5267 9.472C54.0281 9.912 53.3717 10.132 52.5577 10.132C51.7511 10.132 51.0984 9.91567 50.5997 9.483C50.1084 9.05033 49.8627 8.482 49.8627 7.778C49.8627 7.30133 49.9837 6.898 50.2257 6.568C50.4751 6.23067 50.8234 5.99233 51.2707 5.853ZM52.5907 3.213C52.2094 3.213 51.9051 3.31567 51.6777 3.521C51.4577 3.719 51.3477 3.98667 51.3477 4.324C51.3477 4.66133 51.4614 4.93267 51.6887 5.138C51.9161 5.34333 52.2131 5.446 52.5797 5.446C52.9464 5.446 53.2397 5.347 53.4597 5.149C53.6797 4.94367 53.7897 4.66867 53.7897 4.324C53.7897 3.98667 53.6797 3.719 53.4597 3.521C53.2471 3.31567 52.9574 3.213 52.5907 3.213ZM52.5577 6.348C52.1324 6.348 51.7877 6.47633 51.5237 6.733C51.2597 6.98233 51.1277 7.30867 51.1277 7.712C51.1277 8.152 51.2597 8.50033 51.5237 8.757C51.7877 9.01367 52.1471 9.142 52.6017 9.142C53.0417 9.142 53.3864 9.021 53.6357 8.779C53.8851 8.52967 54.0097 8.185 54.0097 7.745C54.0097 7.31967 53.8777 6.98233 53.6137 6.733C53.3497 6.47633 52.9977 6.348 52.5577 6.348Z" fill="white"/>
<path d="M111.5 46.5L38 19.5V96H185V57.5L111.5 46.5Z" fill="url(#paint0_linear)"/>
<path d="M37 19.5L111.5 47.0156L186 58" stroke="#FF848B" stroke-width="2" stroke-linecap="round" stroke-linejoin="round"/>
<circle cx="37.5" cy="18.5" r="4" fill="white" stroke="#FF848B"/>
<circle cx="111.5" cy="46.5156" r="4" fill="white" stroke="#FF848B"/>
<circle cx="185.5" cy="57.5" r="4" fill="white" stroke="#FF848B"/>
<path d="M178.511 113.889V115H173.253C173.26 114.655 173.308 114.34 173.396 114.054C173.484 113.768 173.583 113.526 173.693 113.328C173.81 113.123 173.979 112.917 174.199 112.712C174.426 112.499 174.628 112.327 174.804 112.195C174.987 112.056 175.237 111.88 175.552 111.667C175.574 111.652 175.68 111.583 175.871 111.458C176.069 111.326 176.19 111.245 176.234 111.216C176.278 111.179 176.377 111.102 176.531 110.985C176.685 110.86 176.784 110.761 176.828 110.688C176.879 110.615 176.945 110.516 177.026 110.391C177.114 110.266 177.173 110.142 177.202 110.017C177.231 109.885 177.246 109.746 177.246 109.599C177.246 109.196 177.132 108.88 176.905 108.653C176.685 108.418 176.384 108.301 176.003 108.301C175.783 108.301 175.592 108.338 175.431 108.411C175.27 108.477 175.141 108.565 175.046 108.675C174.958 108.785 174.885 108.928 174.826 109.104C174.767 109.273 174.727 109.434 174.705 109.588C174.69 109.742 174.679 109.922 174.672 110.127H173.451V109.929C173.451 109.1 173.682 108.444 174.144 107.96C174.613 107.469 175.244 107.223 176.036 107.223C176.784 107.223 177.385 107.436 177.84 107.861C178.295 108.279 178.522 108.836 178.522 109.533C178.522 109.812 178.478 110.076 178.39 110.325C178.302 110.574 178.207 110.776 178.104 110.93C178.009 111.084 177.84 111.264 177.598 111.469C177.356 111.674 177.176 111.817 177.059 111.898C176.942 111.979 176.725 112.125 176.41 112.338C175.493 112.932 174.943 113.449 174.76 113.889H178.511ZM182.148 107.234C183.938 107.234 184.832 108.565 184.832 111.227C184.832 112.51 184.609 113.486 184.161 114.153C183.714 114.82 183.058 115.154 182.192 115.154C180.403 115.154 179.508 113.838 179.508 111.205C179.508 109.907 179.732 108.921 180.179 108.246C180.627 107.571 181.283 107.234 182.148 107.234ZM182.159 108.29C181.939 108.29 181.749 108.334 181.587 108.422C181.426 108.503 181.294 108.631 181.191 108.807C181.096 108.976 181.019 109.148 180.96 109.324C180.902 109.493 180.858 109.709 180.828 109.973C180.806 110.237 180.792 110.457 180.784 110.633C180.777 110.802 180.773 111.018 180.773 111.282C180.773 112.272 180.883 112.991 181.103 113.438C181.331 113.885 181.69 114.109 182.181 114.109C182.372 114.109 182.541 114.072 182.687 113.999C182.841 113.918 182.966 113.823 183.061 113.713C183.157 113.603 183.237 113.456 183.303 113.273C183.369 113.09 183.417 112.925 183.446 112.778C183.483 112.624 183.509 112.437 183.523 112.217C183.545 111.99 183.556 111.817 183.556 111.7C183.564 111.575 183.567 111.418 183.567 111.227C183.567 110.978 183.564 110.787 183.556 110.655C183.556 110.516 183.545 110.31 183.523 110.039C183.501 109.76 183.457 109.537 183.391 109.368C183.333 109.199 183.252 109.023 183.149 108.84C183.054 108.657 182.922 108.521 182.753 108.433C182.585 108.338 182.387 108.29 182.159 108.29ZM190.736 113.889V115H185.478C185.485 114.655 185.533 114.34 185.621 114.054C185.709 113.768 185.808 113.526 185.918 113.328C186.035 113.123 186.204 112.917 186.424 112.712C186.651 112.499 186.853 112.327 187.029 112.195C187.212 112.056 187.461 111.88 187.777 111.667C187.799 111.652 187.905 111.583 188.096 111.458C188.294 111.326 188.415 111.245 188.459 111.216C188.503 111.179 188.602 111.102 188.756 110.985C188.91 110.86 189.009 110.761 189.053 110.688C189.104 110.615 189.17 110.516 189.251 110.391C189.339 110.266 189.397 110.142 189.427 110.017C189.456 109.885 189.471 109.746 189.471 109.599C189.471 109.196 189.357 108.88 189.13 108.653C188.91 108.418 188.609 108.301 188.228 108.301C188.008 108.301 187.817 108.338 187.656 108.411C187.494 108.477 187.366 108.565 187.271 108.675C187.183 108.785 187.109 108.928 187.051 109.104C186.992 109.273 186.952 109.434 186.93 109.588C186.915 109.742 186.904 109.922 186.897 110.127H185.676V109.929C185.676 109.1 185.907 108.444 186.369 107.96C186.838 107.469 187.469 107.223 188.261 107.223C189.009 107.223 189.61 107.436 190.065 107.861C190.519 108.279 190.747 108.836 190.747 109.533C190.747 109.812 190.703 110.076 190.615 110.325C190.527 110.574 190.431 110.776 190.329 110.93C190.233 111.084 190.065 111.264 189.823 111.469C189.581 111.674 189.401 111.817 189.284 111.898C189.166 111.979 188.95 112.125 188.635 112.338C187.718 112.932 187.168 113.449 186.985 113.889H190.736ZM194.373 107.234C196.162 107.234 197.057 108.565 197.057 111.227C197.057 112.51 196.833 113.486 196.386 114.153C195.939 114.82 195.282 115.154 194.417 115.154C192.628 115.154 191.733 113.838 191.733 111.205C191.733 109.907 191.957 108.921 192.404 108.246C192.851 107.571 193.508 107.234 194.373 107.234ZM194.384 108.29C194.164 108.29 193.973 108.334 193.812 108.422C193.651 108.503 193.519 108.631 193.416 108.807C193.321 108.976 193.244 109.148 193.185 109.324C193.126 109.493 193.082 109.709 193.053 109.973C193.031 110.237 193.016 110.457 193.009 110.633C193.002 110.802 192.998 111.018 192.998 111.282C192.998 112.272 193.108 112.991 193.328 113.438C193.555 113.885 193.915 114.109 194.406 114.109C194.597 114.109 194.765 114.072 194.912 113.999C195.066 113.918 195.191 113.823 195.286 113.713C195.381 113.603 195.462 113.456 195.528 113.273C195.594 113.09 195.642 112.925 195.671 112.778C195.708 112.624 195.733 112.437 195.748 112.217C195.77 111.99 195.781 111.817 195.781 111.7C195.788 111.575 195.792 111.418 195.792 111.227C195.792 110.978 195.788 110.787 195.781 110.655C195.781 110.516 195.77 110.31 195.748 110.039C195.726 109.76 195.682 109.537 195.616 109.368C195.557 109.199 195.477 109.023 195.374 108.84C195.279 108.657 195.147 108.521 194.978 108.433C194.809 108.338 194.611 108.29 194.384 108.29Z" fill="#E0E0E0"/>
<path d="M103.511 113.889V115H98.253C98.2603 114.655 98.308 114.34 98.396 114.054C98.484 113.768 98.583 113.526 98.693 113.328C98.8103 113.123 98.979 112.917 99.199 112.712C99.4263 112.499 99.628 112.327 99.804 112.195C99.9873 112.056 100.237 111.88 100.552 111.667C100.574 111.652 100.68 111.583 100.871 111.458C101.069 111.326 101.19 111.245 101.234 111.216C101.278 111.179 101.377 111.102 101.531 110.985C101.685 110.86 101.784 110.761 101.828 110.688C101.879 110.615 101.945 110.516 102.026 110.391C102.114 110.266 102.173 110.142 102.202 110.017C102.231 109.885 102.246 109.746 102.246 109.599C102.246 109.196 102.132 108.88 101.905 108.653C101.685 108.418 101.384 108.301 101.003 108.301C100.783 108.301 100.592 108.338 100.431 108.411C100.27 108.477 100.141 108.565 100.046 108.675C99.958 108.785 99.8847 108.928 99.826 109.104C99.7673 109.273 99.727 109.434 99.705 109.588C99.6903 109.742 99.6793 109.922 99.672 110.127H98.451V109.929C98.451 109.1 98.682 108.444 99.144 107.96C99.6133 107.469 100.244 107.223 101.036 107.223C101.784 107.223 102.385 107.436 102.84 107.861C103.295 108.279 103.522 108.836 103.522 109.533C103.522 109.812 103.478 110.076 103.39 110.325C103.302 110.574 103.207 110.776 103.104 110.93C103.009 111.084 102.84 111.264 102.598 111.469C102.356 111.674 102.176 111.817 102.059 111.898C101.942 111.979 101.725 112.125 101.41 112.338C100.493 112.932 99.9433 113.449 99.76 113.889H103.511ZM107.148 107.234C108.938 107.234 109.832 108.565 109.832 111.227C109.832 112.51 109.609 113.486 109.161 114.153C108.714 114.82 108.058 115.154 107.192 115.154C105.403 115.154 104.508 113.838 104.508 111.205C104.508 109.907 104.732 108.921 105.179 108.246C105.627 107.571 106.283 107.234 107.148 107.234ZM107.159 108.29C106.939 108.29 106.749 108.334 106.587 108.422C106.426 108.503 106.294 108.631 106.191 108.807C106.096 108.976 106.019 109.148 105.96 109.324C105.902 109.493 105.858 109.709 105.828 109.973C105.806 110.237 105.792 110.457 105.784 110.633C105.777 110.802 105.773 111.018 105.773 111.282C105.773 112.272 105.883 112.991 106.103 113.438C106.331 113.885 106.69 114.109 107.181 114.109C107.372 114.109 107.541 114.072 107.687 113.999C107.841 113.918 107.966 113.823 108.061 113.713C108.157 113.603 108.237 113.456 108.303 113.273C108.369 113.09 108.417 112.925 108.446 112.778C108.483 112.624 108.509 112.437 108.523 112.217C108.545 111.99 108.556 111.817 108.556 111.7C108.564 111.575 108.567 111.418 108.567 111.227C108.567 110.978 108.564 110.787 108.556 110.655C108.556 110.516 108.545 110.31 108.523 110.039C108.501 109.76 108.457 109.537 108.391 109.368C108.333 109.199 108.252 109.023 108.149 108.84C108.054 108.657 107.922 108.521 107.753 108.433C107.585 108.338 107.387 108.29 107.159 108.29ZM114.372 107.256V115H113.03V109.676H111.116V108.752C112.45 108.752 113.198 108.253 113.36 107.256H114.372ZM116.821 113.086H118.031C118.06 113.401 118.181 113.658 118.394 113.856C118.607 114.054 118.889 114.153 119.241 114.153C120.172 114.153 120.678 113.255 120.759 111.458C120.341 112.111 119.769 112.437 119.043 112.437C118.354 112.437 117.785 112.202 117.338 111.733C116.891 111.256 116.667 110.648 116.667 109.907C116.667 109.122 116.913 108.477 117.404 107.971C117.895 107.458 118.522 107.201 119.285 107.201C119.703 107.201 120.073 107.278 120.396 107.432C120.726 107.586 120.99 107.788 121.188 108.037C121.386 108.279 121.547 108.572 121.672 108.917C121.804 109.254 121.892 109.592 121.936 109.929C121.987 110.266 122.013 110.622 122.013 110.996C122.013 111.502 121.965 111.986 121.87 112.448C121.782 112.903 121.635 113.343 121.43 113.768C121.232 114.186 120.939 114.523 120.55 114.78C120.161 115.029 119.703 115.154 119.175 115.154C118.522 115.154 117.972 114.96 117.525 114.571C117.085 114.182 116.85 113.687 116.821 113.086ZM119.241 108.257C118.845 108.257 118.526 108.407 118.284 108.708C118.049 109.001 117.932 109.39 117.932 109.874C117.932 110.351 118.053 110.728 118.295 111.007C118.537 111.286 118.86 111.425 119.263 111.425C119.666 111.425 119.993 111.282 120.242 110.996C120.491 110.71 120.616 110.336 120.616 109.874C120.616 109.383 120.491 108.99 120.242 108.697C119.993 108.404 119.659 108.257 119.241 108.257Z" fill="#E0E0E0"/>
<path d="M31.511 113.889V115H26.253C26.2603 114.655 26.308 114.34 26.396 114.054C26.484 113.768 26.583 113.526 26.693 113.328C26.8103 113.123 26.979 112.917 27.199 112.712C27.4263 112.499 27.628 112.327 27.804 112.195C27.9873 112.056 28.2367 111.88 28.552 111.667C28.574 111.652 28.6803 111.583 28.871 111.458C29.069 111.326 29.19 111.245 29.234 111.216C29.278 111.179 29.377 111.102 29.531 110.985C29.685 110.86 29.784 110.761 29.828 110.688C29.8793 110.615 29.9453 110.516 30.026 110.391C30.114 110.266 30.1727 110.142 30.202 110.017C30.2313 109.885 30.246 109.746 30.246 109.599C30.246 109.196 30.1323 108.88 29.905 108.653C29.685 108.418 29.3843 108.301 29.003 108.301C28.783 108.301 28.5923 108.338 28.431 108.411C28.2697 108.477 28.1413 108.565 28.046 108.675C27.958 108.785 27.8847 108.928 27.826 109.104C27.7673 109.273 27.727 109.434 27.705 109.588C27.6903 109.742 27.6793 109.922 27.672 110.127H26.451V109.929C26.451 109.1 26.682 108.444 27.144 107.96C27.6133 107.469 28.244 107.223 29.036 107.223C29.784 107.223 30.3853 107.436 30.84 107.861C31.2947 108.279 31.522 108.836 31.522 109.533C31.522 109.812 31.478 110.076 31.39 110.325C31.302 110.574 31.2067 110.776 31.104 110.93C31.0087 111.084 30.84 111.264 30.598 111.469C30.356 111.674 30.1763 111.817 30.059 111.898C29.9417 111.979 29.7253 112.125 29.41 112.338C28.4933 112.932 27.9433 113.449 27.76 113.889H31.511ZM35.1483 107.234C36.9376 107.234 37.8323 108.565 37.8323 111.227C37.8323 112.51 37.6086 113.486 37.1613 114.153C36.714 114.82 36.0576 115.154 35.1923 115.154C33.403 115.154 32.5083 113.838 32.5083 111.205C32.5083 109.907 32.732 108.921 33.1793 108.246C33.6266 107.571 34.283 107.234 35.1483 107.234ZM35.1593 108.29C34.9393 108.29 34.7486 108.334 34.5873 108.422C34.426 108.503 34.294 108.631 34.1913 108.807C34.096 108.976 34.019 109.148 33.9603 109.324C33.9016 109.493 33.8576 109.709 33.8283 109.973C33.8063 110.237 33.7916 110.457 33.7843 110.633C33.777 110.802 33.7733 111.018 33.7733 111.282C33.7733 112.272 33.8833 112.991 34.1033 113.438C34.3306 113.885 34.69 114.109 35.1813 114.109C35.372 114.109 35.5406 114.072 35.6873 113.999C35.8413 113.918 35.966 113.823 36.0613 113.713C36.1566 113.603 36.2373 113.456 36.3033 113.273C36.3693 113.09 36.417 112.925 36.4463 112.778C36.483 112.624 36.5086 112.437 36.5233 112.217C36.5453 111.99 36.5563 111.817 36.5563 111.7C36.5636 111.575 36.5673 111.418 36.5673 111.227C36.5673 110.978 36.5636 110.787 36.5563 110.655C36.5563 110.516 36.5453 110.31 36.5233 110.039C36.5013 109.76 36.4573 109.537 36.3913 109.368C36.3326 109.199 36.252 109.023 36.1493 108.84C36.054 108.657 35.922 108.521 35.7533 108.433C35.5846 108.338 35.3866 108.29 35.1593 108.29ZM42.3716 107.256V115H41.0296V109.676H39.1156V108.752C40.4503 108.752 41.1983 108.253 41.3596 107.256H42.3716ZM46.0969 110.853C45.7522 110.728 45.4809 110.527 45.2829 110.248C45.0922 109.962 44.9969 109.628 44.9969 109.247C44.9969 108.646 45.2206 108.154 45.6679 107.773C46.1226 107.392 46.7092 107.201 47.4279 107.201C48.1172 107.201 48.6819 107.392 49.1219 107.773C49.5619 108.147 49.7819 108.627 49.7819 109.214C49.7819 109.999 49.4189 110.545 48.6929 110.853C49.1622 111.014 49.5142 111.242 49.7489 111.535C49.9836 111.828 50.1009 112.221 50.1009 112.712C50.1009 113.438 49.8516 114.025 49.3529 114.472C48.8542 114.912 48.1979 115.132 47.3839 115.132C46.5772 115.132 45.9246 114.916 45.4259 114.483C44.9346 114.05 44.6889 113.482 44.6889 112.778C44.6889 112.301 44.8099 111.898 45.0519 111.568C45.3012 111.231 45.6496 110.992 46.0969 110.853ZM47.4169 108.213C47.0356 108.213 46.7312 108.316 46.5039 108.521C46.2839 108.719 46.1739 108.987 46.1739 109.324C46.1739 109.661 46.2876 109.933 46.5149 110.138C46.7422 110.343 47.0392 110.446 47.4059 110.446C47.7726 110.446 48.0659 110.347 48.2859 110.149C48.5059 109.944 48.6159 109.669 48.6159 109.324C48.6159 108.987 48.5059 108.719 48.2859 108.521C48.0732 108.316 47.7836 108.213 47.4169 108.213ZM47.3839 111.348C46.9586 111.348 46.6139 111.476 46.3499 111.733C46.0859 111.982 45.9539 112.309 45.9539 112.712C45.9539 113.152 46.0859 113.5 46.3499 113.757C46.6139 114.014 46.9732 114.142 47.4279 114.142C47.8679 114.142 48.2126 114.021 48.4619 113.779C48.7112 113.53 48.8359 113.185 48.8359 112.745C48.8359 112.32 48.7039 111.982 48.4399 111.733C48.1759 111.476 47.8239 111.348 47.3839 111.348Z" fill="#E0E0E0"/>
<defs>
<linearGradient id="paint0_linear" x1="113.566" y1="25" x2="113.5" y2="99" gradientUnits="userSpaceOnUse">
<stop stop-color="#FF848B" stop-opacity="0.28"/>
<stop offset="0.937025" stop-color="#FFABAE" stop-opacity="0"/>
</linearGradient>
</defs>
</svg>
