<svg width="223" height="118" viewBox="0 0 223 118" fill="none" xmlns="http://www.w3.org/2000/svg">
<rect x="37.5" y="57.5" width="37" height="19" stroke="#EEEEEE" stroke-opacity="0.1"/>
<rect x="74.5" y="57.5" width="37" height="19" stroke="#EEEEEE" stroke-opacity="0.1"/>
<rect x="111.5" y="57.5" width="37" height="19" stroke="#EEEEEE" stroke-opacity="0.1"/>
<rect x="148.5" y="57.5" width="37" height="19" stroke="#EEEEEE" stroke-opacity="0.1"/>
<rect x="185.5" y="57.5" width="37" height="19" stroke="#EEEEEE" stroke-opacity="0.1"/>
<rect x="0.5" y="57.5" width="37" height="19" stroke="#EEEEEE" stroke-opacity="0.1"/>
<rect x="37.5" y="38.5" width="37" height="19" stroke="#EEEEEE" stroke-opacity="0.1"/>
<rect x="74.5" y="38.5" width="37" height="19" stroke="#EEEEEE" stroke-opacity="0.1"/>
<rect x="111.5" y="38.5" width="37" height="19" stroke="#EEEEEE" stroke-opacity="0.1"/>
<rect x="148.5" y="38.5" width="37" height="19" stroke="#EEEEEE" stroke-opacity="0.1"/>
<rect x="185.5" y="38.5" width="37" height="19" stroke="#EEEEEE" stroke-opacity="0.1"/>
<rect x="0.5" y="38.5" width="37" height="19" stroke="#EEEEEE" stroke-opacity="0.1"/>
<rect x="37.5" y="19.5" width="37" height="19" stroke="#EEEEEE" stroke-opacity="0.1"/>
<rect x="74.5" y="19.5" width="37" height="19" stroke="#EEEEEE" stroke-opacity="0.1"/>
<rect x="37.5" y="76.5" width="37" height="19" stroke="#EEEEEE" stroke-opacity="0.1"/>
<rect x="74.5" y="76.5" width="37" height="19" stroke="#EEEEEE" stroke-opacity="0.1"/>
<rect x="37.5" y="0.5" width="37" height="19" stroke="#EEEEEE" stroke-opacity="0.1"/>
<rect x="74.5" y="0.5" width="37" height="19" stroke="#EEEEEE" stroke-opacity="0.1"/>
<rect x="111.5" y="19.5" width="37" height="19" stroke="#EEEEEE" stroke-opacity="0.1"/>
<rect x="148.5" y="19.5" width="37" height="19" stroke="#EEEEEE" stroke-opacity="0.1"/>
<rect x="185.5" y="19.5" width="37" height="19" stroke="#EEEEEE" stroke-opacity="0.1"/>
<rect x="0.5" y="19.5" width="37" height="19" stroke="#EEEEEE" stroke-opacity="0.1"/>
<rect x="111.5" y="76.5" width="37" height="19" stroke="#EEEEEE" stroke-opacity="0.1"/>
<rect x="111.5" y="0.5" width="37" height="19" stroke="#EEEEEE" stroke-opacity="0.1"/>
<rect x="148.5" y="76.5" width="37" height="19" stroke="#EEEEEE" stroke-opacity="0.1"/>
<rect x="148.5" y="0.5" width="37" height="19" stroke="#EEEEEE" stroke-opacity="0.1"/>
<rect x="185.5" y="76.5" width="37" height="19" stroke="#EEEEEE" stroke-opacity="0.1"/>
<rect x="185.5" y="0.5" width="37" height="19" stroke="#EEEEEE" stroke-opacity="0.1"/>
<rect x="0.5" y="76.5" width="37" height="19" stroke="#EEEEEE" stroke-opacity="0.1"/>
<rect x="0.5" y="0.5" width="37" height="19" stroke="#EEEEEE" stroke-opacity="0.1"/>
<path d="M111 77.5L37.5 21V95H185.5V38L111 77.5Z" fill="url(#paint0_linear)"/>
<path d="M37 20.5L111.5 77L184.5 38.5" stroke="#FF9E5B" stroke-width="2" stroke-linecap="round" stroke-linejoin="round"/>
<circle cx="36.5" cy="19.5" r="4" fill="white" stroke="#FF9E5B"/>
<circle cx="185.5" cy="38.5" r="4" fill="white" stroke="#FF9E5B"/>
<circle cx="111.5" cy="77.5" r="4" fill="white" stroke="#FF9E5B"/>
<path d="M170.511 25.889V27H165.253C165.26 26.6553 165.308 26.34 165.396 26.054C165.484 25.768 165.583 25.526 165.693 25.328C165.81 25.1227 165.979 24.9173 166.199 24.712C166.426 24.4993 166.628 24.327 166.804 24.195C166.987 24.0557 167.237 23.8797 167.552 23.667C167.574 23.6523 167.68 23.5827 167.871 23.458C168.069 23.326 168.19 23.2453 168.234 23.216C168.278 23.1793 168.377 23.1023 168.531 22.985C168.685 22.8603 168.784 22.7613 168.828 22.688C168.879 22.6147 168.945 22.5157 169.026 22.391C169.114 22.2663 169.173 22.1417 169.202 22.017C169.231 21.885 169.246 21.7457 169.246 21.599C169.246 21.1957 169.132 20.8803 168.905 20.653C168.685 20.4183 168.384 20.301 168.003 20.301C167.783 20.301 167.592 20.3377 167.431 20.411C167.27 20.477 167.141 20.565 167.046 20.675C166.958 20.785 166.885 20.928 166.826 21.104C166.767 21.2727 166.727 21.434 166.705 21.588C166.69 21.742 166.679 21.9217 166.672 22.127H165.451V21.929C165.451 21.1003 165.682 20.444 166.144 19.96C166.613 19.4687 167.244 19.223 168.036 19.223C168.784 19.223 169.385 19.4357 169.84 19.861C170.295 20.279 170.522 20.8363 170.522 21.533C170.522 21.8117 170.478 22.0757 170.39 22.325C170.302 22.5743 170.207 22.776 170.104 22.93C170.009 23.084 169.84 23.2637 169.598 23.469C169.356 23.6743 169.176 23.8173 169.059 23.898C168.942 23.9787 168.725 24.1253 168.41 24.338C167.493 24.932 166.943 25.449 166.76 25.889H170.511ZM174.148 19.234C175.938 19.234 176.832 20.565 176.832 23.227C176.832 24.5103 176.609 25.4857 176.161 26.153C175.714 26.8203 175.058 27.154 174.192 27.154C172.403 27.154 171.508 25.8377 171.508 23.205C171.508 21.907 171.732 20.9207 172.179 20.246C172.627 19.5713 173.283 19.234 174.148 19.234ZM174.159 20.29C173.939 20.29 173.749 20.334 173.587 20.422C173.426 20.5027 173.294 20.631 173.191 20.807C173.096 20.9757 173.019 21.148 172.96 21.324C172.902 21.4927 172.858 21.709 172.828 21.973C172.806 22.237 172.792 22.457 172.784 22.633C172.777 22.8017 172.773 23.018 172.773 23.282C172.773 24.272 172.883 24.9907 173.103 25.438C173.331 25.8853 173.69 26.109 174.181 26.109C174.372 26.109 174.541 26.0723 174.687 25.999C174.841 25.9183 174.966 25.823 175.061 25.713C175.157 25.603 175.237 25.4563 175.303 25.273C175.369 25.0897 175.417 24.9247 175.446 24.778C175.483 24.624 175.509 24.437 175.523 24.217C175.545 23.9897 175.556 23.8173 175.556 23.7C175.564 23.5753 175.567 23.4177 175.567 23.227C175.567 22.9777 175.564 22.787 175.556 22.655C175.556 22.5157 175.545 22.3103 175.523 22.039C175.501 21.7603 175.457 21.5367 175.391 21.368C175.333 21.1993 175.252 21.0233 175.149 20.84C175.054 20.6567 174.922 20.521 174.753 20.433C174.585 20.3377 174.387 20.29 174.159 20.29ZM182.472 19.344V20.433H179.403L179.051 22.413C179.395 22.0463 179.879 21.863 180.503 21.863C181.214 21.863 181.79 22.094 182.23 22.556C182.67 23.018 182.89 23.6267 182.89 24.382C182.89 25.196 182.633 25.8597 182.12 26.373C181.606 26.8863 180.946 27.143 180.14 27.143C179.377 27.143 178.757 26.934 178.281 26.516C177.811 26.0907 177.562 25.5223 177.533 24.811H178.776C178.805 25.207 178.948 25.5223 179.205 25.757C179.461 25.9917 179.784 26.109 180.173 26.109C180.627 26.109 180.979 25.966 181.229 25.68C181.478 25.3867 181.603 24.976 181.603 24.448C181.603 23.9347 181.474 23.5387 181.218 23.26C180.961 22.974 180.605 22.831 180.151 22.831C179.601 22.831 179.172 23.062 178.864 23.524L177.764 23.491L178.501 19.344H182.472ZM189.434 19.234C191.224 19.234 192.118 20.565 192.118 23.227C192.118 24.5103 191.895 25.4857 191.447 26.153C191 26.8203 190.344 27.154 189.478 27.154C187.689 27.154 186.794 25.8377 186.794 23.205C186.794 21.907 187.018 20.9207 187.465 20.246C187.913 19.5713 188.569 19.234 189.434 19.234ZM189.445 20.29C189.225 20.29 189.035 20.334 188.873 20.422C188.712 20.5027 188.58 20.631 188.477 20.807C188.382 20.9757 188.305 21.148 188.246 21.324C188.188 21.4927 188.144 21.709 188.114 21.973C188.092 22.237 188.078 22.457 188.07 22.633C188.063 22.8017 188.059 23.018 188.059 23.282C188.059 24.272 188.169 24.9907 188.389 25.438C188.617 25.8853 188.976 26.109 189.467 26.109C189.658 26.109 189.827 26.0723 189.973 25.999C190.127 25.9183 190.252 25.823 190.347 25.713C190.443 25.603 190.523 25.4563 190.589 25.273C190.655 25.0897 190.703 24.9247 190.732 24.778C190.769 24.624 190.795 24.437 190.809 24.217C190.831 23.9897 190.842 23.8173 190.842 23.7C190.85 23.5753 190.853 23.4177 190.853 23.227C190.853 22.9777 190.85 22.787 190.842 22.655C190.842 22.5157 190.831 22.3103 190.809 22.039C190.787 21.7603 190.743 21.5367 190.677 21.368C190.619 21.1993 190.538 21.0233 190.435 20.84C190.34 20.6567 190.208 20.521 190.039 20.433C189.871 20.3377 189.673 20.29 189.445 20.29ZM196.658 19.256V27H195.316V21.676H193.402V20.752C194.736 20.752 195.484 20.2533 195.646 19.256H196.658ZM200.383 22.853C200.038 22.7283 199.767 22.5267 199.569 22.248C199.378 21.962 199.283 21.6283 199.283 21.247C199.283 20.6457 199.507 20.1543 199.954 19.773C200.409 19.3917 200.995 19.201 201.714 19.201C202.403 19.201 202.968 19.3917 203.408 19.773C203.848 20.147 204.068 20.6273 204.068 21.214C204.068 21.9987 203.705 22.545 202.979 22.853C203.448 23.0143 203.8 23.2417 204.035 23.535C204.27 23.8283 204.387 24.2207 204.387 24.712C204.387 25.438 204.138 26.0247 203.639 26.472C203.14 26.912 202.484 27.132 201.67 27.132C200.863 27.132 200.211 26.9157 199.712 26.483C199.221 26.0503 198.975 25.482 198.975 24.778C198.975 24.3013 199.096 23.898 199.338 23.568C199.587 23.2307 199.936 22.9923 200.383 22.853ZM201.703 20.213C201.322 20.213 201.017 20.3157 200.79 20.521C200.57 20.719 200.46 20.9867 200.46 21.324C200.46 21.6613 200.574 21.9327 200.801 22.138C201.028 22.3433 201.325 22.446 201.692 22.446C202.059 22.446 202.352 22.347 202.572 22.149C202.792 21.9437 202.902 21.6687 202.902 21.324C202.902 20.9867 202.792 20.719 202.572 20.521C202.359 20.3157 202.07 20.213 201.703 20.213ZM201.67 23.348C201.245 23.348 200.9 23.4763 200.636 23.733C200.372 23.9823 200.24 24.3087 200.24 24.712C200.24 25.152 200.372 25.5003 200.636 25.757C200.9 26.0137 201.259 26.142 201.714 26.142C202.154 26.142 202.499 26.021 202.748 25.779C202.997 25.5297 203.122 25.185 203.122 24.745C203.122 24.3197 202.99 23.9823 202.726 23.733C202.462 23.4763 202.11 23.348 201.67 23.348Z" fill="white"/>
<path d="M100.511 58.889V60H95.253C95.2603 59.6553 95.308 59.34 95.396 59.054C95.484 58.768 95.583 58.526 95.693 58.328C95.8103 58.1227 95.979 57.9173 96.199 57.712C96.4263 57.4993 96.628 57.327 96.804 57.195C96.9873 57.0557 97.2367 56.8797 97.552 56.667C97.574 56.6523 97.6803 56.5827 97.871 56.458C98.069 56.326 98.19 56.2453 98.234 56.216C98.278 56.1793 98.377 56.1023 98.531 55.985C98.685 55.8603 98.784 55.7613 98.828 55.688C98.8793 55.6147 98.9453 55.5157 99.026 55.391C99.114 55.2663 99.1727 55.1417 99.202 55.017C99.2313 54.885 99.246 54.7457 99.246 54.599C99.246 54.1957 99.1323 53.8803 98.905 53.653C98.685 53.4183 98.3843 53.301 98.003 53.301C97.783 53.301 97.5923 53.3377 97.431 53.411C97.2697 53.477 97.1413 53.565 97.046 53.675C96.958 53.785 96.8847 53.928 96.826 54.104C96.7673 54.2727 96.727 54.434 96.705 54.588C96.6903 54.742 96.6793 54.9217 96.672 55.127H95.451V54.929C95.451 54.1003 95.682 53.444 96.144 52.96C96.6133 52.4687 97.244 52.223 98.036 52.223C98.784 52.223 99.3853 52.4357 99.84 52.861C100.295 53.279 100.522 53.8363 100.522 54.533C100.522 54.8117 100.478 55.0757 100.39 55.325C100.302 55.5743 100.207 55.776 100.104 55.93C100.009 56.084 99.84 56.2637 99.598 56.469C99.356 56.6743 99.1763 56.8173 99.059 56.898C98.9417 56.9787 98.7253 57.1253 98.41 57.338C97.4933 57.932 96.9433 58.449 96.76 58.889H100.511ZM104.148 52.234C105.938 52.234 106.832 53.565 106.832 56.227C106.832 57.5103 106.609 58.4857 106.161 59.153C105.714 59.8203 105.058 60.154 104.192 60.154C102.403 60.154 101.508 58.8377 101.508 56.205C101.508 54.907 101.732 53.9207 102.179 53.246C102.627 52.5713 103.283 52.234 104.148 52.234ZM104.159 53.29C103.939 53.29 103.749 53.334 103.587 53.422C103.426 53.5027 103.294 53.631 103.191 53.807C103.096 53.9757 103.019 54.148 102.96 54.324C102.902 54.4927 102.858 54.709 102.828 54.973C102.806 55.237 102.792 55.457 102.784 55.633C102.777 55.8017 102.773 56.018 102.773 56.282C102.773 57.272 102.883 57.9907 103.103 58.438C103.331 58.8853 103.69 59.109 104.181 59.109C104.372 59.109 104.541 59.0723 104.687 58.999C104.841 58.9183 104.966 58.823 105.061 58.713C105.157 58.603 105.237 58.4563 105.303 58.273C105.369 58.0897 105.417 57.9247 105.446 57.778C105.483 57.624 105.509 57.437 105.523 57.217C105.545 56.9897 105.556 56.8173 105.556 56.7C105.564 56.5753 105.567 56.4177 105.567 56.227C105.567 55.9777 105.564 55.787 105.556 55.655C105.556 55.5157 105.545 55.3103 105.523 55.039C105.501 54.7603 105.457 54.5367 105.391 54.368C105.333 54.1993 105.252 54.0233 105.149 53.84C105.054 53.6567 104.922 53.521 104.753 53.433C104.585 53.3377 104.387 53.29 104.159 53.29ZM112.736 58.889V60H107.478C107.485 59.6553 107.533 59.34 107.621 59.054C107.709 58.768 107.808 58.526 107.918 58.328C108.035 58.1227 108.204 57.9173 108.424 57.712C108.651 57.4993 108.853 57.327 109.029 57.195C109.212 57.0557 109.461 56.8797 109.777 56.667C109.799 56.6523 109.905 56.5827 110.096 56.458C110.294 56.326 110.415 56.2453 110.459 56.216C110.503 56.1793 110.602 56.1023 110.756 55.985C110.91 55.8603 111.009 55.7613 111.053 55.688C111.104 55.6147 111.17 55.5157 111.251 55.391C111.339 55.2663 111.397 55.1417 111.427 55.017C111.456 54.885 111.471 54.7457 111.471 54.599C111.471 54.1957 111.357 53.8803 111.13 53.653C110.91 53.4183 110.609 53.301 110.228 53.301C110.008 53.301 109.817 53.3377 109.656 53.411C109.494 53.477 109.366 53.565 109.271 53.675C109.183 53.785 109.109 53.928 109.051 54.104C108.992 54.2727 108.952 54.434 108.93 54.588C108.915 54.742 108.904 54.9217 108.897 55.127H107.676V54.929C107.676 54.1003 107.907 53.444 108.369 52.96C108.838 52.4687 109.469 52.223 110.261 52.223C111.009 52.223 111.61 52.4357 112.065 52.861C112.519 53.279 112.747 53.8363 112.747 54.533C112.747 54.8117 112.703 55.0757 112.615 55.325C112.527 55.5743 112.431 55.776 112.329 55.93C112.233 56.084 112.065 56.2637 111.823 56.469C111.581 56.6743 111.401 56.8173 111.284 56.898C111.166 56.9787 110.95 57.1253 110.635 57.338C109.718 57.932 109.168 58.449 108.985 58.889H112.736ZM121.909 58.889V60H116.651C116.659 59.6553 116.706 59.34 116.794 59.054C116.882 58.768 116.981 58.526 117.091 58.328C117.209 58.1227 117.377 57.9173 117.597 57.712C117.825 57.4993 118.026 57.327 118.202 57.195C118.386 57.0557 118.635 56.8797 118.95 56.667C118.972 56.6523 119.079 56.5827 119.269 56.458C119.467 56.326 119.588 56.2453 119.632 56.216C119.676 56.1793 119.775 56.1023 119.929 55.985C120.083 55.8603 120.182 55.7613 120.226 55.688C120.278 55.6147 120.344 55.5157 120.424 55.391C120.512 55.2663 120.571 55.1417 120.6 55.017C120.63 54.885 120.644 54.7457 120.644 54.599C120.644 54.1957 120.531 53.8803 120.303 53.653C120.083 53.4183 119.783 53.301 119.401 53.301C119.181 53.301 118.991 53.3377 118.829 53.411C118.668 53.477 118.54 53.565 118.444 53.675C118.356 53.785 118.283 53.928 118.224 54.104C118.166 54.2727 118.125 54.434 118.103 54.588C118.089 54.742 118.078 54.9217 118.07 55.127H116.849V54.929C116.849 54.1003 117.08 53.444 117.542 52.96C118.012 52.4687 118.642 52.223 119.434 52.223C120.182 52.223 120.784 52.4357 121.238 52.861C121.693 53.279 121.92 53.8363 121.92 54.533C121.92 54.8117 121.876 55.0757 121.788 55.325C121.7 55.5743 121.605 55.776 121.502 55.93C121.407 56.084 121.238 56.2637 120.996 56.469C120.754 56.6743 120.575 56.8173 120.457 56.898C120.34 56.9787 120.124 57.1253 119.808 57.338C118.892 57.932 118.342 58.449 118.158 58.889H121.909ZM122.995 58.086H124.205C124.234 58.4013 124.355 58.658 124.568 58.856C124.78 59.054 125.063 59.153 125.415 59.153C126.346 59.153 126.852 58.2547 126.933 56.458C126.515 57.1107 125.943 57.437 125.217 57.437C124.527 57.437 123.959 57.2023 123.512 56.733C123.064 56.2563 122.841 55.6477 122.841 54.907C122.841 54.1223 123.086 53.477 123.578 52.971C124.069 52.4577 124.696 52.201 125.459 52.201C125.877 52.201 126.247 52.278 126.57 52.432C126.9 52.586 127.164 52.7877 127.362 53.037C127.56 53.279 127.721 53.5723 127.846 53.917C127.978 54.2543 128.066 54.5917 128.11 54.929C128.161 55.2663 128.187 55.622 128.187 55.996C128.187 56.502 128.139 56.986 128.044 57.448C127.956 57.9027 127.809 58.3427 127.604 58.768C127.406 59.186 127.112 59.5233 126.724 59.78C126.335 60.0293 125.877 60.154 125.349 60.154C124.696 60.154 124.146 59.9597 123.699 59.571C123.259 59.1823 123.024 58.6873 122.995 58.086ZM125.415 53.257C125.019 53.257 124.7 53.4073 124.458 53.708C124.223 54.0013 124.106 54.39 124.106 54.874C124.106 55.3507 124.227 55.7283 124.469 56.007C124.711 56.2857 125.033 56.425 125.437 56.425C125.84 56.425 126.166 56.282 126.416 55.996C126.665 55.71 126.79 55.336 126.79 54.874C126.79 54.3827 126.665 53.9903 126.416 53.697C126.166 53.4037 125.833 53.257 125.415 53.257ZM129.107 58.086H130.317C130.346 58.4013 130.467 58.658 130.68 58.856C130.893 59.054 131.175 59.153 131.527 59.153C132.458 59.153 132.964 58.2547 133.045 56.458C132.627 57.1107 132.055 57.437 131.329 57.437C130.64 57.437 130.071 57.2023 129.624 56.733C129.177 56.2563 128.953 55.6477 128.953 54.907C128.953 54.1223 129.199 53.477 129.69 52.971C130.181 52.4577 130.808 52.201 131.571 52.201C131.989 52.201 132.359 52.278 132.682 52.432C133.012 52.586 133.276 52.7877 133.474 53.037C133.672 53.279 133.833 53.5723 133.958 53.917C134.09 54.2543 134.178 54.5917 134.222 54.929C134.273 55.2663 134.299 55.622 134.299 55.996C134.299 56.502 134.251 56.986 134.156 57.448C134.068 57.9027 133.921 58.3427 133.716 58.768C133.518 59.186 133.225 59.5233 132.836 59.78C132.447 60.0293 131.989 60.154 131.461 60.154C130.808 60.154 130.258 59.9597 129.811 59.571C129.371 59.1823 129.136 58.6873 129.107 58.086ZM131.527 53.257C131.131 53.257 130.812 53.4073 130.57 53.708C130.335 54.0013 130.218 54.39 130.218 54.874C130.218 55.3507 130.339 55.7283 130.581 56.007C130.823 56.2857 131.146 56.425 131.549 56.425C131.952 56.425 132.279 56.282 132.528 55.996C132.777 55.71 132.902 55.336 132.902 54.874C132.902 54.3827 132.777 53.9903 132.528 53.697C132.279 53.4037 131.945 53.257 131.527 53.257Z" fill="white"/>
<path d="M23.511 10.889V12H18.253C18.2603 11.6553 18.308 11.34 18.396 11.054C18.484 10.768 18.583 10.526 18.693 10.328C18.8103 10.1227 18.979 9.91733 19.199 9.712C19.4263 9.49933 19.628 9.327 19.804 9.195C19.9873 9.05567 20.2367 8.87967 20.552 8.667C20.574 8.65233 20.6803 8.58267 20.871 8.458C21.069 8.326 21.19 8.24533 21.234 8.216C21.278 8.17933 21.377 8.10233 21.531 7.985C21.685 7.86033 21.784 7.76133 21.828 7.688C21.8793 7.61467 21.9453 7.51567 22.026 7.391C22.114 7.26633 22.1727 7.14167 22.202 7.017C22.2313 6.885 22.246 6.74567 22.246 6.599C22.246 6.19567 22.1323 5.88033 21.905 5.653C21.685 5.41833 21.3843 5.301 21.003 5.301C20.783 5.301 20.5923 5.33767 20.431 5.411C20.2697 5.477 20.1413 5.565 20.046 5.675C19.958 5.785 19.8847 5.928 19.826 6.104C19.7673 6.27267 19.727 6.434 19.705 6.588C19.6903 6.742 19.6793 6.92167 19.672 7.127H18.451V6.929C18.451 6.10033 18.682 5.444 19.144 4.96C19.6133 4.46867 20.244 4.223 21.036 4.223C21.784 4.223 22.3853 4.43567 22.84 4.861C23.2947 5.279 23.522 5.83633 23.522 6.533C23.522 6.81167 23.478 7.07567 23.39 7.325C23.302 7.57433 23.2067 7.776 23.104 7.93C23.0087 8.084 22.84 8.26367 22.598 8.469C22.356 8.67433 22.1763 8.81733 22.059 8.898C21.9417 8.97867 21.7253 9.12533 21.41 9.338C20.4933 9.932 19.9433 10.449 19.76 10.889H23.511ZM27.1483 4.234C28.9376 4.234 29.8323 5.565 29.8323 8.227C29.8323 9.51033 29.6086 10.4857 29.1613 11.153C28.714 11.8203 28.0576 12.154 27.1923 12.154C25.403 12.154 24.5083 10.8377 24.5083 8.205C24.5083 6.907 24.732 5.92067 25.1793 5.246C25.6266 4.57133 26.283 4.234 27.1483 4.234ZM27.1593 5.29C26.9393 5.29 26.7486 5.334 26.5873 5.422C26.426 5.50267 26.294 5.631 26.1913 5.807C26.096 5.97567 26.019 6.148 25.9603 6.324C25.9016 6.49267 25.8576 6.709 25.8283 6.973C25.8063 7.237 25.7916 7.457 25.7843 7.633C25.777 7.80167 25.7733 8.018 25.7733 8.282C25.7733 9.272 25.8833 9.99067 26.1033 10.438C26.3306 10.8853 26.69 11.109 27.1813 11.109C27.372 11.109 27.5406 11.0723 27.6873 10.999C27.8413 10.9183 27.966 10.823 28.0613 10.713C28.1566 10.603 28.2373 10.4563 28.3033 10.273C28.3693 10.0897 28.417 9.92467 28.4463 9.778C28.483 9.624 28.5086 9.437 28.5233 9.217C28.5453 8.98967 28.5563 8.81733 28.5563 8.7C28.5636 8.57533 28.5673 8.41767 28.5673 8.227C28.5673 7.97767 28.5636 7.787 28.5563 7.655C28.5563 7.51567 28.5453 7.31033 28.5233 7.039C28.5013 6.76033 28.4573 6.53667 28.3913 6.368C28.3326 6.19933 28.252 6.02333 28.1493 5.84C28.054 5.65667 27.922 5.521 27.7533 5.433C27.5846 5.33767 27.3866 5.29 27.1593 5.29ZM35.8786 4.344V5.4C35.0793 6.19933 34.4229 7.21133 33.9096 8.436C33.3963 9.65333 33.1176 10.8413 33.0736 12H31.6986C31.7279 10.9587 32.0323 9.79633 32.6116 8.513C33.1909 7.22233 33.8656 6.21767 34.6356 5.499H30.6316V4.344H35.8786ZM44.9754 6.258H43.7654C43.6334 5.554 43.2448 5.202 42.5994 5.202C42.4161 5.202 42.2474 5.23867 42.0934 5.312C41.9394 5.38533 41.8111 5.46967 41.7084 5.565C41.6058 5.66033 41.5141 5.79967 41.4334 5.983C41.3528 6.159 41.2904 6.30933 41.2464 6.434C41.2098 6.55133 41.1694 6.72367 41.1254 6.951C41.0888 7.17833 41.0668 7.336 41.0594 7.424C41.0521 7.512 41.0374 7.65867 41.0154 7.864C41.4408 7.23333 42.0274 6.918 42.7754 6.918C43.4868 6.918 44.0588 7.15267 44.4914 7.622C44.9314 8.09133 45.1514 8.70367 45.1514 9.459C45.1514 10.2437 44.9058 10.889 44.4144 11.395C43.9304 11.901 43.3108 12.154 42.5554 12.154C41.6681 12.154 40.9861 11.8203 40.5094 11.153C40.0328 10.4857 39.7944 9.53233 39.7944 8.293C39.7944 7.00967 40.0474 6.00867 40.5534 5.29C41.0594 4.57133 41.7598 4.212 42.6544 4.212C43.3071 4.212 43.8388 4.39167 44.2494 4.751C44.6601 5.11033 44.9021 5.61267 44.9754 6.258ZM42.5224 7.919C42.1118 7.919 41.7854 8.062 41.5434 8.348C41.3014 8.62667 41.1804 9.00067 41.1804 9.47C41.1804 9.96133 41.3051 10.3573 41.5544 10.658C41.8111 10.9587 42.1448 11.109 42.5554 11.109C42.9588 11.109 43.2814 10.9623 43.5234 10.669C43.7728 10.3757 43.8974 9.987 43.8974 9.503C43.8974 9.02633 43.7728 8.645 43.5234 8.359C43.2741 8.06567 42.9404 7.919 42.5224 7.919ZM48.5467 4.234C50.3361 4.234 51.2307 5.565 51.2307 8.227C51.2307 9.51033 51.0071 10.4857 50.5597 11.153C50.1124 11.8203 49.4561 12.154 48.5907 12.154C46.8014 12.154 45.9067 10.8377 45.9067 8.205C45.9067 6.907 46.1304 5.92067 46.5777 5.246C47.0251 4.57133 47.6814 4.234 48.5467 4.234ZM48.5577 5.29C48.3377 5.29 48.1471 5.334 47.9857 5.422C47.8244 5.50267 47.6924 5.631 47.5897 5.807C47.4944 5.97567 47.4174 6.148 47.3587 6.324C47.3001 6.49267 47.2561 6.709 47.2267 6.973C47.2047 7.237 47.1901 7.457 47.1827 7.633C47.1754 7.80167 47.1717 8.018 47.1717 8.282C47.1717 9.272 47.2817 9.99067 47.5017 10.438C47.7291 10.8853 48.0884 11.109 48.5797 11.109C48.7704 11.109 48.9391 11.0723 49.0857 10.999C49.2397 10.9183 49.3644 10.823 49.4597 10.713C49.5551 10.603 49.6357 10.4563 49.7017 10.273C49.7677 10.0897 49.8154 9.92467 49.8447 9.778C49.8814 9.624 49.9071 9.437 49.9217 9.217C49.9437 8.98967 49.9547 8.81733 49.9547 8.7C49.9621 8.57533 49.9657 8.41767 49.9657 8.227C49.9657 7.97767 49.9621 7.787 49.9547 7.655C49.9547 7.51567 49.9437 7.31033 49.9217 7.039C49.8997 6.76033 49.8557 6.53667 49.7897 6.368C49.7311 6.19933 49.6504 6.02333 49.5477 5.84C49.4524 5.65667 49.3204 5.521 49.1517 5.433C48.9831 5.33767 48.7851 5.29 48.5577 5.29ZM53.383 7.853C53.0384 7.72833 52.767 7.52667 52.569 7.248C52.3784 6.962 52.283 6.62833 52.283 6.247C52.283 5.64567 52.5067 5.15433 52.954 4.773C53.4087 4.39167 53.9954 4.201 54.714 4.201C55.4034 4.201 55.968 4.39167 56.408 4.773C56.848 5.147 57.068 5.62733 57.068 6.214C57.068 6.99867 56.705 7.545 55.979 7.853C56.4484 8.01433 56.8004 8.24167 57.035 8.535C57.2697 8.82833 57.387 9.22067 57.387 9.712C57.387 10.438 57.1377 11.0247 56.639 11.472C56.1404 11.912 55.484 12.132 54.67 12.132C53.8634 12.132 53.2107 11.9157 52.712 11.483C52.2207 11.0503 51.975 10.482 51.975 9.778C51.975 9.30133 52.096 8.898 52.338 8.568C52.5874 8.23067 52.9357 7.99233 53.383 7.853ZM54.703 5.213C54.3217 5.213 54.0174 5.31567 53.79 5.521C53.57 5.719 53.46 5.98667 53.46 6.324C53.46 6.66133 53.5737 6.93267 53.801 7.138C54.0284 7.34333 54.3254 7.446 54.692 7.446C55.0587 7.446 55.352 7.347 55.572 7.149C55.792 6.94367 55.902 6.66867 55.902 6.324C55.902 5.98667 55.792 5.719 55.572 5.521C55.3594 5.31567 55.0697 5.213 54.703 5.213ZM54.67 8.348C54.2447 8.348 53.9 8.47633 53.636 8.733C53.372 8.98233 53.24 9.30867 53.24 9.712C53.24 10.152 53.372 10.5003 53.636 10.757C53.9 11.0137 54.2594 11.142 54.714 11.142C55.154 11.142 55.4987 11.021 55.748 10.779C55.9974 10.5297 56.122 10.185 56.122 9.745C56.122 9.31967 55.99 8.98233 55.726 8.733C55.462 8.47633 55.11 8.348 54.67 8.348Z" fill="white"/>
<path d="M178.511 113.889V115H173.253C173.26 114.655 173.308 114.34 173.396 114.054C173.484 113.768 173.583 113.526 173.693 113.328C173.81 113.123 173.979 112.917 174.199 112.712C174.426 112.499 174.628 112.327 174.804 112.195C174.987 112.056 175.237 111.88 175.552 111.667C175.574 111.652 175.68 111.583 175.871 111.458C176.069 111.326 176.19 111.245 176.234 111.216C176.278 111.179 176.377 111.102 176.531 110.985C176.685 110.86 176.784 110.761 176.828 110.688C176.879 110.615 176.945 110.516 177.026 110.391C177.114 110.266 177.173 110.142 177.202 110.017C177.231 109.885 177.246 109.746 177.246 109.599C177.246 109.196 177.132 108.88 176.905 108.653C176.685 108.418 176.384 108.301 176.003 108.301C175.783 108.301 175.592 108.338 175.431 108.411C175.27 108.477 175.141 108.565 175.046 108.675C174.958 108.785 174.885 108.928 174.826 109.104C174.767 109.273 174.727 109.434 174.705 109.588C174.69 109.742 174.679 109.922 174.672 110.127H173.451V109.929C173.451 109.1 173.682 108.444 174.144 107.96C174.613 107.469 175.244 107.223 176.036 107.223C176.784 107.223 177.385 107.436 177.84 107.861C178.295 108.279 178.522 108.836 178.522 109.533C178.522 109.812 178.478 110.076 178.39 110.325C178.302 110.574 178.207 110.776 178.104 110.93C178.009 111.084 177.84 111.264 177.598 111.469C177.356 111.674 177.176 111.817 177.059 111.898C176.942 111.979 176.725 112.125 176.41 112.338C175.493 112.932 174.943 113.449 174.76 113.889H178.511ZM182.148 107.234C183.938 107.234 184.832 108.565 184.832 111.227C184.832 112.51 184.609 113.486 184.161 114.153C183.714 114.82 183.058 115.154 182.192 115.154C180.403 115.154 179.508 113.838 179.508 111.205C179.508 109.907 179.732 108.921 180.179 108.246C180.627 107.571 181.283 107.234 182.148 107.234ZM182.159 108.29C181.939 108.29 181.749 108.334 181.587 108.422C181.426 108.503 181.294 108.631 181.191 108.807C181.096 108.976 181.019 109.148 180.96 109.324C180.902 109.493 180.858 109.709 180.828 109.973C180.806 110.237 180.792 110.457 180.784 110.633C180.777 110.802 180.773 111.018 180.773 111.282C180.773 112.272 180.883 112.991 181.103 113.438C181.331 113.885 181.69 114.109 182.181 114.109C182.372 114.109 182.541 114.072 182.687 113.999C182.841 113.918 182.966 113.823 183.061 113.713C183.157 113.603 183.237 113.456 183.303 113.273C183.369 113.09 183.417 112.925 183.446 112.778C183.483 112.624 183.509 112.437 183.523 112.217C183.545 111.99 183.556 111.817 183.556 111.7C183.564 111.575 183.567 111.418 183.567 111.227C183.567 110.978 183.564 110.787 183.556 110.655C183.556 110.516 183.545 110.31 183.523 110.039C183.501 109.76 183.457 109.537 183.391 109.368C183.333 109.199 183.252 109.023 183.149 108.84C183.054 108.657 182.922 108.521 182.753 108.433C182.585 108.338 182.387 108.29 182.159 108.29ZM190.736 113.889V115H185.478C185.485 114.655 185.533 114.34 185.621 114.054C185.709 113.768 185.808 113.526 185.918 113.328C186.035 113.123 186.204 112.917 186.424 112.712C186.651 112.499 186.853 112.327 187.029 112.195C187.212 112.056 187.461 111.88 187.777 111.667C187.799 111.652 187.905 111.583 188.096 111.458C188.294 111.326 188.415 111.245 188.459 111.216C188.503 111.179 188.602 111.102 188.756 110.985C188.91 110.86 189.009 110.761 189.053 110.688C189.104 110.615 189.17 110.516 189.251 110.391C189.339 110.266 189.397 110.142 189.427 110.017C189.456 109.885 189.471 109.746 189.471 109.599C189.471 109.196 189.357 108.88 189.13 108.653C188.91 108.418 188.609 108.301 188.228 108.301C188.008 108.301 187.817 108.338 187.656 108.411C187.494 108.477 187.366 108.565 187.271 108.675C187.183 108.785 187.109 108.928 187.051 109.104C186.992 109.273 186.952 109.434 186.93 109.588C186.915 109.742 186.904 109.922 186.897 110.127H185.676V109.929C185.676 109.1 185.907 108.444 186.369 107.96C186.838 107.469 187.469 107.223 188.261 107.223C189.009 107.223 189.61 107.436 190.065 107.861C190.519 108.279 190.747 108.836 190.747 109.533C190.747 109.812 190.703 110.076 190.615 110.325C190.527 110.574 190.431 110.776 190.329 110.93C190.233 111.084 190.065 111.264 189.823 111.469C189.581 111.674 189.401 111.817 189.284 111.898C189.166 111.979 188.95 112.125 188.635 112.338C187.718 112.932 187.168 113.449 186.985 113.889H190.736ZM194.373 107.234C196.162 107.234 197.057 108.565 197.057 111.227C197.057 112.51 196.833 113.486 196.386 114.153C195.939 114.82 195.282 115.154 194.417 115.154C192.628 115.154 191.733 113.838 191.733 111.205C191.733 109.907 191.957 108.921 192.404 108.246C192.851 107.571 193.508 107.234 194.373 107.234ZM194.384 108.29C194.164 108.29 193.973 108.334 193.812 108.422C193.651 108.503 193.519 108.631 193.416 108.807C193.321 108.976 193.244 109.148 193.185 109.324C193.126 109.493 193.082 109.709 193.053 109.973C193.031 110.237 193.016 110.457 193.009 110.633C193.002 110.802 192.998 111.018 192.998 111.282C192.998 112.272 193.108 112.991 193.328 113.438C193.555 113.885 193.915 114.109 194.406 114.109C194.597 114.109 194.765 114.072 194.912 113.999C195.066 113.918 195.191 113.823 195.286 113.713C195.381 113.603 195.462 113.456 195.528 113.273C195.594 113.09 195.642 112.925 195.671 112.778C195.708 112.624 195.733 112.437 195.748 112.217C195.77 111.99 195.781 111.817 195.781 111.7C195.788 111.575 195.792 111.418 195.792 111.227C195.792 110.978 195.788 110.787 195.781 110.655C195.781 110.516 195.77 110.31 195.748 110.039C195.726 109.76 195.682 109.537 195.616 109.368C195.557 109.199 195.477 109.023 195.374 108.84C195.279 108.657 195.147 108.521 194.978 108.433C194.809 108.338 194.611 108.29 194.384 108.29Z" fill="#E0E0E0"/>
<path d="M103.511 113.889V115H98.253C98.2603 114.655 98.308 114.34 98.396 114.054C98.484 113.768 98.583 113.526 98.693 113.328C98.8103 113.123 98.979 112.917 99.199 112.712C99.4263 112.499 99.628 112.327 99.804 112.195C99.9873 112.056 100.237 111.88 100.552 111.667C100.574 111.652 100.68 111.583 100.871 111.458C101.069 111.326 101.19 111.245 101.234 111.216C101.278 111.179 101.377 111.102 101.531 110.985C101.685 110.86 101.784 110.761 101.828 110.688C101.879 110.615 101.945 110.516 102.026 110.391C102.114 110.266 102.173 110.142 102.202 110.017C102.231 109.885 102.246 109.746 102.246 109.599C102.246 109.196 102.132 108.88 101.905 108.653C101.685 108.418 101.384 108.301 101.003 108.301C100.783 108.301 100.592 108.338 100.431 108.411C100.27 108.477 100.141 108.565 100.046 108.675C99.958 108.785 99.8847 108.928 99.826 109.104C99.7673 109.273 99.727 109.434 99.705 109.588C99.6903 109.742 99.6793 109.922 99.672 110.127H98.451V109.929C98.451 109.1 98.682 108.444 99.144 107.96C99.6133 107.469 100.244 107.223 101.036 107.223C101.784 107.223 102.385 107.436 102.84 107.861C103.295 108.279 103.522 108.836 103.522 109.533C103.522 109.812 103.478 110.076 103.39 110.325C103.302 110.574 103.207 110.776 103.104 110.93C103.009 111.084 102.84 111.264 102.598 111.469C102.356 111.674 102.176 111.817 102.059 111.898C101.942 111.979 101.725 112.125 101.41 112.338C100.493 112.932 99.9433 113.449 99.76 113.889H103.511ZM107.148 107.234C108.938 107.234 109.832 108.565 109.832 111.227C109.832 112.51 109.609 113.486 109.161 114.153C108.714 114.82 108.058 115.154 107.192 115.154C105.403 115.154 104.508 113.838 104.508 111.205C104.508 109.907 104.732 108.921 105.179 108.246C105.627 107.571 106.283 107.234 107.148 107.234ZM107.159 108.29C106.939 108.29 106.749 108.334 106.587 108.422C106.426 108.503 106.294 108.631 106.191 108.807C106.096 108.976 106.019 109.148 105.96 109.324C105.902 109.493 105.858 109.709 105.828 109.973C105.806 110.237 105.792 110.457 105.784 110.633C105.777 110.802 105.773 111.018 105.773 111.282C105.773 112.272 105.883 112.991 106.103 113.438C106.331 113.885 106.69 114.109 107.181 114.109C107.372 114.109 107.541 114.072 107.687 113.999C107.841 113.918 107.966 113.823 108.061 113.713C108.157 113.603 108.237 113.456 108.303 113.273C108.369 113.09 108.417 112.925 108.446 112.778C108.483 112.624 108.509 112.437 108.523 112.217C108.545 111.99 108.556 111.817 108.556 111.7C108.564 111.575 108.567 111.418 108.567 111.227C108.567 110.978 108.564 110.787 108.556 110.655C108.556 110.516 108.545 110.31 108.523 110.039C108.501 109.76 108.457 109.537 108.391 109.368C108.333 109.199 108.252 109.023 108.149 108.84C108.054 108.657 107.922 108.521 107.753 108.433C107.585 108.338 107.387 108.29 107.159 108.29ZM114.372 107.256V115H113.03V109.676H111.116V108.752C112.45 108.752 113.198 108.253 113.36 107.256H114.372ZM116.821 113.086H118.031C118.06 113.401 118.181 113.658 118.394 113.856C118.607 114.054 118.889 114.153 119.241 114.153C120.172 114.153 120.678 113.255 120.759 111.458C120.341 112.111 119.769 112.437 119.043 112.437C118.354 112.437 117.785 112.202 117.338 111.733C116.891 111.256 116.667 110.648 116.667 109.907C116.667 109.122 116.913 108.477 117.404 107.971C117.895 107.458 118.522 107.201 119.285 107.201C119.703 107.201 120.073 107.278 120.396 107.432C120.726 107.586 120.99 107.788 121.188 108.037C121.386 108.279 121.547 108.572 121.672 108.917C121.804 109.254 121.892 109.592 121.936 109.929C121.987 110.266 122.013 110.622 122.013 110.996C122.013 111.502 121.965 111.986 121.87 112.448C121.782 112.903 121.635 113.343 121.43 113.768C121.232 114.186 120.939 114.523 120.55 114.78C120.161 115.029 119.703 115.154 119.175 115.154C118.522 115.154 117.972 114.96 117.525 114.571C117.085 114.182 116.85 113.687 116.821 113.086ZM119.241 108.257C118.845 108.257 118.526 108.407 118.284 108.708C118.049 109.001 117.932 109.39 117.932 109.874C117.932 110.351 118.053 110.728 118.295 111.007C118.537 111.286 118.86 111.425 119.263 111.425C119.666 111.425 119.993 111.282 120.242 110.996C120.491 110.71 120.616 110.336 120.616 109.874C120.616 109.383 120.491 108.99 120.242 108.697C119.993 108.404 119.659 108.257 119.241 108.257Z" fill="#E0E0E0"/>
<path d="M31.511 113.889V115H26.253C26.2603 114.655 26.308 114.34 26.396 114.054C26.484 113.768 26.583 113.526 26.693 113.328C26.8103 113.123 26.979 112.917 27.199 112.712C27.4263 112.499 27.628 112.327 27.804 112.195C27.9873 112.056 28.2367 111.88 28.552 111.667C28.574 111.652 28.6803 111.583 28.871 111.458C29.069 111.326 29.19 111.245 29.234 111.216C29.278 111.179 29.377 111.102 29.531 110.985C29.685 110.86 29.784 110.761 29.828 110.688C29.8793 110.615 29.9453 110.516 30.026 110.391C30.114 110.266 30.1727 110.142 30.202 110.017C30.2313 109.885 30.246 109.746 30.246 109.599C30.246 109.196 30.1323 108.88 29.905 108.653C29.685 108.418 29.3843 108.301 29.003 108.301C28.783 108.301 28.5923 108.338 28.431 108.411C28.2697 108.477 28.1413 108.565 28.046 108.675C27.958 108.785 27.8847 108.928 27.826 109.104C27.7673 109.273 27.727 109.434 27.705 109.588C27.6903 109.742 27.6793 109.922 27.672 110.127H26.451V109.929C26.451 109.1 26.682 108.444 27.144 107.96C27.6133 107.469 28.244 107.223 29.036 107.223C29.784 107.223 30.3853 107.436 30.84 107.861C31.2947 108.279 31.522 108.836 31.522 109.533C31.522 109.812 31.478 110.076 31.39 110.325C31.302 110.574 31.2067 110.776 31.104 110.93C31.0087 111.084 30.84 111.264 30.598 111.469C30.356 111.674 30.1763 111.817 30.059 111.898C29.9417 111.979 29.7253 112.125 29.41 112.338C28.4933 112.932 27.9433 113.449 27.76 113.889H31.511ZM35.1483 107.234C36.9376 107.234 37.8323 108.565 37.8323 111.227C37.8323 112.51 37.6086 113.486 37.1613 114.153C36.714 114.82 36.0576 115.154 35.1923 115.154C33.403 115.154 32.5083 113.838 32.5083 111.205C32.5083 109.907 32.732 108.921 33.1793 108.246C33.6266 107.571 34.283 107.234 35.1483 107.234ZM35.1593 108.29C34.9393 108.29 34.7486 108.334 34.5873 108.422C34.426 108.503 34.294 108.631 34.1913 108.807C34.096 108.976 34.019 109.148 33.9603 109.324C33.9016 109.493 33.8576 109.709 33.8283 109.973C33.8063 110.237 33.7916 110.457 33.7843 110.633C33.777 110.802 33.7733 111.018 33.7733 111.282C33.7733 112.272 33.8833 112.991 34.1033 113.438C34.3306 113.885 34.69 114.109 35.1813 114.109C35.372 114.109 35.5406 114.072 35.6873 113.999C35.8413 113.918 35.966 113.823 36.0613 113.713C36.1566 113.603 36.2373 113.456 36.3033 113.273C36.3693 113.09 36.417 112.925 36.4463 112.778C36.483 112.624 36.5086 112.437 36.5233 112.217C36.5453 111.99 36.5563 111.817 36.5563 111.7C36.5636 111.575 36.5673 111.418 36.5673 111.227C36.5673 110.978 36.5636 110.787 36.5563 110.655C36.5563 110.516 36.5453 110.31 36.5233 110.039C36.5013 109.76 36.4573 109.537 36.3913 109.368C36.3326 109.199 36.252 109.023 36.1493 108.84C36.054 108.657 35.922 108.521 35.7533 108.433C35.5846 108.338 35.3866 108.29 35.1593 108.29ZM42.3716 107.256V115H41.0296V109.676H39.1156V108.752C40.4503 108.752 41.1983 108.253 41.3596 107.256H42.3716ZM46.0969 110.853C45.7522 110.728 45.4809 110.527 45.2829 110.248C45.0922 109.962 44.9969 109.628 44.9969 109.247C44.9969 108.646 45.2206 108.154 45.6679 107.773C46.1226 107.392 46.7092 107.201 47.4279 107.201C48.1172 107.201 48.6819 107.392 49.1219 107.773C49.5619 108.147 49.7819 108.627 49.7819 109.214C49.7819 109.999 49.4189 110.545 48.6929 110.853C49.1622 111.014 49.5142 111.242 49.7489 111.535C49.9836 111.828 50.1009 112.221 50.1009 112.712C50.1009 113.438 49.8516 114.025 49.3529 114.472C48.8542 114.912 48.1979 115.132 47.3839 115.132C46.5772 115.132 45.9246 114.916 45.4259 114.483C44.9346 114.05 44.6889 113.482 44.6889 112.778C44.6889 112.301 44.8099 111.898 45.0519 111.568C45.3012 111.231 45.6496 110.992 46.0969 110.853ZM47.4169 108.213C47.0356 108.213 46.7312 108.316 46.5039 108.521C46.2839 108.719 46.1739 108.987 46.1739 109.324C46.1739 109.661 46.2876 109.933 46.5149 110.138C46.7422 110.343 47.0392 110.446 47.4059 110.446C47.7726 110.446 48.0659 110.347 48.2859 110.149C48.5059 109.944 48.6159 109.669 48.6159 109.324C48.6159 108.987 48.5059 108.719 48.2859 108.521C48.0732 108.316 47.7836 108.213 47.4169 108.213ZM47.3839 111.348C46.9586 111.348 46.6139 111.476 46.3499 111.733C46.0859 111.982 45.9539 112.309 45.9539 112.712C45.9539 113.152 46.0859 113.5 46.3499 113.757C46.6139 114.014 46.9732 114.142 47.4279 114.142C47.8679 114.142 48.2126 114.021 48.4619 113.779C48.7112 113.53 48.8359 113.185 48.8359 112.745C48.8359 112.32 48.7039 111.982 48.4399 111.733C48.1759 111.476 47.8239 111.348 47.3839 111.348Z" fill="#E0E0E0"/>
<defs>
<linearGradient id="paint0_linear" x1="116.566" y1="27.5" x2="116.5" y2="101.5" gradientUnits="userSpaceOnUse">
<stop stop-color="#FF9E5B" stop-opacity="0.3"/>
<stop offset="0.937025" stop-color="#FFCE84" stop-opacity="0"/>
</linearGradient>
</defs>
</svg>
