<svg width="223" height="118" viewBox="0 0 223 118" fill="none" xmlns="http://www.w3.org/2000/svg">
<path d="M111.5 81.5L38 22V95.5H185V36L111.5 81.5Z" fill="url(#paint0_linear)" fill-opacity="0.3"/>
<path d="M178.511 113.889V115H173.253C173.26 114.655 173.308 114.34 173.396 114.054C173.484 113.768 173.583 113.526 173.693 113.328C173.81 113.123 173.979 112.917 174.199 112.712C174.426 112.499 174.628 112.327 174.804 112.195C174.987 112.056 175.237 111.88 175.552 111.667C175.574 111.652 175.68 111.583 175.871 111.458C176.069 111.326 176.19 111.245 176.234 111.216C176.278 111.179 176.377 111.102 176.531 110.985C176.685 110.86 176.784 110.761 176.828 110.688C176.879 110.615 176.945 110.516 177.026 110.391C177.114 110.266 177.173 110.142 177.202 110.017C177.231 109.885 177.246 109.746 177.246 109.599C177.246 109.196 177.132 108.88 176.905 108.653C176.685 108.418 176.384 108.301 176.003 108.301C175.783 108.301 175.592 108.338 175.431 108.411C175.27 108.477 175.141 108.565 175.046 108.675C174.958 108.785 174.885 108.928 174.826 109.104C174.767 109.273 174.727 109.434 174.705 109.588C174.69 109.742 174.679 109.922 174.672 110.127H173.451V109.929C173.451 109.1 173.682 108.444 174.144 107.96C174.613 107.469 175.244 107.223 176.036 107.223C176.784 107.223 177.385 107.436 177.84 107.861C178.295 108.279 178.522 108.836 178.522 109.533C178.522 109.812 178.478 110.076 178.39 110.325C178.302 110.574 178.207 110.776 178.104 110.93C178.009 111.084 177.84 111.264 177.598 111.469C177.356 111.674 177.176 111.817 177.059 111.898C176.942 111.979 176.725 112.125 176.41 112.338C175.493 112.932 174.943 113.449 174.76 113.889H178.511ZM182.148 107.234C183.938 107.234 184.832 108.565 184.832 111.227C184.832 112.51 184.609 113.486 184.161 114.153C183.714 114.82 183.058 115.154 182.192 115.154C180.403 115.154 179.508 113.838 179.508 111.205C179.508 109.907 179.732 108.921 180.179 108.246C180.627 107.571 181.283 107.234 182.148 107.234ZM182.159 108.29C181.939 108.29 181.749 108.334 181.587 108.422C181.426 108.503 181.294 108.631 181.191 108.807C181.096 108.976 181.019 109.148 180.96 109.324C180.902 109.493 180.858 109.709 180.828 109.973C180.806 110.237 180.792 110.457 180.784 110.633C180.777 110.802 180.773 111.018 180.773 111.282C180.773 112.272 180.883 112.991 181.103 113.438C181.331 113.885 181.69 114.109 182.181 114.109C182.372 114.109 182.541 114.072 182.687 113.999C182.841 113.918 182.966 113.823 183.061 113.713C183.157 113.603 183.237 113.456 183.303 113.273C183.369 113.09 183.417 112.925 183.446 112.778C183.483 112.624 183.509 112.437 183.523 112.217C183.545 111.99 183.556 111.817 183.556 111.7C183.564 111.575 183.567 111.418 183.567 111.227C183.567 110.978 183.564 110.787 183.556 110.655C183.556 110.516 183.545 110.31 183.523 110.039C183.501 109.76 183.457 109.537 183.391 109.368C183.333 109.199 183.252 109.023 183.149 108.84C183.054 108.657 182.922 108.521 182.753 108.433C182.585 108.338 182.387 108.29 182.159 108.29ZM190.736 113.889V115H185.478C185.485 114.655 185.533 114.34 185.621 114.054C185.709 113.768 185.808 113.526 185.918 113.328C186.035 113.123 186.204 112.917 186.424 112.712C186.651 112.499 186.853 112.327 187.029 112.195C187.212 112.056 187.461 111.88 187.777 111.667C187.799 111.652 187.905 111.583 188.096 111.458C188.294 111.326 188.415 111.245 188.459 111.216C188.503 111.179 188.602 111.102 188.756 110.985C188.91 110.86 189.009 110.761 189.053 110.688C189.104 110.615 189.17 110.516 189.251 110.391C189.339 110.266 189.397 110.142 189.427 110.017C189.456 109.885 189.471 109.746 189.471 109.599C189.471 109.196 189.357 108.88 189.13 108.653C188.91 108.418 188.609 108.301 188.228 108.301C188.008 108.301 187.817 108.338 187.656 108.411C187.494 108.477 187.366 108.565 187.271 108.675C187.183 108.785 187.109 108.928 187.051 109.104C186.992 109.273 186.952 109.434 186.93 109.588C186.915 109.742 186.904 109.922 186.897 110.127H185.676V109.929C185.676 109.1 185.907 108.444 186.369 107.96C186.838 107.469 187.469 107.223 188.261 107.223C189.009 107.223 189.61 107.436 190.065 107.861C190.519 108.279 190.747 108.836 190.747 109.533C190.747 109.812 190.703 110.076 190.615 110.325C190.527 110.574 190.431 110.776 190.329 110.93C190.233 111.084 190.065 111.264 189.823 111.469C189.581 111.674 189.401 111.817 189.284 111.898C189.166 111.979 188.95 112.125 188.635 112.338C187.718 112.932 187.168 113.449 186.985 113.889H190.736ZM194.373 107.234C196.162 107.234 197.057 108.565 197.057 111.227C197.057 112.51 196.833 113.486 196.386 114.153C195.939 114.82 195.282 115.154 194.417 115.154C192.628 115.154 191.733 113.838 191.733 111.205C191.733 109.907 191.957 108.921 192.404 108.246C192.851 107.571 193.508 107.234 194.373 107.234ZM194.384 108.29C194.164 108.29 193.973 108.334 193.812 108.422C193.651 108.503 193.519 108.631 193.416 108.807C193.321 108.976 193.244 109.148 193.185 109.324C193.126 109.493 193.082 109.709 193.053 109.973C193.031 110.237 193.016 110.457 193.009 110.633C193.002 110.802 192.998 111.018 192.998 111.282C192.998 112.272 193.108 112.991 193.328 113.438C193.555 113.885 193.915 114.109 194.406 114.109C194.597 114.109 194.765 114.072 194.912 113.999C195.066 113.918 195.191 113.823 195.286 113.713C195.381 113.603 195.462 113.456 195.528 113.273C195.594 113.09 195.642 112.925 195.671 112.778C195.708 112.624 195.733 112.437 195.748 112.217C195.77 111.99 195.781 111.817 195.781 111.7C195.788 111.575 195.792 111.418 195.792 111.227C195.792 110.978 195.788 110.787 195.781 110.655C195.781 110.516 195.77 110.31 195.748 110.039C195.726 109.76 195.682 109.537 195.616 109.368C195.557 109.199 195.477 109.023 195.374 108.84C195.279 108.657 195.147 108.521 194.978 108.433C194.809 108.338 194.611 108.29 194.384 108.29Z" fill="#CCCCCC"/>
<path d="M103.511 113.889V115H98.253C98.2603 114.655 98.308 114.34 98.396 114.054C98.484 113.768 98.583 113.526 98.693 113.328C98.8103 113.123 98.979 112.917 99.199 112.712C99.4263 112.499 99.628 112.327 99.804 112.195C99.9873 112.056 100.237 111.88 100.552 111.667C100.574 111.652 100.68 111.583 100.871 111.458C101.069 111.326 101.19 111.245 101.234 111.216C101.278 111.179 101.377 111.102 101.531 110.985C101.685 110.86 101.784 110.761 101.828 110.688C101.879 110.615 101.945 110.516 102.026 110.391C102.114 110.266 102.173 110.142 102.202 110.017C102.231 109.885 102.246 109.746 102.246 109.599C102.246 109.196 102.132 108.88 101.905 108.653C101.685 108.418 101.384 108.301 101.003 108.301C100.783 108.301 100.592 108.338 100.431 108.411C100.27 108.477 100.141 108.565 100.046 108.675C99.958 108.785 99.8847 108.928 99.826 109.104C99.7673 109.273 99.727 109.434 99.705 109.588C99.6903 109.742 99.6793 109.922 99.672 110.127H98.451V109.929C98.451 109.1 98.682 108.444 99.144 107.96C99.6133 107.469 100.244 107.223 101.036 107.223C101.784 107.223 102.385 107.436 102.84 107.861C103.295 108.279 103.522 108.836 103.522 109.533C103.522 109.812 103.478 110.076 103.39 110.325C103.302 110.574 103.207 110.776 103.104 110.93C103.009 111.084 102.84 111.264 102.598 111.469C102.356 111.674 102.176 111.817 102.059 111.898C101.942 111.979 101.725 112.125 101.41 112.338C100.493 112.932 99.9433 113.449 99.76 113.889H103.511ZM107.148 107.234C108.938 107.234 109.832 108.565 109.832 111.227C109.832 112.51 109.609 113.486 109.161 114.153C108.714 114.82 108.058 115.154 107.192 115.154C105.403 115.154 104.508 113.838 104.508 111.205C104.508 109.907 104.732 108.921 105.179 108.246C105.627 107.571 106.283 107.234 107.148 107.234ZM107.159 108.29C106.939 108.29 106.749 108.334 106.587 108.422C106.426 108.503 106.294 108.631 106.191 108.807C106.096 108.976 106.019 109.148 105.96 109.324C105.902 109.493 105.858 109.709 105.828 109.973C105.806 110.237 105.792 110.457 105.784 110.633C105.777 110.802 105.773 111.018 105.773 111.282C105.773 112.272 105.883 112.991 106.103 113.438C106.331 113.885 106.69 114.109 107.181 114.109C107.372 114.109 107.541 114.072 107.687 113.999C107.841 113.918 107.966 113.823 108.061 113.713C108.157 113.603 108.237 113.456 108.303 113.273C108.369 113.09 108.417 112.925 108.446 112.778C108.483 112.624 108.509 112.437 108.523 112.217C108.545 111.99 108.556 111.817 108.556 111.7C108.564 111.575 108.567 111.418 108.567 111.227C108.567 110.978 108.564 110.787 108.556 110.655C108.556 110.516 108.545 110.31 108.523 110.039C108.501 109.76 108.457 109.537 108.391 109.368C108.333 109.199 108.252 109.023 108.149 108.84C108.054 108.657 107.922 108.521 107.753 108.433C107.585 108.338 107.387 108.29 107.159 108.29ZM114.372 107.256V115H113.03V109.676H111.116V108.752C112.45 108.752 113.198 108.253 113.36 107.256H114.372ZM116.821 113.086H118.031C118.06 113.401 118.181 113.658 118.394 113.856C118.607 114.054 118.889 114.153 119.241 114.153C120.172 114.153 120.678 113.255 120.759 111.458C120.341 112.111 119.769 112.437 119.043 112.437C118.354 112.437 117.785 112.202 117.338 111.733C116.891 111.256 116.667 110.648 116.667 109.907C116.667 109.122 116.913 108.477 117.404 107.971C117.895 107.458 118.522 107.201 119.285 107.201C119.703 107.201 120.073 107.278 120.396 107.432C120.726 107.586 120.99 107.788 121.188 108.037C121.386 108.279 121.547 108.572 121.672 108.917C121.804 109.254 121.892 109.592 121.936 109.929C121.987 110.266 122.013 110.622 122.013 110.996C122.013 111.502 121.965 111.986 121.87 112.448C121.782 112.903 121.635 113.343 121.43 113.768C121.232 114.186 120.939 114.523 120.55 114.78C120.161 115.029 119.703 115.154 119.175 115.154C118.522 115.154 117.972 114.96 117.525 114.571C117.085 114.182 116.85 113.687 116.821 113.086ZM119.241 108.257C118.845 108.257 118.526 108.407 118.284 108.708C118.049 109.001 117.932 109.39 117.932 109.874C117.932 110.351 118.053 110.728 118.295 111.007C118.537 111.286 118.86 111.425 119.263 111.425C119.666 111.425 119.993 111.282 120.242 110.996C120.491 110.71 120.616 110.336 120.616 109.874C120.616 109.383 120.491 108.99 120.242 108.697C119.993 108.404 119.659 108.257 119.241 108.257Z" fill="#CCCCCC"/>
<path d="M31.511 113.889V115H26.253C26.2603 114.655 26.308 114.34 26.396 114.054C26.484 113.768 26.583 113.526 26.693 113.328C26.8103 113.123 26.979 112.917 27.199 112.712C27.4263 112.499 27.628 112.327 27.804 112.195C27.9873 112.056 28.2367 111.88 28.552 111.667C28.574 111.652 28.6803 111.583 28.871 111.458C29.069 111.326 29.19 111.245 29.234 111.216C29.278 111.179 29.377 111.102 29.531 110.985C29.685 110.86 29.784 110.761 29.828 110.688C29.8793 110.615 29.9453 110.516 30.026 110.391C30.114 110.266 30.1727 110.142 30.202 110.017C30.2313 109.885 30.246 109.746 30.246 109.599C30.246 109.196 30.1323 108.88 29.905 108.653C29.685 108.418 29.3843 108.301 29.003 108.301C28.783 108.301 28.5923 108.338 28.431 108.411C28.2697 108.477 28.1413 108.565 28.046 108.675C27.958 108.785 27.8847 108.928 27.826 109.104C27.7673 109.273 27.727 109.434 27.705 109.588C27.6903 109.742 27.6793 109.922 27.672 110.127H26.451V109.929C26.451 109.1 26.682 108.444 27.144 107.96C27.6133 107.469 28.244 107.223 29.036 107.223C29.784 107.223 30.3853 107.436 30.84 107.861C31.2947 108.279 31.522 108.836 31.522 109.533C31.522 109.812 31.478 110.076 31.39 110.325C31.302 110.574 31.2067 110.776 31.104 110.93C31.0087 111.084 30.84 111.264 30.598 111.469C30.356 111.674 30.1763 111.817 30.059 111.898C29.9417 111.979 29.7253 112.125 29.41 112.338C28.4933 112.932 27.9433 113.449 27.76 113.889H31.511ZM35.1483 107.234C36.9376 107.234 37.8323 108.565 37.8323 111.227C37.8323 112.51 37.6086 113.486 37.1613 114.153C36.714 114.82 36.0576 115.154 35.1923 115.154C33.403 115.154 32.5083 113.838 32.5083 111.205C32.5083 109.907 32.732 108.921 33.1793 108.246C33.6266 107.571 34.283 107.234 35.1483 107.234ZM35.1593 108.29C34.9393 108.29 34.7486 108.334 34.5873 108.422C34.426 108.503 34.294 108.631 34.1913 108.807C34.096 108.976 34.019 109.148 33.9603 109.324C33.9016 109.493 33.8576 109.709 33.8283 109.973C33.8063 110.237 33.7916 110.457 33.7843 110.633C33.777 110.802 33.7733 111.018 33.7733 111.282C33.7733 112.272 33.8833 112.991 34.1033 113.438C34.3306 113.885 34.69 114.109 35.1813 114.109C35.372 114.109 35.5406 114.072 35.6873 113.999C35.8413 113.918 35.966 113.823 36.0613 113.713C36.1566 113.603 36.2373 113.456 36.3033 113.273C36.3693 113.09 36.417 112.925 36.4463 112.778C36.483 112.624 36.5086 112.437 36.5233 112.217C36.5453 111.99 36.5563 111.817 36.5563 111.7C36.5636 111.575 36.5673 111.418 36.5673 111.227C36.5673 110.978 36.5636 110.787 36.5563 110.655C36.5563 110.516 36.5453 110.31 36.5233 110.039C36.5013 109.76 36.4573 109.537 36.3913 109.368C36.3326 109.199 36.252 109.023 36.1493 108.84C36.054 108.657 35.922 108.521 35.7533 108.433C35.5846 108.338 35.3866 108.29 35.1593 108.29ZM42.3716 107.256V115H41.0296V109.676H39.1156V108.752C40.4503 108.752 41.1983 108.253 41.3596 107.256H42.3716ZM46.0969 110.853C45.7522 110.728 45.4809 110.527 45.2829 110.248C45.0922 109.962 44.9969 109.628 44.9969 109.247C44.9969 108.646 45.2206 108.154 45.6679 107.773C46.1226 107.392 46.7092 107.201 47.4279 107.201C48.1172 107.201 48.6819 107.392 49.1219 107.773C49.5619 108.147 49.7819 108.627 49.7819 109.214C49.7819 109.999 49.4189 110.545 48.6929 110.853C49.1622 111.014 49.5142 111.242 49.7489 111.535C49.9836 111.828 50.1009 112.221 50.1009 112.712C50.1009 113.438 49.8516 114.025 49.3529 114.472C48.8542 114.912 48.1979 115.132 47.3839 115.132C46.5772 115.132 45.9246 114.916 45.4259 114.483C44.9346 114.05 44.6889 113.482 44.6889 112.778C44.6889 112.301 44.8099 111.898 45.0519 111.568C45.3012 111.231 45.6496 110.992 46.0969 110.853ZM47.4169 108.213C47.0356 108.213 46.7312 108.316 46.5039 108.521C46.2839 108.719 46.1739 108.987 46.1739 109.324C46.1739 109.661 46.2876 109.933 46.5149 110.138C46.7422 110.343 47.0392 110.446 47.4059 110.446C47.7726 110.446 48.0659 110.347 48.2859 110.149C48.5059 109.944 48.6159 109.669 48.6159 109.324C48.6159 108.987 48.5059 108.719 48.2859 108.521C48.0732 108.316 47.7836 108.213 47.4169 108.213ZM47.3839 111.348C46.9586 111.348 46.6139 111.476 46.3499 111.733C46.0859 111.982 45.9539 112.309 45.9539 112.712C45.9539 113.152 46.0859 113.5 46.3499 113.757C46.6139 114.014 46.9732 114.142 47.4279 114.142C47.8679 114.142 48.2126 114.021 48.4619 113.779C48.7112 113.53 48.8359 113.185 48.8359 112.745C48.8359 112.32 48.7039 111.982 48.4399 111.733C48.1759 111.476 47.8239 111.348 47.3839 111.348Z" fill="#CCCCCC"/>
<rect x="37.5" y="57.5" width="37" height="19" stroke="#EEEEEE" stroke-opacity="0.1"/>
<rect x="74.5" y="57.5" width="37" height="19" stroke="#EEEEEE" stroke-opacity="0.1"/>
<rect x="111.5" y="57.5" width="37" height="19" stroke="#EEEEEE" stroke-opacity="0.1"/>
<rect x="148.5" y="57.5" width="37" height="19" stroke="#EEEEEE" stroke-opacity="0.1"/>
<rect x="185.5" y="57.5" width="37" height="19" stroke="#EEEEEE" stroke-opacity="0.1"/>
<rect x="0.5" y="57.5" width="37" height="19" stroke="#EEEEEE" stroke-opacity="0.1"/>
<rect x="37.5" y="38.5" width="37" height="19" stroke="#EEEEEE" stroke-opacity="0.1"/>
<rect x="74.5" y="38.5" width="37" height="19" stroke="#EEEEEE" stroke-opacity="0.1"/>
<rect x="111.5" y="38.5" width="37" height="19" stroke="#EEEEEE" stroke-opacity="0.1"/>
<rect x="148.5" y="38.5" width="37" height="19" stroke="#EEEEEE" stroke-opacity="0.1"/>
<rect x="185.5" y="38.5" width="37" height="19" stroke="#EEEEEE" stroke-opacity="0.1"/>
<rect x="0.5" y="38.5" width="37" height="19" stroke="#EEEEEE" stroke-opacity="0.1"/>
<rect x="37.5" y="19.5" width="37" height="19" stroke="#EEEEEE" stroke-opacity="0.1"/>
<rect x="74.5" y="19.5" width="37" height="19" stroke="#EEEEEE" stroke-opacity="0.1"/>
<rect x="37.5" y="76.5" width="37" height="19" stroke="#EEEEEE" stroke-opacity="0.1"/>
<rect x="74.5" y="76.5" width="37" height="19" stroke="#EEEEEE" stroke-opacity="0.1"/>
<rect x="37.5" y="0.5" width="37" height="19" stroke="#EEEEEE" stroke-opacity="0.1"/>
<rect x="74.5" y="0.5" width="37" height="19" stroke="#EEEEEE" stroke-opacity="0.1"/>
<rect x="111.5" y="19.5" width="37" height="19" stroke="#EEEEEE" stroke-opacity="0.1"/>
<rect x="148.5" y="19.5" width="37" height="19" stroke="#EEEEEE" stroke-opacity="0.1"/>
<rect x="185.5" y="19.5" width="37" height="19" stroke="#EEEEEE" stroke-opacity="0.1"/>
<rect x="0.5" y="19.5" width="37" height="19" stroke="#EEEEEE" stroke-opacity="0.1"/>
<rect x="111.5" y="76.5" width="37" height="19" stroke="#EEEEEE" stroke-opacity="0.1"/>
<rect x="111.5" y="0.5" width="37" height="19" stroke="#EEEEEE" stroke-opacity="0.1"/>
<rect x="148.5" y="76.5" width="37" height="19" stroke="#EEEEEE" stroke-opacity="0.1"/>
<rect x="148.5" y="0.5" width="37" height="19" stroke="#EEEEEE" stroke-opacity="0.1"/>
<rect x="185.5" y="76.5" width="37" height="19" stroke="#EEEEEE" stroke-opacity="0.1"/>
<rect x="185.5" y="0.5" width="37" height="19" stroke="#EEEEEE" stroke-opacity="0.1"/>
<rect x="0.5" y="76.5" width="37" height="19" stroke="#EEEEEE" stroke-opacity="0.1"/>
<rect x="0.5" y="0.5" width="37" height="19" stroke="#EEEEEE" stroke-opacity="0.1"/>
<path d="M177.147 15.256V23H175.805V17.676H173.891V16.752C175.226 16.752 175.974 16.2533 176.135 15.256H177.147ZM184.623 21.889V23H179.365C179.373 22.6553 179.42 22.34 179.508 22.054C179.596 21.768 179.695 21.526 179.805 21.328C179.923 21.1227 180.091 20.9173 180.311 20.712C180.539 20.4993 180.74 20.327 180.916 20.195C181.1 20.0557 181.349 19.8797 181.664 19.667C181.686 19.6523 181.793 19.5827 181.983 19.458C182.181 19.326 182.302 19.2453 182.346 19.216C182.39 19.1793 182.489 19.1023 182.643 18.985C182.797 18.8603 182.896 18.7613 182.94 18.688C182.992 18.6147 183.058 18.5157 183.138 18.391C183.226 18.2663 183.285 18.1417 183.314 18.017C183.344 17.885 183.358 17.7457 183.358 17.599C183.358 17.1957 183.245 16.8803 183.017 16.653C182.797 16.4183 182.497 16.301 182.115 16.301C181.895 16.301 181.705 16.3377 181.543 16.411C181.382 16.477 181.254 16.565 181.158 16.675C181.07 16.785 180.997 16.928 180.938 17.104C180.88 17.2727 180.839 17.434 180.817 17.588C180.803 17.742 180.792 17.9217 180.784 18.127H179.563V17.929C179.563 17.1003 179.794 16.444 180.256 15.96C180.726 15.4687 181.356 15.223 182.148 15.223C182.896 15.223 183.498 15.4357 183.952 15.861C184.407 16.279 184.634 16.8363 184.634 17.533C184.634 17.8117 184.59 18.0757 184.502 18.325C184.414 18.5743 184.319 18.776 184.216 18.93C184.121 19.084 183.952 19.2637 183.71 19.469C183.468 19.6743 183.289 19.8173 183.171 19.898C183.054 19.9787 182.838 20.1253 182.522 20.338C181.606 20.932 181.056 21.449 180.872 21.889H184.623ZM193.266 15.025L188.932 23.341H188.074L192.43 15.025H193.266ZM186.655 15.773C186.977 15.399 187.428 15.212 188.008 15.212C188.587 15.212 189.027 15.3917 189.328 15.751C189.628 16.103 189.779 16.62 189.779 17.302C189.779 18.0353 189.625 18.5927 189.317 18.974C189.016 19.3553 188.572 19.546 187.986 19.546C187.399 19.546 186.952 19.3627 186.644 18.996C186.336 18.622 186.182 18.0793 186.182 17.368C186.182 16.6787 186.339 16.147 186.655 15.773ZM187.986 15.927C187.428 15.927 187.15 16.4257 187.15 17.423C187.15 18.369 187.425 18.842 187.975 18.842C188.532 18.842 188.811 18.3323 188.811 17.313C188.811 16.389 188.536 15.927 187.986 15.927ZM192.199 19.381C192.521 19.007 192.972 18.82 193.552 18.82C194.131 18.82 194.571 18.9997 194.872 19.359C195.172 19.711 195.323 20.228 195.323 20.91C195.323 21.6433 195.169 22.2007 194.861 22.582C194.56 22.9633 194.116 23.154 193.53 23.154C192.943 23.154 192.496 22.9707 192.188 22.604C191.88 22.23 191.726 21.6873 191.726 20.976C191.726 20.2867 191.883 19.755 192.199 19.381ZM193.53 19.535C192.972 19.535 192.694 20.0337 192.694 21.031C192.694 21.977 192.969 22.45 193.519 22.45C194.076 22.45 194.355 21.9403 194.355 20.921C194.355 19.997 194.08 19.535 193.53 19.535Z" fill="white"/>
<path d="M110.511 68.889V70H105.253C105.26 69.6553 105.308 69.34 105.396 69.054C105.484 68.768 105.583 68.526 105.693 68.328C105.81 68.1227 105.979 67.9173 106.199 67.712C106.426 67.4993 106.628 67.327 106.804 67.195C106.987 67.0557 107.237 66.8797 107.552 66.667C107.574 66.6523 107.68 66.5827 107.871 66.458C108.069 66.326 108.19 66.2453 108.234 66.216C108.278 66.1793 108.377 66.1023 108.531 65.985C108.685 65.8603 108.784 65.7613 108.828 65.688C108.879 65.6147 108.945 65.5157 109.026 65.391C109.114 65.2663 109.173 65.1417 109.202 65.017C109.231 64.885 109.246 64.7457 109.246 64.599C109.246 64.1957 109.132 63.8803 108.905 63.653C108.685 63.4183 108.384 63.301 108.003 63.301C107.783 63.301 107.592 63.3377 107.431 63.411C107.27 63.477 107.141 63.565 107.046 63.675C106.958 63.785 106.885 63.928 106.826 64.104C106.767 64.2727 106.727 64.434 106.705 64.588C106.69 64.742 106.679 64.9217 106.672 65.127H105.451V64.929C105.451 64.1003 105.682 63.444 106.144 62.96C106.613 62.4687 107.244 62.223 108.036 62.223C108.784 62.223 109.385 62.4357 109.84 62.861C110.295 63.279 110.522 63.8363 110.522 64.533C110.522 64.8117 110.478 65.0757 110.39 65.325C110.302 65.5743 110.207 65.776 110.104 65.93C110.009 66.084 109.84 66.2637 109.598 66.469C109.356 66.6743 109.176 66.8173 109.059 66.898C108.942 66.9787 108.725 67.1253 108.41 67.338C107.493 67.932 106.943 68.449 106.76 68.889H110.511ZM119.153 62.025L114.819 70.341H113.961L118.317 62.025H119.153ZM112.542 62.773C112.865 62.399 113.316 62.212 113.895 62.212C114.475 62.212 114.915 62.3917 115.215 62.751C115.516 63.103 115.666 63.62 115.666 64.302C115.666 65.0353 115.512 65.5927 115.204 65.974C114.904 66.3553 114.46 66.546 113.873 66.546C113.287 66.546 112.839 66.3627 112.531 65.996C112.223 65.622 112.069 65.0793 112.069 64.368C112.069 63.6787 112.227 63.147 112.542 62.773ZM113.873 62.927C113.316 62.927 113.037 63.4257 113.037 64.423C113.037 65.369 113.312 65.842 113.862 65.842C114.42 65.842 114.698 65.3323 114.698 64.313C114.698 63.389 114.423 62.927 113.873 62.927ZM118.086 66.381C118.409 66.007 118.86 65.82 119.439 65.82C120.019 65.82 120.459 65.9997 120.759 66.359C121.06 66.711 121.21 67.228 121.21 67.91C121.21 68.6433 121.056 69.2007 120.748 69.582C120.448 69.9633 120.004 70.154 119.417 70.154C118.831 70.154 118.383 69.9707 118.075 69.604C117.767 69.23 117.613 68.6873 117.613 67.976C117.613 67.2867 117.771 66.755 118.086 66.381ZM119.417 66.535C118.86 66.535 118.581 67.0337 118.581 68.031C118.581 68.977 118.856 69.45 119.406 69.45C119.964 69.45 120.242 68.9403 120.242 67.921C120.242 66.997 119.967 66.535 119.417 66.535Z" fill="white"/>
<path d="M30.147 2.256V10H28.805V4.676H26.891V3.752C28.2257 3.752 28.9737 3.25333 29.135 2.256H30.147ZM37.3593 2.344V3.433H34.2903L33.9383 5.413C34.283 5.04633 34.767 4.863 35.3903 4.863C36.1016 4.863 36.6773 5.094 37.1173 5.556C37.5573 6.018 37.7773 6.62667 37.7773 7.382C37.7773 8.196 37.5206 8.85967 37.0073 9.373C36.494 9.88633 35.834 10.143 35.0273 10.143C34.2646 10.143 33.645 9.934 33.1683 9.516C32.699 9.09067 32.4496 8.52233 32.4203 7.811H33.6633C33.6926 8.207 33.8356 8.52233 34.0923 8.757C34.349 8.99167 34.6716 9.109 35.0603 9.109C35.515 9.109 35.867 8.966 36.1163 8.68C36.3656 8.38667 36.4903 7.976 36.4903 7.448C36.4903 6.93467 36.362 6.53867 36.1053 6.26C35.8486 5.974 35.493 5.831 35.0383 5.831C34.4883 5.831 34.0593 6.062 33.7513 6.524L32.6513 6.491L33.3883 2.344H37.3593ZM46.2656 2.025L41.9316 10.341H41.0736L45.4296 2.025H46.2656ZM39.6546 2.773C39.9773 2.399 40.4283 2.212 41.0076 2.212C41.5869 2.212 42.0269 2.39167 42.3276 2.751C42.6283 3.103 42.7786 3.62 42.7786 4.302C42.7786 5.03533 42.6246 5.59267 42.3166 5.974C42.0159 6.35533 41.5723 6.546 40.9856 6.546C40.3989 6.546 39.9516 6.36267 39.6436 5.996C39.3356 5.622 39.1816 5.07933 39.1816 4.368C39.1816 3.67867 39.3393 3.147 39.6546 2.773ZM40.9856 2.927C40.4283 2.927 40.1496 3.42567 40.1496 4.423C40.1496 5.369 40.4246 5.842 40.9746 5.842C41.5319 5.842 41.8106 5.33233 41.8106 4.313C41.8106 3.389 41.5356 2.927 40.9856 2.927ZM45.1986 6.381C45.5213 6.007 45.9723 5.82 46.5516 5.82C47.1309 5.82 47.5709 5.99967 47.8716 6.359C48.1723 6.711 48.3226 7.228 48.3226 7.91C48.3226 8.64333 48.1686 9.20067 47.8606 9.582C47.5599 9.96333 47.1163 10.154 46.5296 10.154C45.9429 10.154 45.4956 9.97067 45.1876 9.604C44.8796 9.23 44.7256 8.68733 44.7256 7.976C44.7256 7.28667 44.8833 6.755 45.1986 6.381ZM46.5296 6.535C45.9723 6.535 45.6936 7.03367 45.6936 8.031C45.6936 8.977 45.9686 9.45 46.5186 9.45C47.0759 9.45 47.3546 8.94033 47.3546 7.921C47.3546 6.997 47.0796 6.535 46.5296 6.535Z" fill="white"/>
<path d="M37.5 20L111.5 81.5L186 36" stroke="#FF9E5B" stroke-width="2" stroke-linecap="round" stroke-linejoin="round"/>
<circle cx="37.5" cy="18.5" r="4" fill="white" stroke="#FF9E5B"/>
<circle cx="111.5" cy="81.5" r="4" fill="white" stroke="#FF9E5B"/>
<circle cx="185.5" cy="35.5" r="4" fill="white" stroke="#FF9E5B"/>
<defs>
<linearGradient id="paint0_linear" x1="113.566" y1="31.0682" x2="113.506" y2="101.705" gradientUnits="userSpaceOnUse">
<stop stop-color="#FF9E5B"/>
<stop offset="0.937025" stop-color="#FFCE84" stop-opacity="0"/>
</linearGradient>
</defs>
</svg>
